<svg width="65" height="66" viewBox="0 0 65 66" fill="none" xmlns="http://www.w3.org/2000/svg">
<path d="M65 32.1538C65 52.0149 55.6907 66 35.8766 66C16.0625 66 0 55.8225 0 35.9615C0 16.1005 16.0625 0 35.8766 0C55.6907 0 65 12.2928 65 32.1538Z" fill="#FFE372"/>
<path d="M35.2918 46.2699C34.6774 46.8451 33.8562 47.1667 33.0016 47.1667C32.1469 47.1667 31.3258 46.8451 30.7114 46.2699C25.0851 40.9702 17.5452 35.0498 21.2222 26.4546C23.2103 21.8072 27.9827 18.8334 33.0016 18.8334C38.0205 18.8334 42.7928 21.8072 44.781 26.4546C48.4533 35.039 40.9319 40.9884 35.2918 46.2699Z" stroke="#121212" stroke-width="2"/>
<path d="M37.9577 31.5833C37.9577 34.3217 35.7378 36.5417 32.9993 36.5417C30.2609 36.5417 28.041 34.3217 28.041 31.5833C28.041 28.8449 30.2609 26.625 32.9993 26.625C35.7378 26.625 37.9577 28.8449 37.9577 31.5833Z" stroke="#121212" stroke-width="2"/>
</svg>
