<svg width="65" height="66" viewBox="0 0 65 66" fill="none" xmlns="http://www.w3.org/2000/svg">
<path d="M65 32.1538C65 52.0149 55.6907 66 35.8766 66C16.0625 66 0 55.8225 0 35.9615C0 16.1005 16.0625 0 35.8766 0C55.6907 0 65 12.2928 65 32.1538Z" fill="#FFE372"/>
<path d="M20.3523 32.9184C19.0092 30.5766 18.3608 28.6643 17.9698 26.7259C17.3914 23.8591 18.7149 21.0587 20.9073 19.2718C21.8339 18.5166 22.8961 18.7746 23.444 19.7576L24.681 21.9768C25.6615 23.7358 26.1517 24.6153 26.0545 25.5478C25.9572 26.4802 25.2961 27.2397 23.9738 28.7585L20.3523 32.9184ZM20.3523 32.9184C23.0707 37.6584 27.3368 41.9268 32.0823 44.6484M32.0823 44.6484C34.4241 45.9914 36.3364 46.6399 38.2748 47.0309C41.1416 47.6092 43.942 46.2858 45.7289 44.0934C46.4841 43.1668 46.2261 42.1046 45.2431 41.5567L43.0239 40.3197C41.2649 39.3392 40.3853 38.849 39.4529 38.9462C38.5204 39.0434 37.761 39.7046 36.2421 41.0269L32.0823 44.6484Z" stroke="#121212" stroke-width="2" stroke-linejoin="round"/>
<path d="M34.834 25.6785C36.8503 26.5347 38.466 28.1505 39.3223 30.1667M35.7605 18.8334C40.7716 20.2794 44.7211 24.2288 46.1673 29.2397" stroke="#121212" stroke-width="2" stroke-linecap="round"/>
</svg>
