<svg width="105" height="98" viewBox="0 0 105 98" fill="none" xmlns="http://www.w3.org/2000/svg">
<circle cx="35" cy="53.3413" r="35" fill="#F9D337" fill-opacity="0.5"/>
<path d="M66.7687 47.7887H63.9637C65.3906 50.3613 66.203 53.3095 66.203 56.4415C66.203 66.417 57.9711 74.5323 47.8534 74.5323C37.735 74.5323 29.5031 66.4168 29.5031 56.4415C29.503 46.4674 37.7348 38.3522 47.8534 38.3522C50.6975 38.3522 53.3939 38.9934 55.7989 40.1379V37.4353C53.3497 36.4391 50.6668 35.8853 47.8534 35.8853C36.3362 35.8853 27 45.0894 27 56.4416C27 67.7938 36.336 76.9996 47.8534 76.9996C59.3682 76.9996 68.706 67.7938 68.706 56.4416C68.7061 53.3494 68.0083 50.4194 66.7687 47.7887Z" fill="#161616"/>
<path d="M84.8039 29.1684C84.6089 28.7953 84.2937 28.5345 83.9818 28.3773C83.6673 28.2185 83.3462 28.1441 83.0177 28.1107L77.0615 27.5249C76.9403 27.516 76.7495 27.4333 76.6003 27.2829C76.4476 27.1356 76.3638 26.9475 76.3555 26.8281L75.7589 20.9533C75.7124 20.5239 75.5972 20.0969 75.2936 19.6994C75.1315 19.4883 74.924 19.3151 74.6862 19.1922C74.4367 19.066 74.1603 19.0001 73.8798 19C73.5322 19.0009 73.2236 19.0973 72.9639 19.229C72.7042 19.3632 72.4836 19.5349 72.2844 19.7304L60.2628 31.5831C59.7741 32.0714 59.4265 32.6588 59.1592 33.2869C58.8988 33.9176 58.722 34.5762 58.717 35.2624V42.0313C58.7186 42.4951 58.8399 42.9271 59.0381 43.3148L53.8653 48.5671C52.1893 47.3221 50.1129 46.5737 47.8528 46.5737C42.3239 46.5737 37.8438 50.9924 37.8438 56.4411C37.8438 61.8898 42.3239 66.3086 47.8528 66.3086C53.3791 66.3086 57.8618 61.8898 57.8618 56.4411C57.8618 54.1099 57.0364 51.9707 55.6641 50.2817L61.022 44.8428C61.2243 44.886 61.4306 44.9085 61.6376 44.9098H68.5071C69.2031 44.905 69.8711 44.7315 70.5098 44.4746C71.1478 44.2103 71.7434 43.8677 72.2395 43.3859L84.2587 31.5364C84.4569 31.34 84.6303 31.1225 84.7665 30.8658C84.9001 30.6096 84.9988 30.3055 84.9988 29.9635C85.0003 29.6868 84.9334 29.4139 84.8039 29.1684ZM47.8528 63.8426C43.7129 63.8426 40.3451 60.5232 40.3451 56.4421C40.3451 52.3619 43.7127 49.0415 47.8528 49.0415C49.4317 49.0415 50.8968 49.5274 52.1071 50.3518L46.955 55.5837C46.4737 56.0721 46.4854 56.8533 46.9808 57.3277C47.4761 57.8022 48.2693 57.7906 48.7506 57.3022L53.8995 52.0751C54.8128 53.3006 55.3595 54.8074 55.3595 56.4418C55.3595 60.5232 51.9919 63.8426 47.8528 63.8426ZM61.221 41.1015V35.2635C61.2161 35.0459 61.3064 34.6196 61.4732 34.2319C61.6318 33.8426 61.874 33.4785 62.0341 33.328L73.3689 22.1534L73.8676 27.0753C73.9024 27.4065 73.9986 27.7133 74.1264 28.0004L61.221 41.1015ZM70.4707 41.643C70.3164 41.8001 69.9488 42.038 69.5539 42.196C69.1606 42.3604 68.7285 42.4495 68.5076 42.4447H63.3853L75.904 29.7347C76.1877 29.8542 76.4872 29.9449 76.8132 29.9792L81.8028 30.47L70.4707 41.643Z" fill="#161616"/>
</svg>
