<svg width="105" height="98" viewBox="0 0 105 98" fill="none" xmlns="http://www.w3.org/2000/svg">
<circle cx="35" cy="53.3413" r="35" fill="#F9D337" fill-opacity="0.5"/>
<path d="M54.4804 50.0862L63.8551 57.2858C64.0192 57.4118 64.206 57.5035 64.4048 57.5557C64.6035 57.6078 64.8104 57.6194 65.0135 57.5897C65.2166 57.5599 65.412 57.4896 65.5886 57.3825C65.7651 57.2755 65.9194 57.1339 66.0425 56.9658C66.1656 56.7977 66.2552 56.6064 66.3061 56.4029C66.357 56.1994 66.3683 55.9876 66.3393 55.7796C66.3103 55.5716 66.2415 55.3715 66.137 55.1907C66.0324 55.0099 65.8942 54.852 65.73 54.7259L57.0507 47.9983V34.3992C57.0507 33.9749 56.886 33.568 56.593 33.2679C56.3 32.9679 55.9026 32.7993 55.4882 32.7993C55.0738 32.7993 54.6764 32.9679 54.3834 33.2679C54.0904 33.568 53.9258 33.9749 53.9258 34.3992V48.7983C53.9258 49.3295 54.143 49.8078 54.4804 50.0862Z" fill="#121212"/>
<path d="M56.2704 24C44.8342 24 35.0682 32.4523 33.162 43.9987L32.5683 43.0948C32.3362 42.7426 31.977 42.4992 31.5697 42.4182C31.1624 42.3372 30.7404 42.4252 30.3965 42.6628C30.0525 42.9004 29.8149 43.2682 29.7357 43.6853C29.6566 44.1023 29.7425 44.5345 29.9746 44.8867L33.0995 49.6864C33.2264 49.884 33.3945 50.0503 33.5917 50.1734C33.7889 50.2965 34.0104 50.3733 34.2401 50.3983H34.3963C34.6012 50.3976 34.8039 50.3556 34.9929 50.2746C35.1819 50.1936 35.3535 50.0753 35.4978 49.9263L39.4039 45.9266C39.6828 45.6235 39.8354 45.221 39.8294 44.8045C39.8233 44.3881 39.6591 43.9905 39.3715 43.696C39.0839 43.4015 38.6955 43.2333 38.2889 43.2271C37.8822 43.2209 37.4891 43.3771 37.1931 43.6627L36.2244 44.6627C38.0235 33.3242 48.4583 25.6271 59.5305 27.4694C70.6027 29.3117 78.1212 39.9958 76.322 51.3343C74.7244 61.4024 66.2318 68.7987 56.2704 68.7971C53.1749 68.8546 50.1115 68.1457 47.3409 66.7306C44.5703 65.3156 42.1744 63.2363 40.357 60.6697C40.238 60.4984 40.0872 60.3529 39.9133 60.2413C39.7393 60.1297 39.5456 60.0543 39.3433 60.0194C39.1409 59.9845 38.9337 59.9908 38.7337 60.0378C38.5337 60.0849 38.3446 60.1718 38.1774 60.2937C38.0102 60.4155 37.868 60.5699 37.7591 60.748C37.6501 60.9262 37.5765 61.1245 37.5424 61.3317C37.5083 61.539 37.5144 61.7511 37.5604 61.9559C37.6063 62.1607 37.6912 62.3543 37.8102 62.5255C39.9149 65.5099 42.6924 67.9295 45.9064 69.5785C49.1205 71.2276 52.676 72.0572 56.2704 71.9969C69.2145 71.9969 79.707 61.2528 79.707 47.9985C79.707 34.7441 69.2145 24 56.2704 24Z" fill="#121212"/>
</svg>
