<svg width="87" height="88" viewBox="0 0 87 88" fill="none" xmlns="http://www.w3.org/2000/svg">
<path d="M75 41.8052C75 61.6662 65.6907 75.6514 45.8766 75.6514C26.0625 75.6514 10 65.4739 10 45.6129C10 25.7519 26.0625 9.65137 45.8766 9.65137C65.6907 9.65137 75 21.9442 75 41.8052Z" fill="white"/>
<path d="M16.29 28.892C21.0683 20.6158 27.0355 14.773 33.789 12.1601C40.5128 9.55858 48.1254 10.1156 56.3256 14.85C64.5906 19.6218 70.7899 26.0258 73.7485 33.2341C76.6962 40.4157 76.4552 48.4575 71.7383 56.6275C62.2841 73.0026 41.3454 78.6131 24.9703 69.159C16.7428 64.4088 12.26 58.433 10.9562 51.6729C9.64774 44.889 11.5118 37.1682 16.29 28.892Z" stroke="#F9D337" stroke-width="1.5"/>
<path d="M35.3496 42.5423C42.5358 29.1487 51.484 28.9942 55.0598 30.5912C56.6568 34.167 56.5023 43.1152 43.1088 50.3014C42.9699 49.5029 42.1974 47.4113 40.2186 45.4324C38.2398 43.4536 36.1481 42.6811 35.3496 42.5423Z" stroke="#161616" stroke-width="1.5" stroke-linecap="round" stroke-linejoin="round"/>
<path d="M44.9121 49.6639C47.5167 50.9389 47.7947 53.2251 48.1555 55.4013C48.1555 55.4013 53.6106 51.3688 50.1212 45.8389" stroke="#161616" stroke-width="1.5" stroke-linecap="round" stroke-linejoin="round"/>
<path d="M35.9874 40.8477C34.7124 38.2432 32.4262 37.9651 30.25 37.6043C30.25 37.6043 34.2825 32.1492 39.8125 35.6386" stroke="#161616" stroke-width="1.5" stroke-linecap="round" stroke-linejoin="round"/>
<path d="M34.5256 46.7757C33.8005 47.5008 32.5678 49.6036 33.438 52.2139C36.0483 53.0841 38.1511 51.8514 38.8762 51.1263" stroke="#161616" stroke-width="1.5" stroke-linecap="round" stroke-linejoin="round"/>
<path d="M50.5091 37.6224C50.5091 36.2532 49.3992 35.1432 48.0299 35.1432C46.6607 35.1432 45.5508 36.2532 45.5508 37.6224C45.5508 38.9916 46.6607 40.1016 48.0299 40.1016C49.3992 40.1016 50.5091 38.9916 50.5091 37.6224Z" stroke="#161616" stroke-width="1.5"/>
</svg>
