<svg width="105" height="98" viewBox="0 0 105 98" fill="none" xmlns="http://www.w3.org/2000/svg">
<ellipse cx="35" cy="59.4482" rx="35" ry="34.5517" fill="#F9D337" fill-opacity="0.5"/>
<path d="M75.73 44.3219H75.5949V41.0471C75.5949 30.5277 66.9737 22 56.3387 22C45.7037 22 37.0826 30.5277 37.0826 41.0471V44.3219H36.2719C33.2989 44.3219 31.0018 46.9283 31.0018 49.9358V58.2898C30.9269 61.2047 33.2552 63.6278 36.2021 63.7018C36.2254 63.7025 36.2486 63.7029 36.2719 63.7031H41.2717C41.9798 63.6702 42.527 63.0755 42.4937 62.3751C42.4925 62.3498 42.4905 62.3247 42.4878 62.2996V45.9257C42.4878 45.1238 42.0149 44.3218 41.2717 44.3218H39.7852V41.047C39.7852 32.004 47.1965 24.6732 56.3387 24.6732C65.4809 24.6732 72.8923 32.004 72.8923 41.047V44.3218H71.4058C70.6626 44.3218 70.1896 45.1237 70.1896 45.9257V62.2996C70.1142 62.9969 70.6246 63.6227 71.3295 63.6972C71.3549 63.6999 71.3803 63.7018 71.4058 63.703H72.9598L72.8246 63.9034C71.8247 65.2179 70.5282 66.283 69.0384 67.014C67.5487 67.745 65.9068 68.1216 64.2438 68.1138C63.5056 64.5335 59.9727 62.2228 56.3531 62.9531C53.2577 63.5775 51.026 66.259 51.001 69.3837C51.038 73.0486 54.0523 76.0003 57.7576 76C59.5918 75.9706 61.3401 75.226 62.6222 73.9282C63.4872 73.0519 64.0541 71.9305 64.2438 70.7202C66.3264 70.728 68.382 70.2548 70.2471 69.3382C72.1121 68.4216 73.735 67.087 74.9867 65.4405L76.2705 63.5692C79.1757 63.3687 81 61.5643 81 58.9578V50.6038C81.0001 47.7303 78.8381 44.3219 75.73 44.3219ZM39.7852 61.0298H36.2719C34.817 60.9948 33.6662 59.7999 33.7017 58.3608C33.7023 58.3371 33.7032 58.3134 33.7044 58.2897V49.9357C33.7044 48.3986 34.7854 46.995 36.2719 46.995H39.7852V61.0298ZM60.663 72.0571C60.2925 72.4544 59.8435 72.7722 59.3437 72.9906C58.8439 73.209 58.3041 73.3235 57.7577 73.327C55.5594 73.2924 53.7755 71.5573 53.7038 69.3838C53.7028 67.2061 55.4869 65.44 57.6885 65.4391C59.8901 65.4382 61.6756 67.2029 61.6765 69.3806V69.3838C61.7043 69.8746 61.6285 70.3657 61.4541 70.8259C61.2796 71.2862 61.0102 71.7054 60.663 72.0571ZM78.2975 58.958C78.2975 60.7625 76.5408 61.0298 75.73 61.0298H72.8923V46.9952H75.73C77.2165 46.9952 78.2975 49.067 78.2975 50.6041V58.958Z" fill="black"/>
</svg>
