<svg width="87" height="88" viewBox="0 0 87 88" fill="none" xmlns="http://www.w3.org/2000/svg">
<path d="M75 42.1538C75 62.0149 65.6907 76 45.8766 76C26.0625 76 10 65.8225 10 45.9615C10 26.1005 26.0625 10 45.8766 10C65.6907 10 75 22.2928 75 42.1538Z" fill="white"/>
<path d="M16.29 28.892C21.0683 20.6158 27.0355 14.773 33.789 12.1601C40.5128 9.55858 48.1254 10.1156 56.3256 14.85C64.5906 19.6218 70.7899 26.0258 73.7485 33.2341C76.6962 40.4157 76.4552 48.4575 71.7383 56.6275C62.2841 73.0026 41.3454 78.6131 24.9703 69.159C16.7428 64.4088 12.26 58.433 10.9562 51.6729C9.64774 44.889 11.5118 37.1682 16.29 28.892Z" stroke="#F9D337" stroke-width="1.5"/>
<g clip-path="url(#clip0_1_22537)">
<path d="M42.8641 44.2234L48.4891 48.4422C48.5876 48.5161 48.6996 48.5698 48.8189 48.6004C48.9382 48.6309 49.0623 48.6377 49.1841 48.6203C49.306 48.6029 49.4233 48.5616 49.5292 48.4989C49.6351 48.4362 49.7277 48.3532 49.8016 48.2547C49.8754 48.1562 49.9292 48.0441 49.9597 47.9249C49.9903 47.8056 49.9971 47.6815 49.9796 47.5596C49.9622 47.4377 49.921 47.3205 49.8583 47.2145C49.7955 47.1086 49.7126 47.0161 49.6141 46.9422L44.4062 43V35.0312C44.4062 34.7826 44.3075 34.5442 44.1317 34.3683C43.9558 34.1925 43.7174 34.0938 43.4687 34.0938C43.2201 34.0938 42.9817 34.1925 42.8058 34.3683C42.63 34.5442 42.5312 34.7826 42.5312 35.0312V43.4688C42.5312 43.78 42.6616 44.0603 42.8641 44.2234Z" fill="#121212"/>
<path d="M43.9367 28.9375C37.0747 28.9375 31.2148 33.8903 30.0711 40.6562L29.7148 40.1266C29.5756 39.9202 29.3601 39.7776 29.1157 39.7301C28.8713 39.6826 28.6181 39.7342 28.4117 39.8734C28.2054 40.0127 28.0627 40.2282 28.0153 40.4726C27.9678 40.717 28.0194 40.9702 28.1586 41.1766L30.0336 43.9891C30.1097 44.1049 30.2106 44.2023 30.329 44.2745C30.4473 44.3466 30.5802 44.3916 30.718 44.4062H30.8117C30.9347 44.4058 31.0563 44.3812 31.1697 44.3337C31.2831 44.2863 31.3861 44.2169 31.4727 44.1297L33.8164 41.7859C33.9838 41.6083 34.0753 41.3725 34.0717 41.1284C34.0681 40.8844 33.9695 40.6514 33.7969 40.4788C33.6244 40.3063 33.3914 40.2077 33.1473 40.2041C32.9033 40.2004 32.6675 40.292 32.4898 40.4594L31.9086 41.0453C32.9881 34.4012 39.2492 29.8909 45.8928 30.9705C52.5364 32.05 57.0477 38.3106 55.9681 44.9547C55.0095 50.8544 49.9138 55.1884 43.9367 55.1875C42.0793 55.2212 40.2412 54.8057 38.5788 53.9766C36.9164 53.1474 35.4788 51.929 34.3883 50.425C34.3169 50.3247 34.2264 50.2394 34.122 50.174C34.0177 50.1086 33.9014 50.0644 33.78 50.044C33.6586 50.0235 33.5343 50.0272 33.4143 50.0548C33.2942 50.0823 33.1808 50.1333 33.0805 50.2047C32.9801 50.2761 32.8948 50.3666 32.8295 50.4709C32.7641 50.5753 32.7199 50.6915 32.6995 50.813C32.679 50.9344 32.6827 51.0587 32.7102 51.1787C32.7378 51.2987 32.7888 51.4122 32.8602 51.5125C34.123 53.2612 35.7896 54.6791 37.7181 55.6454C39.6466 56.6117 41.78 57.0978 43.9367 57.0625C51.7034 57.0625 57.9992 50.7667 57.9992 43C57.9992 35.2333 51.7034 28.9375 43.9367 28.9375Z" fill="#121212"/>
</g>
<defs>
<clipPath id="clip0_1_22537">
<rect width="30" height="30" fill="white" transform="translate(28 28)"/>
</clipPath>
</defs>
</svg>
