<svg width="87" height="88" viewBox="0 0 87 88" fill="none" xmlns="http://www.w3.org/2000/svg">
<path d="M75 42.1538C75 62.0149 65.6907 76 45.8766 76C26.0625 76 10 65.8225 10 45.9615C10 26.1005 26.0625 10 45.8766 10C65.6907 10 75 22.2928 75 42.1538Z" fill="white"/>
<path d="M16.29 28.892C21.0683 20.6158 27.0355 14.773 33.789 12.1601C40.5128 9.55858 48.1254 10.1156 56.3256 14.85C64.5906 19.6218 70.7899 26.0258 73.7485 33.2341C76.6962 40.4157 76.4552 48.4575 71.7383 56.6275C62.2841 73.0026 41.3454 78.6131 24.9703 69.159C16.7428 64.4088 12.26 58.433 10.9562 51.6729C9.64774 44.889 11.5118 37.1682 16.29 28.892Z" stroke="#F9D337" stroke-width="1.5"/>
<g clip-path="url(#clip0_1_22578)">
<path d="M53.495 35.9389L47.8818 35.1233L45.3714 30.0368C44.4018 28.072 41.5981 28.0726 40.6288 30.0367L38.1185 35.1232L32.5052 35.9389C30.3368 36.254 29.4713 38.9205 31.0397 40.4494L35.1015 44.4087L34.1426 49.9991C33.7723 52.1587 36.0407 53.8059 37.9795 52.7869L43.0002 50.1472L48.0209 52.7869C49.957 53.8047 52.2281 52.1584 51.8578 49.9991L50.8989 44.4086L54.9608 40.4494C56.5295 38.9199 55.6625 36.2539 53.495 35.9389ZM53.3784 38.8263L48.8899 43.2015C48.7584 43.3297 48.66 43.488 48.6032 43.6628C48.5464 43.8375 48.533 44.0235 48.564 44.2046L49.6236 50.3824C49.6768 50.6927 49.354 50.927 49.0755 50.7807L43.5274 47.8639C43.3648 47.7784 43.1838 47.7338 43.0001 47.7338C42.8163 47.7338 42.6354 47.7784 42.4727 47.8639L36.9247 50.7807C36.646 50.9271 36.3234 50.6926 36.3766 50.3824L37.4361 44.2046C37.4672 44.0235 37.4537 43.8375 37.397 43.6628C37.3402 43.488 37.2418 43.3297 37.1102 43.2015L32.6217 38.8263C32.3963 38.6066 32.5196 38.2273 32.8311 38.1819L39.034 37.2806C39.2158 37.2542 39.3885 37.184 39.5372 37.076C39.6858 36.968 39.806 36.8255 39.8873 36.6607L42.6614 31.0399C42.8006 30.7578 43.1995 30.7576 43.3388 31.0399L46.1129 36.6607C46.1942 36.8255 46.3144 36.968 46.463 37.076C46.6117 37.184 46.7844 37.2542 46.9662 37.2806L53.1691 38.1819C53.4805 38.2273 53.6038 38.6067 53.3784 38.8263ZM34.947 29.1311L33.5916 27.2655C33.2236 26.7593 32.5149 26.6469 32.0086 27.0149C31.5023 27.3828 31.39 28.0916 31.7579 28.5979L33.1133 30.4634C33.4815 30.97 34.1902 31.0818 34.6963 30.714C35.2027 30.3462 35.315 29.6374 34.947 29.1311ZM30.4491 45.8492C30.2558 45.254 29.6164 44.9279 29.021 45.1216L26.7834 45.8487C26.1881 46.0421 25.8624 46.6814 26.0558 47.2767C26.2495 47.873 26.8899 48.1976 27.4838 48.0043L29.7215 47.2773C30.3168 47.0838 30.6425 46.4445 30.4491 45.8492ZM53.9915 27.015C53.4853 26.6471 52.7765 26.7593 52.4085 27.2656L51.0531 29.1311C50.6852 29.6374 50.7975 30.3463 51.3038 30.7141C51.8104 31.0821 52.519 30.9696 52.8868 30.4635L54.2422 28.598C54.6101 28.0916 54.4979 27.3828 53.9915 27.015ZM59.2167 45.8487L56.979 45.1216C56.3838 44.9278 55.7444 45.2539 55.551 45.8492C55.3575 46.4445 55.6832 47.0839 56.2786 47.2773L58.5162 48.0043C59.1102 48.1975 59.7506 47.8729 59.9443 47.2767C60.1377 46.6815 59.8119 46.0421 59.2167 45.8487ZM43 54.6346C42.3742 54.6346 41.8668 55.142 41.8668 55.7679V58.0681C41.8668 58.694 42.3742 59.2014 43 59.2014C43.6259 59.2014 44.1333 58.694 44.1333 58.0681V55.7679C44.1334 55.142 43.626 54.6346 43 54.6346Z" fill="#121212"/>
</g>
<defs>
<clipPath id="clip0_1_22578">
<rect width="34" height="34" fill="white" transform="translate(26 26)"/>
</clipPath>
</defs>
</svg>
