<svg width="87" height="88" viewBox="0 0 87 88" fill="none" xmlns="http://www.w3.org/2000/svg">
<path d="M75 41.8052C75 61.6662 65.6907 75.6514 45.8766 75.6514C26.0625 75.6514 10 65.4739 10 45.6129C10 25.7519 26.0625 9.65137 45.8766 9.65137C65.6907 9.65137 75 21.9442 75 41.8052Z" fill="white"/>
<path d="M16.29 28.892C21.0683 20.6158 27.0355 14.773 33.789 12.1601C40.5128 9.55858 48.1254 10.1156 56.3256 14.85C64.5906 19.6218 70.7899 26.0258 73.7485 33.2341C76.6962 40.4157 76.4552 48.4575 71.7383 56.6275C62.2841 73.0026 41.3454 78.6131 24.9703 69.159C16.7428 64.4088 12.26 58.433 10.9562 51.6729C9.64774 44.889 11.5118 37.1682 16.29 28.892Z" stroke="#F9D337" stroke-width="1.5"/>
<g clip-path="url(#clip0_1_22561)">
<path d="M46.0515 40.5585H45.004C44.9173 40.1962 44.7677 39.8497 44.5629 39.5346H46.0515C46.4925 39.5346 46.8469 39.1802 46.8469 38.7471C46.8469 38.3139 46.4925 37.9595 46.0593 37.9595H39.9556C39.5224 37.9595 39.168 38.3139 39.168 38.7471C39.168 39.1802 39.5224 39.5346 39.9556 39.5346H41.704C42.4049 39.5189 43.0586 39.9206 43.3579 40.5585H39.9556C39.5224 40.5585 39.168 40.9129 39.168 41.3461C39.168 41.7793 39.5224 42.1337 39.9556 42.1337H43.3579C43.2634 42.3148 43.1374 42.4802 43.0035 42.6298C42.657 42.9685 42.1923 43.1575 41.7119 43.1575H39.9634C39.5224 43.1654 39.168 43.5277 39.1758 43.9687C39.1758 44.1814 39.2704 44.3862 39.42 44.5358L43.7832 48.6706C44.0904 48.9778 44.5944 48.9699 44.8937 48.6627C45.2009 48.3556 45.193 47.8515 44.8858 47.5522L44.8622 47.5286L41.9245 44.7484C42.7515 44.6933 43.5233 44.3468 44.1061 43.7561C44.555 43.315 44.8701 42.748 45.0118 42.1337H46.0515C46.4846 42.1337 46.839 41.7793 46.839 41.3461C46.839 40.9129 46.4846 40.5585 46.0515 40.5585Z" fill="#121212"/>
<path d="M59.8582 44.2916L56.2353 39.0069C56.0857 38.7943 55.8494 38.6683 55.5895 38.6683C55.3296 38.6683 55.0855 38.7943 54.9437 39.0069L51.3129 44.2759C51.0688 44.6382 51.1554 45.1265 51.5177 45.3785C51.6516 45.4651 51.8013 45.5203 51.9588 45.5203H54.5972C54.0931 48.198 52.6518 50.5765 50.4702 52.3486C48.2886 54.1207 45.5636 55.1367 42.9724 55.1367C39.4756 55.1367 35.766 53.2543 33.5214 50.3403C33.2615 49.9859 32.7732 49.915 32.4188 50.1749C32.0644 50.4348 31.9935 50.9231 32.2534 51.2775C32.2613 51.2854 32.2692 51.2932 32.277 51.309C34.8524 54.6484 38.9479 56.7197 42.9724 56.7197C45.918 56.7197 49.0132 55.5777 51.4626 53.5772C54.0065 51.5059 55.6683 48.6785 56.1881 45.5281H59.2124C59.6535 45.5281 60 45.1658 60 44.7327C60 44.5752 59.9527 44.4176 59.8582 44.2916ZM53.7545 34.7225C53.7466 34.7146 53.7387 34.7067 53.7308 34.691C51.1554 31.3516 47.06 29.2803 43.0354 29.2803C40.0899 29.2803 36.9947 30.4223 34.5453 32.4227C31.9935 34.502 30.3317 37.3294 29.8119 40.4797H26.7876C26.3465 40.4797 26 40.842 26 41.2752C26 41.4327 26.0473 41.5902 26.1418 41.7162L29.7804 46.9852C29.93 47.1978 30.1663 47.3238 30.4262 47.3238C30.6861 47.3238 30.9303 47.1978 31.072 46.9852L34.7028 41.7162C34.8682 41.4799 34.8839 41.1649 34.7501 40.905C34.6162 40.6451 34.3484 40.4797 34.0491 40.4797H31.4107C31.9148 37.8019 33.356 35.4234 35.5376 33.6514C37.7192 31.8793 40.4443 30.8633 43.0354 30.8633C46.5323 30.8633 50.2418 32.7456 52.4864 35.6597C52.7464 36.0141 53.2347 36.085 53.5891 35.8251C53.9435 35.5652 54.0144 35.0769 53.7545 34.7225Z" fill="#121212"/>
</g>
<defs>
<clipPath id="clip0_1_22561">
<rect width="34" height="34" fill="white" transform="translate(26 26)"/>
</clipPath>
</defs>
</svg>
