<svg width="105" height="98" viewBox="0 0 105 98" fill="none" xmlns="http://www.w3.org/2000/svg">
<circle cx="35" cy="54.3723" r="35" fill="#F9D337" fill-opacity="0.5"/>
<path d="M29.1285 57.9311C29.2001 57.7824 29.2994 57.6496 29.4205 57.5406C29.5417 57.4315 29.6825 57.3482 29.8348 57.2954C29.9871 57.2426 30.1479 57.2213 30.3081 57.2329C30.4683 57.2444 30.6248 57.2885 30.7685 57.3626L32.176 58.089C30.6222 53.3929 30.4559 48.3241 31.6985 43.5298C35.1458 30.2165 48.4169 22.287 61.2809 25.8547C65.3124 26.9717 68.9954 29.1506 71.971 32.1792C72.0867 32.2956 72.179 32.4345 72.2426 32.5879C72.3062 32.7414 72.3398 32.9063 72.3415 33.0733C72.3432 33.2402 72.313 33.4059 72.2526 33.5607C72.1922 33.7155 72.1028 33.8564 71.9895 33.9753C71.8763 34.0942 71.7414 34.1887 71.5927 34.2535C71.444 34.3182 71.2844 34.3518 71.1231 34.3524C70.9618 34.3531 70.8019 34.3206 70.6528 34.257C70.5036 34.1935 70.3681 34.0999 70.254 33.9819C66.7863 30.452 62.2736 28.2296 57.4396 27.6711C52.6056 27.1126 47.7304 28.2503 43.5959 30.9019C39.4614 33.5535 36.3071 37.5652 34.6389 42.2937C32.9706 47.0223 32.8852 52.1936 34.3961 56.9784L34.7777 55.6574C34.8706 55.3358 35.0832 55.0655 35.3686 54.906C35.6541 54.7466 35.989 54.7111 36.2998 54.8072C36.6106 54.9034 36.8717 55.1233 37.0258 55.4187C37.1798 55.7142 37.2142 56.0608 37.1213 56.3825L35.7561 61.1089C35.705 61.2858 35.6172 61.4489 35.4988 61.5869C35.3804 61.7249 35.2342 61.8344 35.0706 61.9078C34.907 61.9812 34.7298 62.0167 34.5516 62.0117C34.3733 62.0068 34.1982 61.9615 34.0387 61.8792L29.6773 59.6286C29.5336 59.5544 29.4053 59.4517 29.3 59.3263C29.1946 59.2008 29.1142 59.0551 29.0632 58.8975C29.0122 58.7399 28.9918 58.5734 29.003 58.4076C29.0142 58.2418 29.0568 58.0799 29.1285 57.9311ZM72.8869 43.5152L74.2523 38.7885C74.3034 38.6117 74.3912 38.4485 74.5096 38.3105C74.6281 38.1725 74.7742 38.063 74.9379 37.9897C75.1015 37.9163 75.2787 37.8808 75.457 37.8858C75.6352 37.8908 75.8103 37.936 75.9699 38.0184L80.3313 40.2692C80.6189 40.4206 80.8372 40.6835 80.9383 41.0006C81.0395 41.3178 81.0155 41.6634 80.8714 41.9623C80.7274 42.2612 80.4751 42.4891 80.1694 42.5962C79.8638 42.7034 79.5296 42.6812 79.2397 42.5344L77.8538 41.8193C79.4361 46.5402 79.6126 51.6439 78.3605 56.4698C75.4725 67.6246 65.6875 75 55.0242 75C48.6462 74.9943 42.5284 72.3826 38.0013 67.7331C37.7752 67.4954 37.6488 67.175 37.6496 66.8415C37.6505 66.5079 37.7785 66.1882 38.0059 65.9519C38.2333 65.7155 38.5416 65.5815 38.8639 65.5792C39.1862 65.5768 39.4964 65.7062 39.727 65.9392C43.1927 69.502 47.7181 71.7511 52.5717 72.3229C57.4253 72.8946 62.3233 71.7556 66.4741 69.09C70.6248 66.4243 73.7855 62.3879 75.4453 57.6332C77.1052 52.8785 77.1671 47.6834 75.621 42.8877L75.2303 44.2402C75.1374 44.5619 74.9249 44.8321 74.6394 44.9916C74.354 45.151 74.019 45.1866 73.7082 45.0904C73.3974 44.9943 73.1363 44.7743 72.9822 44.4789C72.8282 44.1835 72.794 43.8368 72.8869 43.5152ZM61.8537 41.1436C61.8537 39.7525 61.4551 38.3926 60.7084 37.2359C59.9616 36.0792 58.9001 35.1777 57.6582 34.6453C56.4164 34.113 55.0498 33.9737 53.7315 34.2451C52.4131 34.5165 51.2021 35.1864 50.2516 36.1701C49.3012 37.1537 48.6539 38.407 48.3916 39.7714C48.1294 41.1358 48.264 42.55 48.7784 43.8353C49.2928 45.1205 50.1639 46.219 51.2815 46.9919C52.3992 47.7648 53.7132 48.1773 55.0574 48.1773C56.8592 48.175 58.5866 47.4332 59.8607 46.1146C61.1348 44.7961 61.8515 43.0084 61.8537 41.1436ZM50.7056 41.1436C50.7056 40.2531 50.9608 39.3827 51.4388 38.6423C51.9168 37.9019 52.5963 37.3248 53.3912 36.984C54.1861 36.6433 55.0608 36.5541 55.9047 36.7278C56.7486 36.9016 57.5238 37.3304 58.1322 37.96C58.7406 38.5897 59.1549 39.3919 59.3228 40.2653C59.4906 41.1386 59.4045 42.0439 59.0752 42.8666C58.7459 43.6892 58.1883 44.3924 57.4729 44.8871C56.7575 45.3818 55.9164 45.6459 55.056 45.6459C53.9027 45.6444 52.797 45.1695 51.9814 44.3255C51.1659 43.4815 50.7071 42.3372 50.7056 41.1436ZM42.8977 60.0183C42.8343 60.5366 42.8783 61.063 43.0266 61.5624C43.175 62.0618 43.4244 62.5228 43.7583 62.9147C44.0921 63.3066 44.5027 63.6205 44.9628 63.8355C45.423 64.0505 45.922 64.1617 46.4269 64.1616H63.6868C64.1917 64.1617 64.6908 64.0505 65.1509 63.8355C65.611 63.6205 66.0216 63.3066 66.3555 62.9147C66.6893 62.5228 66.9387 62.0618 67.0871 61.5624C67.2355 61.063 67.2794 60.5366 67.2161 60.0183C66.8394 56.9561 65.3968 54.1411 63.1585 52.1008C60.9202 50.0605 58.0398 48.9349 55.0571 48.9349C52.0744 48.9349 49.194 50.0605 46.9557 52.1008C44.7174 54.1411 43.2743 56.9561 42.8977 60.0183ZM55.056 51.4668C57.4423 51.4698 59.7461 52.3715 61.537 54.0036C63.328 55.6357 64.4837 57.8867 64.7884 60.3361C64.8081 60.4979 64.7943 60.6622 64.748 60.8181C64.7016 60.9739 64.6238 61.1178 64.5196 61.2402C64.4154 61.3625 64.2873 61.4605 64.1437 61.5277C64.0001 61.5949 63.8444 61.6297 63.6868 61.6299H46.4264C46.2687 61.6298 46.1129 61.595 45.9692 61.5279C45.8255 61.4607 45.6973 61.3627 45.593 61.2403C45.4888 61.1179 45.4109 60.9739 45.3645 60.818C45.3181 60.662 45.3044 60.4977 45.3241 60.3358C45.6289 57.8865 46.7846 55.6357 48.5754 54.0037C50.3662 52.3716 52.6698 51.4699 55.056 51.4668Z" fill="#161616"/>
</svg>
