<svg width="105" height="98" viewBox="0 0 105 98" fill="none" xmlns="http://www.w3.org/2000/svg">
<circle cx="35" cy="54.488" r="35" fill="#F9D337" fill-opacity="0.5"/>
<path d="M63.2053 44.9061H61.4184C61.2706 44.2988 61.0154 43.7178 60.666 43.1897H63.2053C63.9577 43.1897 64.5623 42.5956 64.5623 41.8694C64.5623 41.1432 63.9577 40.5491 63.2187 40.5491H52.8064C52.0675 40.5491 51.4629 41.1432 51.4629 41.8694C51.4629 42.5956 52.0675 43.1897 52.8064 43.1897H55.789C56.9848 43.1633 58.0999 43.8367 58.6104 44.9061H52.8064C52.0675 44.9061 51.4629 45.5003 51.4629 46.2265C51.4629 46.9526 52.0675 47.5468 52.8064 47.5468H58.6104C58.4492 47.8504 58.2343 48.1277 58.0059 48.3786C57.4147 48.9463 56.622 49.2632 55.8025 49.2632H52.8199C52.0675 49.2764 51.4629 49.8837 51.4763 50.6231C51.4763 50.9796 51.6375 51.3229 51.8928 51.5738L59.336 58.5054C59.8599 59.0204 60.7198 59.0072 61.2303 58.4922C61.7543 57.9773 61.7409 57.1323 61.2169 56.6306L61.1766 56.591L56.1652 51.9302C57.5759 51.8378 58.8926 51.2569 59.8868 50.2666C60.6526 49.5273 61.19 48.5766 61.4319 47.5468H63.2053C63.9442 47.5468 64.5488 46.9526 64.5488 46.2265C64.5488 45.5003 63.9442 44.9061 63.2053 44.9061Z" fill="#121212"/>
<path d="M86.7582 51.1653L80.5779 42.306C80.3227 41.9495 79.9196 41.7382 79.4763 41.7382C79.0329 41.7382 78.6164 41.9495 78.3746 42.306L72.1809 51.1389C71.7644 51.7463 71.9122 52.5649 72.5302 52.9874C72.7586 53.1326 73.0139 53.225 73.2826 53.225H77.7834C76.9236 57.7141 74.4649 61.7015 70.7433 64.6722C67.0218 67.6429 62.3732 69.3462 57.953 69.3462C51.9877 69.3462 45.6597 66.1906 41.8307 61.3054C41.3873 60.7113 40.5543 60.5924 39.9497 61.0281C39.3451 61.4638 39.2242 62.2824 39.6676 62.8766C39.681 62.8898 39.6945 62.903 39.7079 62.9294C44.1012 68.5276 51.0876 72 57.953 72C62.9778 72 68.2578 70.0855 72.4362 66.7319C76.7758 63.2595 79.6106 58.5195 80.4973 53.2382H85.6565C86.4088 53.2382 87 52.6309 87 51.9047C87 51.6406 86.9194 51.3766 86.7582 51.1653ZM76.3458 35.1234C76.3324 35.1102 76.319 35.097 76.3055 35.0706C71.9122 29.4724 64.9259 26 58.0605 26C53.0357 26 47.7556 27.9145 43.5773 31.2681C39.2242 34.7537 36.3894 39.4937 35.5027 44.775H30.3435C29.5912 44.775 29 45.3823 29 46.1085C29 46.3726 29.0806 46.6366 29.2418 46.8479L35.4489 55.6808C35.7042 56.0373 36.1073 56.2486 36.5506 56.2486C36.994 56.2486 37.4105 56.0373 37.6523 55.6808L43.846 46.8479C44.1281 46.4518 44.155 45.9237 43.9266 45.4879C43.6982 45.0522 43.2414 44.775 42.7308 44.775H38.23C39.0899 40.2859 41.5485 36.2985 45.2701 33.3278C48.9917 30.3571 53.6403 28.6538 58.0605 28.6538C64.0257 28.6538 70.3537 31.8094 74.1828 36.6946C74.6261 37.2887 75.4591 37.4076 76.0637 36.9719C76.6683 36.5362 76.7892 35.7176 76.3458 35.1234Z" fill="#121212"/>
</svg>
