<svg width="87" height="88" viewBox="0 0 87 88" fill="none" xmlns="http://www.w3.org/2000/svg">
<path d="M75 42.1538C75 62.0149 65.6907 76 45.8766 76C26.0625 76 10 65.8225 10 45.9615C10 26.1005 26.0625 10 45.8766 10C65.6907 10 75 22.2928 75 42.1538Z" fill="white"/>
<path d="M16.29 28.892C21.0683 20.6158 27.0355 14.773 33.789 12.1601C40.5128 9.55858 48.1254 10.1156 56.3256 14.85C64.5906 19.6218 70.7899 26.0258 73.7485 33.2341C76.6962 40.4157 76.4552 48.4575 71.7383 56.6275C62.2841 73.0026 41.3454 78.6131 24.9703 69.159C16.7428 64.4088 12.26 58.433 10.9562 51.6729C9.64774 44.889 11.5118 37.1682 16.29 28.892Z" stroke="#F9D337" stroke-width="1.5"/>
<g clip-path="url(#clip0_1_22550)">
<path d="M53.9143 44.4869C54.049 43.5002 54.049 42.4998 53.9143 41.5131L57.0306 38.9462C57.1589 38.8404 57.2457 38.6925 57.2755 38.5289C57.3054 38.3652 57.2764 38.1962 57.1937 38.0519L54.3812 33.1825C54.2975 33.0385 54.1656 32.9287 54.0088 32.8724C53.8521 32.8162 53.6805 32.8171 53.5243 32.875L49.7462 34.2906C48.959 33.6797 48.0923 33.1788 47.1699 32.8019L46.5062 28.8213C46.4787 28.6572 46.3939 28.5081 46.2669 28.4007C46.1398 28.2932 45.9788 28.2343 45.8124 28.2344H40.1874C40.0211 28.2343 39.8601 28.2932 39.733 28.4007C39.606 28.5081 39.5212 28.6572 39.4937 28.8213L38.8299 32.8019C37.9112 33.1769 37.0449 33.6775 36.2518 34.2888L32.4756 32.875C32.3194 32.8171 32.1478 32.8162 31.991 32.8724C31.8343 32.9287 31.7024 33.0385 31.6187 33.1825L28.8062 38.05C28.7235 38.1944 28.6945 38.3633 28.7243 38.527C28.7542 38.6907 28.841 38.8385 28.9693 38.9444L32.0856 41.5112C31.9509 42.4979 31.9509 43.4983 32.0856 44.485L28.9693 47.0537C28.841 47.1596 28.7542 47.3075 28.7243 47.4711C28.6945 47.6348 28.7235 47.8038 28.8062 47.9481L31.6187 52.8175C31.7027 52.9612 31.8346 53.0708 31.9912 53.127C32.1479 53.1832 32.3194 53.1825 32.4756 53.125L36.2537 51.7094C37.0431 52.3225 37.9074 52.8213 38.8299 53.1981L39.4937 57.1788C39.5499 57.5163 39.8424 57.7656 40.1874 57.7656H45.8124C46.1574 57.7656 46.4499 57.5181 46.5062 57.1788L47.1699 53.1981C48.0887 52.8231 48.9549 52.3225 49.7481 51.7113L53.5243 53.125C53.6805 53.1829 53.8521 53.1838 54.0088 53.1276C54.1656 53.0713 54.2975 52.9615 54.3812 52.8175L57.1937 47.9481C57.2764 47.8038 57.3054 47.6348 57.2755 47.4711C57.2457 47.3075 57.1589 47.1596 57.0306 47.0537L53.9143 44.4869ZM53.4606 51.5988L49.8643 50.2506C49.7474 50.2078 49.6213 50.1963 49.4986 50.2174C49.3759 50.2384 49.2609 50.2913 49.1649 50.3706C48.3081 51.0869 47.3462 51.6456 46.2999 52.0281C46.1833 52.0708 46.0801 52.1436 46.0007 52.2391C45.9213 52.3346 45.8687 52.4494 45.8481 52.5719L45.2181 56.3594H40.7818L40.1518 52.5719C40.1314 52.4496 40.079 52.3349 40 52.2394C39.921 52.144 39.8181 52.0711 39.7018 52.0281C38.6566 51.6451 37.6854 51.0844 36.8312 50.3706C36.7356 50.2914 36.6207 50.2388 36.4983 50.218C36.3758 50.1973 36.2501 50.2092 36.1337 50.2525L32.5393 51.5988L30.3212 47.7606L33.2874 45.3194C33.3833 45.2406 33.4565 45.1379 33.4996 45.0216C33.5428 44.9053 33.5543 44.7797 33.5331 44.6575C33.3473 43.5603 33.3473 42.4397 33.5331 41.3425C33.5545 41.2205 33.5433 41.0949 33.5005 40.9787C33.4576 40.8624 33.3848 40.7596 33.2893 40.6806L30.3193 38.2375L32.5374 34.3994L36.1337 35.7475C36.2504 35.7915 36.3767 35.8036 36.4997 35.7825C36.6226 35.7614 36.7377 35.7079 36.8331 35.6275C37.6899 34.9112 38.6518 34.3525 39.6981 33.97C39.8147 33.9273 39.9179 33.8546 39.9973 33.7591C40.0767 33.6635 40.1293 33.5487 40.1499 33.4262L40.7799 29.6388H45.2162L45.8462 33.4262C45.8666 33.5485 45.919 33.6632 45.998 33.7587C46.077 33.8542 46.1799 33.9271 46.2962 33.97C47.3199 34.345 48.2649 34.885 49.1087 35.5825L49.1574 35.62C49.3449 35.7813 49.6093 35.8375 49.8643 35.7456L53.4587 34.3994L55.6768 38.2375L52.7124 40.6788C52.6166 40.7575 52.5434 40.8602 52.5003 40.9765C52.4571 41.0928 52.4456 41.2184 52.4668 41.3406C52.6526 42.4378 52.6526 43.5584 52.4668 44.6556C52.4454 44.7776 52.4566 44.9032 52.4994 45.0194C52.5422 45.1357 52.6151 45.2385 52.7106 45.3175L55.6768 47.7588L53.4606 51.5988Z" fill="#121212"/>
<path d="M42.734 39.04C42.689 38.8972 42.5996 38.7724 42.4789 38.6837C42.3583 38.595 42.2125 38.5471 42.0627 38.5469H41.1252C40.9755 38.5471 40.8297 38.595 40.709 38.6837C40.5883 38.7724 40.499 38.8972 40.454 39.04L38.1102 46.54C38.0545 46.718 38.0718 46.9109 38.1583 47.0762C38.2448 47.2414 38.3934 47.3656 38.5715 47.4212C38.7495 47.4769 38.9423 47.4596 39.1076 47.3731C39.2729 47.2866 39.397 47.138 39.4527 46.96L39.884 45.5781H43.3021L43.7333 46.96C43.7954 47.1303 43.9207 47.2701 44.0832 47.3505C44.2457 47.4308 44.4329 47.4455 44.6059 47.3914C44.7789 47.3374 44.9245 47.2188 45.0123 47.0602C45.1002 46.9017 45.1236 46.7154 45.0777 46.54L42.734 39.04ZM40.3246 44.1719L41.594 40.1069L42.8633 44.1719H40.3246ZM47.219 38.5469C47.0325 38.5469 46.8536 38.621 46.7218 38.7528C46.5899 38.8847 46.5158 39.0635 46.5158 39.25V46.75C46.5158 46.9365 46.5899 47.1153 46.7218 47.2472C46.8536 47.379 47.0325 47.4531 47.219 47.4531C47.4054 47.4531 47.5843 47.379 47.7161 47.2472C47.848 47.1153 47.9221 46.9365 47.9221 46.75V39.25C47.9221 39.0635 47.848 38.8847 47.7161 38.7528C47.5843 38.621 47.4054 38.5469 47.219 38.5469Z" fill="#121212"/>
</g>
<defs>
<clipPath id="clip0_1_22550">
<rect width="30" height="30" fill="white" transform="translate(28 28)"/>
</clipPath>
</defs>
</svg>
