<svg width="87" height="88" viewBox="0 0 87 88" fill="none" xmlns="http://www.w3.org/2000/svg">
<path d="M74.998 42.8055C74.998 62.6665 65.6888 76.6516 45.8747 76.6516C26.0606 76.6516 9.99805 66.4742 9.99805 46.6132C9.99805 26.7521 26.0606 10.6516 45.8747 10.6516C65.6888 10.6516 74.998 22.9444 74.998 42.8055Z" fill="#E9E9E9"/>
<path d="M16.2881 29.5436C21.0663 21.2674 27.0335 15.4247 33.787 12.8117C40.5108 10.2102 48.1235 10.7672 56.3236 15.5016C64.5887 20.2734 70.788 26.6775 73.7466 33.8857C76.6942 41.0674 76.4533 49.1091 71.7363 57.2791C62.2822 73.6542 41.3434 79.2647 24.9683 69.8106C16.7408 65.0604 12.258 59.0846 10.9542 52.3245C9.64579 45.5406 11.5098 37.8198 16.2881 29.5436Z" stroke="#F9D337" stroke-width="1.5"/>
<path d="M33.082 39.4015C33.082 34.7268 33.082 32.3894 34.5343 30.9371C35.9866 29.4849 38.3239 29.4849 42.9987 29.4849C47.6735 29.4849 50.0108 29.4849 51.4631 30.9371C52.9154 32.3894 52.9154 34.7268 52.9154 39.4015V47.9015C52.9154 52.5763 52.9154 54.9137 51.4631 56.3659C50.0108 57.8182 47.6735 57.8182 42.9987 57.8182C38.3239 57.8182 35.9866 57.8182 34.5343 56.3659C33.082 54.9137 33.082 52.5763 33.082 47.9015V39.4015Z" stroke="#161616" stroke-width="1.5" stroke-linecap="round"/>
<path d="M41.582 53.5681H44.4154" stroke="#161616" stroke-width="1.5" stroke-linecap="round" stroke-linejoin="round"/>
<path d="M38.748 29.4849L38.8741 30.2414C39.1474 31.8809 39.284 32.7006 39.8462 33.1994C40.4327 33.7198 41.2642 33.7349 42.998 33.7349C44.7318 33.7349 45.5634 33.7198 46.1499 33.1994C46.7121 32.7006 46.8487 31.8809 47.122 30.2414L47.248 29.4849" stroke="#161616" stroke-width="1.5" stroke-linejoin="round"/>
</svg>
