<svg width="87" height="88" viewBox="0 0 87 88" fill="none" xmlns="http://www.w3.org/2000/svg">
<path d="M74.998 41.8051C74.998 61.6661 65.6888 75.6512 45.8747 75.6512C26.0606 75.6512 9.99805 65.4738 9.99805 45.6128C9.99805 25.7518 26.0606 9.65125 45.8747 9.65125C65.6888 9.65125 74.998 21.9441 74.998 41.8051Z" fill="#E9E9E9"/>
<path d="M16.2881 28.8919C21.0663 20.6157 27.0335 14.7729 33.787 12.1599C40.5108 9.55846 48.1235 10.1155 56.3236 14.8499C64.5887 19.6217 70.788 26.0257 73.7466 33.234C76.6942 40.4156 76.4533 48.4574 71.7363 56.6274C62.2822 73.0025 41.3434 78.613 24.9683 69.1588C16.7408 64.4087 12.258 58.4328 10.9542 51.6728C9.64579 44.8888 11.5098 37.168 16.2881 28.8919Z" stroke="#F9D337" stroke-width="1.5"/>
<path d="M35.3477 42.5421C42.5339 29.1486 51.4821 28.9941 55.0579 30.5911C56.6548 34.1669 56.5004 43.1151 43.1068 50.3013C42.9679 49.5028 42.1955 47.4111 40.2167 45.4323C38.2378 43.4535 36.1461 42.681 35.3477 42.5421Z" stroke="#161616" stroke-width="1.5" stroke-linecap="round" stroke-linejoin="round"/>
<path d="M44.9102 49.6638C47.5147 50.9388 47.7928 53.225 48.1536 55.4012C48.1536 55.4012 53.6087 51.3687 50.1193 45.8387" stroke="#161616" stroke-width="1.5" stroke-linecap="round" stroke-linejoin="round"/>
<path d="M35.9855 40.8477C34.7105 38.2432 32.4243 37.9651 30.248 37.6043C30.248 37.6043 34.2806 32.1492 39.8105 35.6386" stroke="#161616" stroke-width="1.5" stroke-linecap="round" stroke-linejoin="round"/>
<path d="M34.5237 46.7756C33.7986 47.5007 32.5659 49.6035 33.436 52.2138C36.0464 53.0839 38.1492 51.8513 38.8743 51.1262" stroke="#161616" stroke-width="1.5" stroke-linecap="round" stroke-linejoin="round"/>
<path d="M50.5072 37.6222C50.5072 36.2529 49.3972 35.143 48.028 35.143C46.6588 35.143 45.5488 36.2529 45.5488 37.6222C45.5488 38.9914 46.6588 40.1013 48.028 40.1013C49.3972 40.1013 50.5072 38.9914 50.5072 37.6222Z" stroke="#161616" stroke-width="1.5"/>
</svg>
