<svg width="87" height="88" viewBox="0 0 87 88" fill="none" xmlns="http://www.w3.org/2000/svg">
<path d="M74.998 42.8052C74.998 62.6662 65.6888 76.6514 45.8747 76.6514C26.0606 76.6514 9.99805 66.4739 9.99805 46.6129C9.99805 26.7519 26.0606 10.6514 45.8747 10.6514C65.6888 10.6514 74.998 22.9442 74.998 42.8052Z" fill="#E9E9E9"/>
<circle cx="49.6733" cy="35.9756" r="5.67331" stroke="#161616" stroke-width="1.5"/>
<circle cx="34.3217" cy="35.9756" r="5.67331" stroke="#161616" stroke-width="1.5"/>
<circle cx="49.6733" cy="51.3269" r="5.67331" stroke="#161616" stroke-width="1.5"/>
<circle cx="34.3217" cy="51.3269" r="5.67331" stroke="#161616" stroke-width="1.5"/>
<path d="M16.2881 29.5434C21.0663 21.2672 27.0335 15.4244 33.787 12.8114C40.5108 10.21 48.1235 10.767 56.3236 15.5014C64.5887 20.2732 70.788 26.6772 73.7466 33.8855C76.6942 41.0671 76.4533 49.1089 71.7363 57.2789C62.2822 73.654 41.3434 79.2645 24.9683 69.8103C16.7408 65.0602 12.258 59.0843 10.9542 52.3243C9.64579 45.5403 11.5098 37.8195 16.2881 29.5434Z" stroke="#F9D337" stroke-width="1.5"/>
</svg>
