<svg width="1920" height="174" viewBox="0 0 1920 174" fill="none" xmlns="http://www.w3.org/2000/svg">
<path d="M0 63.262C67.9831 90.1142 242.31 135.763 395.751 103.54C587.553 63.262 575.405 44.0818 719.256 87.5569C863.108 131.032 950.058 122.081 1063.22 87.5569C1176.38 53.0324 1226.89 15.9511 1446.19 103.54C1665.48 191.13 1824.67 28.0983 1920.57 103.54" stroke="#F9D337" stroke-width="2" stroke-dasharray="8 8"/>
<circle cx="297.147" cy="102.295" r="51.1471" fill="#F9D337"/>
<circle cx="297.147" cy="102.294" r="38.3603" fill="#F9F7F6"/>
<path d="M290.632 112.34C288.728 112.34 287.119 111.818 285.804 110.776C284.49 109.71 283.492 108.26 282.812 106.424C282.155 104.565 281.826 102.457 281.826 100.1C281.826 97.7195 282.155 95.6115 282.812 93.7755C283.492 91.9168 284.49 90.4662 285.804 89.4235C287.119 88.3808 288.728 87.8595 290.632 87.8595C292.536 87.8595 294.134 88.3808 295.426 89.4235C296.741 90.4662 297.738 91.9168 298.418 93.7755C299.098 95.6115 299.438 97.7195 299.438 100.1C299.438 102.457 299.098 104.565 298.418 106.424C297.738 108.26 296.741 109.71 295.426 110.776C294.134 111.818 292.536 112.34 290.632 112.34ZM290.632 108.906C291.698 108.906 292.604 108.566 293.352 107.886C294.123 107.206 294.712 106.208 295.12 104.894C295.551 103.579 295.766 101.981 295.766 100.1C295.766 98.1955 295.551 96.5862 295.12 95.2715C294.712 93.9568 294.123 92.9595 293.352 92.2795C292.604 91.5995 291.698 91.2595 290.632 91.2595C289.567 91.2595 288.649 91.5995 287.878 92.2795C287.108 92.9595 286.518 93.9568 286.11 95.2715C285.702 96.5862 285.498 98.1955 285.498 100.1C285.498 101.981 285.702 103.579 286.11 104.894C286.518 106.208 287.108 107.206 287.878 107.886C288.649 108.566 289.567 108.906 290.632 108.906ZM308.938 112C308.417 112 307.986 111.841 307.646 111.524C307.306 111.184 307.136 110.764 307.136 110.266V92.0415L307.578 92.6535L304.416 94.8635C304.144 95.0902 303.815 95.2035 303.43 95.2035C302.977 95.2035 302.569 95.0335 302.206 94.6935C301.866 94.3308 301.696 93.9115 301.696 93.4355C301.696 92.8462 301.991 92.3588 302.58 91.9735L307.748 88.5395C307.952 88.4035 308.167 88.3128 308.394 88.2675C308.643 88.2222 308.87 88.1995 309.074 88.1995C309.595 88.1995 310.015 88.3695 310.332 88.7095C310.649 89.0268 310.808 89.4348 310.808 89.9335V110.266C310.808 110.764 310.627 111.184 310.264 111.524C309.924 111.841 309.482 112 308.938 112Z" fill="#F9D337"/>
<circle cx="630.147" cy="63.9337" r="51.1471" fill="#F9D337"/>
<circle cx="630.147" cy="63.9338" r="38.3603" fill="#F9F7F6"/>
<path d="M620.545 73.979C618.641 73.979 617.031 73.4577 615.717 72.415C614.402 71.3497 613.405 69.899 612.725 68.063C612.067 66.2044 611.739 64.0964 611.739 61.739C611.739 59.359 612.067 57.251 612.725 55.415C613.405 53.5564 614.402 52.1057 615.717 51.063C617.031 50.0204 618.641 49.499 620.545 49.499C622.449 49.499 624.047 50.0204 625.339 51.063C626.653 52.1057 627.651 53.5564 628.331 55.415C629.011 57.251 629.351 59.359 629.351 61.739C629.351 64.0964 629.011 66.2044 628.331 68.063C627.651 69.899 626.653 71.3497 625.339 72.415C624.047 73.4577 622.449 73.979 620.545 73.979ZM620.545 70.545C621.61 70.545 622.517 70.205 623.265 69.525C624.035 68.845 624.625 67.8477 625.033 66.533C625.463 65.2184 625.679 63.6204 625.679 61.739C625.679 59.835 625.463 58.2257 625.033 56.911C624.625 55.5964 624.035 54.599 623.265 53.919C622.517 53.239 621.61 52.899 620.545 52.899C619.479 52.899 618.561 53.239 617.791 53.919C617.02 54.599 616.431 55.5964 616.023 56.911C615.615 58.2257 615.411 59.835 615.411 61.739C615.411 63.6204 615.615 65.2184 616.023 66.533C616.431 67.8477 617.02 68.845 617.791 69.525C618.561 70.205 619.479 70.545 620.545 70.545ZM646.636 70.477C647.089 70.477 647.463 70.6357 647.758 70.953C648.075 71.2477 648.234 71.6217 648.234 72.075C648.234 72.5284 648.075 72.9024 647.758 73.197C647.463 73.4917 647.089 73.639 646.636 73.639H634.702C634.203 73.639 633.807 73.4917 633.512 73.197C633.217 72.9024 633.07 72.5057 633.07 72.007C633.07 71.5537 633.229 71.1457 633.546 70.783L641.128 62.589C642.103 61.5464 642.851 60.515 643.372 59.495C643.916 58.475 644.188 57.5797 644.188 56.809C644.188 55.5624 643.814 54.5537 643.066 53.783C642.318 53.0124 641.332 52.627 640.108 52.627C639.587 52.627 639.054 52.7517 638.51 53.001C637.989 53.2277 637.49 53.545 637.014 53.953C636.561 54.3384 636.164 54.7917 635.824 55.313C635.597 55.6304 635.371 55.8344 635.144 55.925C634.917 56.0157 634.702 56.061 634.498 56.061C634.067 56.061 633.671 55.9137 633.308 55.619C632.968 55.3017 632.798 54.939 632.798 54.531C632.798 54.2137 632.9 53.9077 633.104 53.613C633.308 53.3184 633.569 53.0124 633.886 52.695C634.385 52.083 634.985 51.539 635.688 51.063C636.413 50.5644 637.173 50.179 637.966 49.907C638.759 49.635 639.541 49.499 640.312 49.499C641.808 49.499 643.1 49.7937 644.188 50.383C645.299 50.9724 646.149 51.7997 646.738 52.865C647.35 53.9304 647.656 55.1884 647.656 56.639C647.656 57.863 647.282 59.223 646.534 60.719C645.809 62.1924 644.789 63.643 643.474 65.071L638.204 70.817L637.83 70.477H646.636Z" fill="#F9D337"/>
<circle cx="963.147" cy="102.295" r="51.1471" fill="#F9D337"/>
<circle cx="963.147" cy="102.294" r="38.3603" fill="#F9F7F6"/>
<path d="M953.437 112.34C951.533 112.34 949.924 111.818 948.609 110.776C947.294 109.71 946.297 108.26 945.617 106.424C944.96 104.565 944.631 102.457 944.631 100.1C944.631 97.7195 944.96 95.6115 945.617 93.7755C946.297 91.9168 947.294 90.4662 948.609 89.4235C949.924 88.3808 951.533 87.8595 953.437 87.8595C955.341 87.8595 956.939 88.3808 958.231 89.4235C959.546 90.4662 960.543 91.9168 961.223 93.7755C961.903 95.6115 962.243 97.7195 962.243 100.1C962.243 102.457 961.903 104.565 961.223 106.424C960.543 108.26 959.546 109.71 958.231 110.776C956.939 111.818 955.341 112.34 953.437 112.34ZM953.437 108.906C954.502 108.906 955.409 108.566 956.157 107.886C956.928 107.206 957.517 106.208 957.925 104.894C958.356 103.579 958.571 101.981 958.571 100.1C958.571 98.1955 958.356 96.5862 957.925 95.2715C957.517 93.9568 956.928 92.9595 956.157 92.2795C955.409 91.5995 954.502 91.2595 953.437 91.2595C952.372 91.2595 951.454 91.5995 950.683 92.2795C949.912 92.9595 949.323 93.9568 948.915 95.2715C948.507 96.5862 948.303 98.1955 948.303 100.1C948.303 101.981 948.507 103.579 948.915 104.894C949.323 106.208 949.912 107.206 950.683 107.886C951.454 108.566 952.372 108.906 953.437 108.906ZM967.323 107.648C967.504 107.648 967.697 107.682 967.901 107.75C968.105 107.795 968.331 107.908 968.581 108.09C968.989 108.452 969.476 108.758 970.043 109.008C970.632 109.234 971.301 109.348 972.049 109.348C972.887 109.348 973.669 109.155 974.395 108.77C975.12 108.362 975.709 107.795 976.163 107.07C976.616 106.344 976.843 105.483 976.843 104.486C976.843 103.466 976.627 102.638 976.197 102.004C975.766 101.346 975.211 100.859 974.531 100.542C973.851 100.202 973.137 100.032 972.389 100.032C971.958 100.032 971.595 100.077 971.301 100.168C971.006 100.236 970.723 100.315 970.451 100.406C970.179 100.474 969.884 100.508 969.567 100.508C969.136 100.508 968.796 100.36 968.547 100.066C968.297 99.7482 968.173 99.3742 968.173 98.9435C968.173 98.6715 968.229 98.4335 968.343 98.2295C968.456 98.0255 968.615 97.7988 968.819 97.5495L975.109 90.8175L975.857 91.4975H966.847C966.393 91.4975 966.008 91.3502 965.691 91.0555C965.396 90.7382 965.249 90.3528 965.249 89.8995C965.249 89.4688 965.396 89.1062 965.691 88.8115C966.008 88.5168 966.393 88.3695 966.847 88.3695H977.591C978.18 88.3695 978.611 88.5395 978.883 88.8795C979.177 89.2195 979.325 89.6162 979.325 90.0695C979.325 90.3188 979.257 90.5568 979.121 90.7835C979.007 91.0102 978.86 91.2255 978.679 91.4295L972.355 98.2295L971.505 97.3115C971.686 97.2208 971.992 97.1302 972.423 97.0395C972.853 96.9488 973.205 96.9035 973.477 96.9035C974.769 96.9035 975.925 97.2322 976.945 97.8895C977.987 98.5468 978.792 99.4308 979.359 100.542C979.948 101.63 980.243 102.865 980.243 104.248C980.243 105.902 979.869 107.342 979.121 108.566C978.373 109.767 977.33 110.696 975.993 111.354C974.678 112.011 973.159 112.34 971.437 112.34C970.575 112.34 969.714 112.226 968.853 112C968.014 111.75 967.289 111.399 966.677 110.946C966.291 110.719 966.031 110.481 965.895 110.232C965.759 109.96 965.691 109.699 965.691 109.45C965.691 109.019 965.838 108.611 966.133 108.226C966.45 107.84 966.847 107.648 967.323 107.648Z" fill="#F9D337"/>
<circle cx="1293.15" cy="51.1471" r="51.1471" fill="#F9D337"/>
<circle cx="1293.15" cy="51.147" r="38.3603" fill="#F9F7F6"/>
<path d="M1283.48 61.1922C1281.57 61.1922 1279.97 60.6708 1278.65 59.6282C1277.34 58.5628 1276.34 57.1122 1275.66 55.2762C1275 53.4175 1274.67 51.3095 1274.67 48.9522C1274.67 46.5722 1275 44.4642 1275.66 42.6282C1276.34 40.7695 1277.34 39.3188 1278.65 38.2762C1279.97 37.2335 1281.57 36.7122 1283.48 36.7122C1285.38 36.7122 1286.98 37.2335 1288.27 38.2762C1289.59 39.3188 1290.58 40.7695 1291.26 42.6282C1291.94 44.4642 1292.28 46.5722 1292.28 48.9522C1292.28 51.3095 1291.94 53.4175 1291.26 55.2762C1290.58 57.1122 1289.59 58.5628 1288.27 59.6282C1286.98 60.6708 1285.38 61.1922 1283.48 61.1922ZM1283.48 57.7582C1284.54 57.7582 1285.45 57.4182 1286.2 56.7382C1286.97 56.0582 1287.56 55.0608 1287.97 53.7462C1288.4 52.4315 1288.61 50.8335 1288.61 48.9522C1288.61 47.0482 1288.4 45.4388 1287.97 44.1242C1287.56 42.8095 1286.97 41.8122 1286.2 41.1322C1285.45 40.4522 1284.54 40.1122 1283.48 40.1122C1282.41 40.1122 1281.5 40.4522 1280.72 41.1322C1279.95 41.8122 1279.36 42.8095 1278.96 44.1242C1278.55 45.4388 1278.34 47.0482 1278.34 48.9522C1278.34 50.8335 1278.55 52.4315 1278.96 53.7462C1279.36 55.0608 1279.95 56.0582 1280.72 56.7382C1281.5 57.4182 1282.41 57.7582 1283.48 57.7582ZM1306.82 60.8522C1306.34 60.8522 1305.94 60.6935 1305.63 60.3762C1305.31 60.0362 1305.15 59.6168 1305.15 59.1182V41.8122L1305.76 42.0162L1298.42 51.4002L1298.25 50.9582H1310.62C1311.08 50.9582 1311.45 51.1168 1311.75 51.4342C1312.06 51.7288 1312.22 52.1028 1312.22 52.5562C1312.22 52.9868 1312.06 53.3495 1311.75 53.6442C1311.45 53.9388 1311.08 54.0862 1310.62 54.0862H1295.9C1295.49 54.0862 1295.11 53.9275 1294.75 53.6102C1294.38 53.2702 1294.2 52.8735 1294.2 52.4202C1294.2 51.9895 1294.35 51.6042 1294.64 51.2642L1305.46 37.7322C1305.61 37.5055 1305.82 37.3355 1306.07 37.2222C1306.32 37.1088 1306.58 37.0522 1306.85 37.0522C1307.35 37.0522 1307.76 37.2222 1308.07 37.5622C1308.39 37.8795 1308.55 38.2875 1308.55 38.7862V59.1182C1308.55 59.6168 1308.38 60.0362 1308.04 60.3762C1307.7 60.6935 1307.29 60.8522 1306.82 60.8522Z" fill="#F9D337"/>
<circle cx="1623.15" cy="122.753" r="51.1471" fill="#F9D337"/>
<circle cx="1623.15" cy="122.753" r="38.3603" fill="#F9F7F6"/>
<path d="M1613.51 132.798C1611.61 132.798 1610 132.277 1608.68 131.234C1607.37 130.169 1606.37 128.718 1605.69 126.882C1605.03 125.024 1604.71 122.916 1604.71 120.558C1604.71 118.178 1605.03 116.07 1605.69 114.234C1606.37 112.376 1607.37 110.925 1608.68 109.882C1610 108.84 1611.61 108.318 1613.51 108.318C1615.42 108.318 1617.01 108.84 1618.31 109.882C1619.62 110.925 1620.62 112.376 1621.3 114.234C1621.98 116.07 1622.32 118.178 1622.32 120.558C1622.32 122.916 1621.98 125.024 1621.3 126.882C1620.62 128.718 1619.62 130.169 1618.31 131.234C1617.01 132.277 1615.42 132.798 1613.51 132.798ZM1613.51 129.364C1614.58 129.364 1615.48 129.024 1616.23 128.344C1617 127.664 1617.59 126.667 1618 125.352C1618.43 124.038 1618.65 122.44 1618.65 120.558C1618.65 118.654 1618.43 117.045 1618 115.73C1617.59 114.416 1617 113.418 1616.23 112.738C1615.48 112.058 1614.58 111.718 1613.51 111.718C1612.45 111.718 1611.53 112.058 1610.76 112.738C1609.99 113.418 1609.4 114.416 1608.99 115.73C1608.58 117.045 1608.38 118.654 1608.38 120.558C1608.38 122.44 1608.58 124.038 1608.99 125.352C1609.4 126.667 1609.99 127.664 1610.76 128.344C1611.53 129.024 1612.45 129.364 1613.51 129.364ZM1631.99 132.696C1631.1 132.696 1630.18 132.56 1629.23 132.288C1628.3 132.016 1627.51 131.608 1626.85 131.064C1626.6 130.86 1626.41 130.6 1626.27 130.282C1626.14 129.965 1626.07 129.659 1626.07 129.364C1626.07 129.047 1626.21 128.741 1626.48 128.446C1626.77 128.129 1627.17 127.97 1627.67 127.97C1628.03 127.97 1628.45 128.152 1628.93 128.514C1629.38 128.809 1629.86 129.058 1630.35 129.262C1630.88 129.466 1631.41 129.568 1631.95 129.568C1633.13 129.568 1634.15 129.353 1635.01 128.922C1635.87 128.492 1636.53 127.891 1636.98 127.12C1637.46 126.327 1637.7 125.409 1637.7 124.366C1637.7 123.392 1637.48 122.564 1637.05 121.884C1636.62 121.182 1636.03 120.638 1635.28 120.252C1634.56 119.867 1633.74 119.674 1632.84 119.674C1632.09 119.674 1631.43 119.799 1630.86 120.048C1630.3 120.275 1629.79 120.513 1629.33 120.762C1628.88 120.989 1628.46 121.102 1628.08 121.102C1627.49 121.102 1627.05 120.978 1626.75 120.728C1626.46 120.456 1626.26 120.139 1626.17 119.776C1626.1 119.391 1626.09 119.04 1626.14 118.722L1627.33 110.188C1627.4 109.803 1627.58 109.486 1627.87 109.236C1628.19 108.964 1628.58 108.828 1629.03 108.828H1638.99C1639.44 108.828 1639.82 108.987 1640.11 109.304C1640.43 109.599 1640.59 109.973 1640.59 110.426C1640.59 110.88 1640.43 111.254 1640.11 111.548C1639.82 111.843 1639.44 111.99 1638.99 111.99H1629.88L1630.25 111.684L1629.16 118.994L1628.65 117.974C1628.86 117.748 1629.2 117.532 1629.67 117.328C1630.17 117.102 1630.73 116.92 1631.34 116.784C1631.98 116.626 1632.61 116.546 1633.24 116.546C1634.74 116.546 1636.08 116.886 1637.26 117.566C1638.46 118.224 1639.4 119.142 1640.08 120.32C1640.76 121.499 1641.1 122.836 1641.1 124.332C1641.1 126.01 1640.72 127.483 1639.98 128.752C1639.23 129.999 1638.17 130.974 1636.81 131.676C1635.45 132.356 1633.85 132.696 1631.99 132.696Z" fill="#F9D337"/>
</svg>
