<svg width="41" height="39" viewBox="0 0 41 39" fill="none" xmlns="http://www.w3.org/2000/svg">
<path d="M16.3135 7.2666C12.9443 7.90137 10.5762 10.3428 9.20898 14.5908C8.52539 16.6904 8.18359 18.7656 8.18359 20.8164C8.18359 21.0605 8.18359 21.2803 8.18359 21.4756C8.23242 21.6221 8.28125 21.9883 8.33008 22.5742H16.3135V38.541H0.712891V23.8193C0.712891 16.5928 2.15332 11.0264 5.03418 7.12012C7.91504 3.21387 11.6748 0.967773 16.3135 0.381836V7.2666ZM40.9961 7.2666C38.3105 7.70605 36.2598 9.21973 34.8438 11.8076C33.4766 14.3955 32.793 17.374 32.793 20.7432C32.793 21.0361 32.793 21.3291 32.793 21.6221C32.8418 21.915 32.915 22.2324 33.0127 22.5742H40.9961V38.541H25.3223V23.8193C25.3223 18.0088 26.543 12.833 28.9844 8.29199C31.4258 3.70215 35.4297 1.06543 40.9961 0.381836V7.2666Z" fill="#957738"/>
</svg>
