<svg width="184" height="131" viewBox="0 0 184 131" fill="none" xmlns="http://www.w3.org/2000/svg">
<path d="M154.457 104.897V104.73H37.3644C36.5693 104.729 35.9264 104.084 35.9251 103.288V30.0197C35.9264 29.2228 36.5693 28.5788 37.3644 28.577H154.457C155.252 28.5788 155.894 29.2228 155.896 30.0197V103.288C155.894 104.084 155.252 104.729 154.457 104.73V104.897V105.064C155.436 105.064 156.229 104.269 156.229 103.288V30.0197C156.229 29.0381 155.436 28.2429 154.457 28.2429H37.3644C36.3851 28.2429 35.5918 29.0381 35.5918 30.0197V103.288C35.5918 104.269 36.3851 105.064 37.3644 105.064H154.457V104.897Z" fill="#C2B293"/>
<path d="M161.101 99.1174H44.0083C43.1218 99.1174 42.4023 98.3968 42.4023 97.5077V24.2394C42.4023 23.3504 43.1218 22.6301 44.0083 22.6301H161.101C161.988 22.6301 162.707 23.3504 162.707 24.2394V97.5077C162.707 98.3968 161.988 99.1174 161.101 99.1174Z" fill="#F0EEEE"/>
<path d="M53.4472 27.2919C53.4472 28.1346 52.766 28.8174 51.9253 28.8174C51.0845 28.8174 50.4033 28.1346 50.4033 27.2919C50.4033 26.4495 51.0845 25.7663 51.9253 25.7663C52.766 25.7663 53.4472 26.4495 53.4472 27.2919Z" fill="#F9D337"/>
<path d="M58.5097 27.2919C58.5097 28.1346 57.8281 28.8174 56.9878 28.8174C56.1474 28.8174 55.4658 28.1346 55.4658 27.2919C55.4658 26.4495 56.1474 25.7663 56.9878 25.7663C57.8281 25.7663 58.5097 26.4495 58.5097 27.2919Z" fill="#957738"/>
<path d="M63.5723 27.2918H63.4579C63.4566 28.071 62.8278 28.7014 62.0503 28.7027C61.2729 28.7014 60.644 28.071 60.6427 27.2918C60.644 26.5125 61.2729 25.8821 62.0503 25.8808C62.8278 25.8821 63.4566 26.5125 63.4579 27.2918H63.5723H63.6866C63.6866 26.386 62.954 25.6516 62.0503 25.6516C61.1467 25.6516 60.4141 26.386 60.4141 27.2918C60.4141 28.198 61.1467 28.9319 62.0503 28.9319C62.954 28.9319 63.6866 28.198 63.6866 27.2918H63.5723Z" fill="#957738"/>
<path d="M95.0488 94.8943H51.7297C50.9096 94.8943 50.2451 94.2278 50.2451 93.4062V35.979C50.2451 35.1574 50.9096 34.491 51.7297 34.491H95.0488C95.8689 34.491 96.5338 35.1574 96.5338 35.979V93.4062C96.5338 94.2278 95.8689 94.8943 95.0488 94.8943Z" fill="white"/>
<path d="M56.8662 76.2916H89.9095V75.1428H56.8662V76.2916Z" fill="#FCE99B"/>
<path d="M56.8662 78.6469H89.9095V77.4977H56.8662V78.6469Z" fill="#FCE99B"/>
<path d="M56.8662 81.001H89.9095V79.8527H56.8662V81.001Z" fill="#FCE99B"/>
<path d="M56.8662 83.3561H89.9095V82.2078H56.8662V83.3561Z" fill="#FCE99B"/>
<path d="M56.8662 85.7112H89.9095V84.5629H56.8662V85.7112Z" fill="#FCE99B"/>
<path d="M56.8662 88.0663H89.9095V86.9172H56.8662V88.0663Z" fill="#FCE99B"/>
<path d="M83.7047 54.5449C83.7047 61.2527 78.2797 66.6906 71.5877 66.6906C64.8958 66.6906 59.4707 61.2527 59.4707 54.5449C59.4707 47.8372 64.8958 42.3993 71.5877 42.3993C78.2797 42.3993 83.7047 47.8372 83.7047 54.5449Z" fill="#F9D337"/>
<path d="M71.5859 42.3994V54.545L82.8828 48.1115L80.9695 42.3994H71.5859Z" fill="white"/>
<path d="M83.2547 46.3276C81.1699 42.6577 77.2351 40.1814 72.7207 40.1814V52.327L83.2547 46.3276Z" fill="#957738"/>
<path d="M63.8161 71.1025H60.8096V68.0889H63.8161V71.1025Z" fill="#C2B293"/>
<path d="M64.9141 71.1025H70.6011V69.4067H64.9141V71.1025Z" fill="#FCE99B"/>
<path d="M80.2423 71.1025H77.2354V68.0889H80.2423V71.1025Z" fill="#C2B293"/>
<path d="M81.3408 71.1025H87.0279V69.4067H81.3408V71.1025Z" fill="#FCE99B"/>
<path d="M155.313 67.9606H103.677C103.134 67.9606 102.693 67.5194 102.693 66.975V36.0143C102.693 35.47 103.134 35.0287 103.677 35.0287H155.313C155.856 35.0287 156.296 35.47 156.296 36.0143V66.975C156.296 67.5194 155.856 67.9606 155.313 67.9606Z" fill="#957738" fill-opacity="0.5"/>
<path d="M113.391 55.7264H140.292V55.4081H113.391V55.7264Z" fill="#DBEAF7"/>
<path d="M108.68 58.7606H140.292V58.4423H108.68V58.7606Z" fill="#DBEAF7"/>
<path d="M108.68 61.8751H115.069V61.5564H108.68V61.8751Z" fill="#DBEAF7"/>
<path d="M116.7 61.8751H140.292V61.5564H116.7V61.8751Z" fill="#DBEAF7"/>
<path d="M108.68 55.7264H111.539V55.4081H108.68V55.7264Z" fill="#DBEAF7"/>
<path d="M122.655 52.5352H140.292V52.217H122.655V52.5352Z" fill="#DBEAF7"/>
<path d="M108.68 52.5352H120.927V52.217H108.68V52.5352Z" fill="#DBEAF7"/>
<path d="M132.092 48.9299H140.293V48.6112H132.092V48.9299Z" fill="#DBEAF7"/>
<path d="M123.936 48.9299H130.94V48.6112H123.936V48.9299Z" fill="#DBEAF7"/>
<path d="M130.291 45.5551H140.292V45.2369H130.291V45.5551Z" fill="#DBEAF7"/>
<path d="M123.936 45.5551H128.923V45.2369H123.936V45.5551Z" fill="#DBEAF7"/>
<path d="M135.255 41.9163H140.292V41.5981H135.255V41.9163Z" fill="#DBEAF7"/>
<path d="M123.693 41.9163H133.533V41.5981H123.693V41.9163Z" fill="#DBEAF7"/>
<path d="M121.219 44.5143C121.219 47.9185 118.465 50.6777 115.069 50.6777C111.674 50.6777 108.921 47.9185 108.921 44.5143C108.921 41.1102 111.674 38.3514 115.069 38.3514C118.465 38.3514 121.219 41.1102 121.219 44.5143Z" fill="#F9D337"/>
<path d="M113.218 42.2355H113.06V46.7932C113.06 47.1643 113.363 47.4301 113.695 47.4305C113.802 47.431 113.912 47.4032 114.012 47.3446L117.95 45.0658C118.161 44.9446 118.269 44.7268 118.268 44.5144C118.269 44.3019 118.161 44.0842 117.95 43.9629L114.012 41.6841C113.912 41.6255 113.802 41.5982 113.695 41.5982C113.363 41.5986 113.06 41.8644 113.06 42.2355H113.218H113.378C113.378 42.1403 113.415 42.0641 113.474 42.0068C113.533 41.9499 113.614 41.9164 113.695 41.9164C113.748 41.9164 113.801 41.9296 113.854 41.96L117.792 44.2384C117.899 44.301 117.949 44.405 117.95 44.5144C117.949 44.6237 117.899 44.7277 117.792 44.7903L113.854 47.0691C113.801 47.0995 113.748 47.1123 113.695 47.1123C113.614 47.1123 113.533 47.0788 113.474 47.0219C113.415 46.9646 113.378 46.8884 113.378 46.7932V42.2355H113.218Z" fill="white"/>
<path d="M121.39 94.7496H103.77C103.34 94.7496 102.992 94.4005 102.992 93.9699V72.7218C102.992 72.2916 103.34 71.9425 103.77 71.9425H121.39C121.82 71.9425 122.168 72.2916 122.168 72.7218V93.9699C122.168 94.4005 121.82 94.7496 121.39 94.7496Z" fill="white"/>
<path d="M117.169 86.0938H106.849C106.55 86.0938 106.308 85.8509 106.308 85.552V75.8311C106.308 75.5318 106.55 75.289 106.849 75.289H117.169C117.467 75.289 117.709 75.5318 117.709 75.8311V85.552C117.709 85.8509 117.467 86.0938 117.169 86.0938Z" fill="#F9D337" fill-opacity="0.5"/>
<path d="M106.308 88.2615H117.417V88.1098H106.308V88.2615Z" fill="#C2B293"/>
<path d="M106.308 90.1241H112.008V89.9725H106.308V90.1241Z" fill="#C2B293"/>
<path d="M106.308 91.9871H114.612V91.8359H106.308V91.9871Z" fill="#C2B293"/>
<path d="M143.815 94.7497V94.5293H126.194C125.886 94.5289 125.637 94.279 125.637 93.97V72.7218C125.637 72.4133 125.886 72.1634 126.194 72.1629H143.815C144.123 72.1634 144.372 72.4133 144.373 72.7218V93.97C144.372 94.2785 144.123 94.5289 143.815 94.5293V94.7497V94.9701C144.365 94.9697 144.812 94.5223 144.812 93.97V72.7218C144.812 72.1695 144.365 71.7222 143.815 71.7222H126.194C125.643 71.7222 125.197 72.17 125.197 72.7218V93.97C125.197 94.5223 125.643 94.9697 126.194 94.9701H143.815V94.7497Z" fill="white"/>
<path d="M139.593 86.0938V85.8734H129.273C129.096 85.873 128.952 85.7293 128.952 85.5521V75.8312C128.952 75.654 129.096 75.5099 129.273 75.5094H139.593C139.77 75.5099 139.914 75.6536 139.914 75.8312V85.5521C139.914 85.7293 139.77 85.873 139.593 85.8734V86.0938V86.3142C140.014 86.3142 140.354 85.9726 140.354 85.5521V75.8312C140.354 75.4102 140.014 75.0691 139.593 75.0686H129.273C128.853 75.0691 128.513 75.4102 128.513 75.8312V85.5521C128.513 85.973 128.853 86.3142 129.273 86.3142H139.593V86.0938Z" fill="white"/>
<path d="M128.733 88.2615H139.842V88.1098H128.733V88.2615Z" fill="white"/>
<path d="M128.733 90.1241H134.434V89.9725H128.733V90.1241Z" fill="white"/>
<path d="M128.733 91.9871H137.038V91.8359H128.733V91.9871Z" fill="white"/>
<path d="M17.0557 29.4696V29.3025H8.54024C8.01031 29.303 7.585 29.738 7.58398 30.2722V35.0728C7.585 35.6065 8.01014 36.042 8.54024 36.0425H11.9359L15.0946 39.574V36.1575L17.075 36.1174C17.5975 36.1064 18.0123 35.674 18.0121 35.1477V30.2722C18.0113 29.738 17.5856 29.303 17.0557 29.3025V29.4696V29.6371C17.3979 29.6375 17.6786 29.9192 17.6787 30.2722V35.1477C17.6786 35.4955 17.4054 35.7767 17.0682 35.7828L14.7612 35.8296V38.7004L12.0848 35.7079H8.54024C8.19821 35.7075 7.91775 35.4249 7.91757 35.0728V30.2722C7.91775 29.9192 8.19808 29.6375 8.54024 29.6371H17.0557V29.4696Z" fill="#C2B293" fill-opacity="0.2"/>
<path d="M144.246 17.21V16.9786H132.451C131.718 16.979 131.128 17.582 131.127 18.3212V24.9703C131.128 25.71 131.718 26.3129 132.451 26.3134H137.155L141.53 31.2056V26.4734L144.273 26.4174C144.996 26.4024 145.571 25.8034 145.571 25.0748V18.3212C145.57 17.582 144.981 16.979 144.246 16.9786V17.21V17.4414C144.72 17.4423 145.108 17.8328 145.109 18.3212V25.0748C145.109 25.5561 144.73 25.9458 144.263 25.9546L141.068 26.0194V29.9952L137.361 25.8501H132.451C131.978 25.8492 131.589 25.4587 131.589 24.9703V18.3212C131.589 17.8328 131.978 17.4423 132.451 17.4414H144.246V17.21Z" fill="#957738" fill-opacity="0.2"/>
<path d="M4.94395 96.7037H4.75965C4.75965 97.3221 4.51349 97.8797 4.11565 98.2843C3.71751 98.6885 3.17021 98.9376 2.56403 98.9376C1.95803 98.9376 1.41095 98.6885 1.01276 98.2843C0.614932 97.8797 0.368942 97.3221 0.368766 96.7037C0.368942 96.0857 0.614932 95.5277 1.01276 95.1231C1.41095 94.7189 1.95803 94.4698 2.56403 94.4694C3.17021 94.4698 3.71751 94.7189 4.11565 95.1231C4.51349 95.5277 4.75965 96.0857 4.75965 96.7037H4.94395H5.12846C5.12587 95.2676 3.98237 94.1005 2.56403 94.1C1.14587 94.1005 0.00255049 95.2676 0 96.7037C0.00255049 98.1398 1.14587 99.3069 2.56403 99.3074C3.98237 99.3069 5.12587 98.1398 5.12846 96.7037H4.94395Z" fill="#C2B293" fill-opacity="0.2"/>
<path d="M32.7567 41.6264H32.6287C32.6283 42.4851 31.9445 43.1766 31.1037 43.1784C30.2627 43.1766 29.5785 42.4851 29.5785 41.6264C29.5785 40.7682 30.2627 40.0762 31.1037 40.0744C31.9445 40.0762 32.6283 40.7682 32.6287 41.6264H32.7567H32.8846C32.8829 40.6289 32.0887 39.8179 31.1037 39.8179C30.1182 39.8179 29.3242 40.6289 29.3223 41.6264C29.3242 42.6243 30.1184 43.4349 31.1037 43.4349C32.0887 43.4349 32.8829 42.6243 32.8846 41.6264H32.7567Z" fill="#DBEAF7"/>
<path d="M65.2254 4.64595H65.0974C65.0974 5.50459 64.4132 6.19573 63.5724 6.19749C62.7316 6.19573 62.0474 5.50459 62.0474 4.64595C62.0474 3.78732 62.7316 3.09574 63.5724 3.09442C64.4132 3.09574 65.0974 3.78732 65.0974 4.64595H65.2254H65.3533C65.3516 3.64847 64.5574 2.83788 63.5724 2.83744C62.5874 2.83788 61.7928 3.64847 61.791 4.64595C61.7928 5.64344 62.5874 6.45403 63.5724 6.45447C64.5574 6.45403 65.3516 5.64344 65.3533 4.64595H65.2254Z" fill="#C2B293" fill-opacity="0.2"/>
<path d="M37.5402 13.8835C37.5402 14.628 36.9466 15.2318 36.214 15.2318C35.4818 15.2318 34.8877 14.628 34.8877 13.8835C34.8877 13.1386 35.4818 12.5351 36.214 12.5351C36.9466 12.5351 37.5402 13.1386 37.5402 13.8835Z" fill="#F0EEEE"/>
<path d="M172.886 88.0662C172.886 88.8103 172.292 89.4137 171.559 89.4137C170.827 89.4137 170.233 88.8103 170.233 88.0662C170.233 87.3213 170.827 86.7179 171.559 86.7179C172.292 86.7179 172.886 87.3213 172.886 88.0662Z" fill="#F0EEEE"/>
<path d="M22.2747 65.3098H22.0433C22.0431 66.086 21.7343 66.7859 21.2351 67.2937C20.7352 67.8015 20.0485 68.114 19.2877 68.114C18.5271 68.114 17.8402 67.8015 17.3405 67.2937C16.8411 66.7859 16.5323 66.086 16.5323 65.3098C16.5323 64.534 16.8411 63.8336 17.3405 63.3258C17.8402 62.8185 18.5271 62.506 19.2877 62.5055C20.0485 62.506 20.7352 62.8185 21.2351 63.3258C21.7343 63.8336 22.0431 64.534 22.0433 65.3098H22.2747H22.506C22.5062 64.4088 22.1464 63.5912 21.5645 63.0001C20.9832 62.4086 20.1766 62.0414 19.2877 62.0418C18.3988 62.0414 17.5921 62.4086 17.0108 63.0001C16.429 63.5912 16.0692 64.4088 16.0693 65.3098C16.0692 66.2107 16.429 67.0284 17.0108 67.6194C17.5921 68.211 18.3988 68.5781 19.2877 68.5781C20.1766 68.5781 20.9832 68.211 21.5645 67.6194C22.1464 67.0284 22.5062 66.2107 22.506 65.3098H22.2747Z" fill="#C2B293" fill-opacity="0.2"/>
<path d="M183.816 68.3458H183.632C183.632 69.219 182.936 69.9221 182.082 69.9234C181.228 69.9221 180.533 69.219 180.533 68.3458C180.533 67.4731 181.228 66.7701 182.082 66.7687C182.936 66.7701 183.632 67.4731 183.632 68.3458H183.816H184.001C183.999 67.2726 183.144 66.3994 182.082 66.3989C181.021 66.3994 180.166 67.2726 180.164 68.3458C180.166 69.4196 181.021 70.2928 182.082 70.2932C183.144 70.2928 183.999 69.4196 184.001 68.3458H183.816Z" fill="#C2B293" fill-opacity="0.2"/>
<path d="M127.217 17.21V17.0248H123.803V13.7358H127.033V17.21H127.217H127.402V13.3664H123.434V17.3947H127.402V17.21H127.217Z" fill="#C2B293" fill-opacity="0.2"/>
<path d="M174.238 35.7499H170.639V32.0919H174.238V35.7499Z" fill="#F0EEEE"/>
<path d="M27.9609 65.2313H19.8955V57.0333H27.9609V65.2313Z" fill="#F0EEEE"/>
<path d="M91.8976 7.82707H91.709C91.709 8.45958 91.457 9.0304 91.0503 9.44473C90.6426 9.85818 90.0828 10.1134 89.4623 10.1134C88.8423 10.1134 88.2825 9.85818 87.8749 9.44473C87.4681 9.0304 87.2162 8.45958 87.2162 7.82707C87.2162 7.19455 87.4681 6.62375 87.8749 6.20986C88.2825 5.79597 88.8423 5.5412 89.4623 5.54076C90.0828 5.5412 90.6426 5.79597 91.0503 6.20986C91.457 6.62375 91.709 7.19455 91.709 7.82707H91.8976H92.0863C92.0836 6.35795 90.9139 5.16301 89.4623 5.16257C88.0112 5.16301 86.8415 6.35795 86.8389 7.82707C86.8415 9.29662 88.0112 10.4911 89.4623 10.4916C90.9139 10.4911 92.0836 9.29662 92.0863 7.82707H91.8976Z" fill="#C2B293" fill-opacity="0.2"/>
<path d="M96.5327 7.76303V7.58363H90.1367V1.25935H96.3533V7.76303H96.5327H96.7121V0.900122H89.7783V7.94287H96.7121V7.76303H96.5327Z" fill="#F0EEEE"/>
<path d="M105.19 126.052C105.19 128.73 82.0241 130.9 53.4477 130.9C24.8711 130.9 1.70508 128.73 1.70508 126.052C1.70508 123.374 24.8711 121.203 53.4477 121.203C82.0241 121.203 105.19 123.374 105.19 126.052Z" fill="#F0EEEE"/>
<path d="M99.6916 126.052C99.6797 125.804 99.4809 125.62 99.2861 125.485C99.0874 125.345 98.8666 125.238 98.6423 125.142C98.1934 124.95 97.7264 124.805 97.2558 124.676C96.3126 124.421 95.3535 124.228 94.3914 124.059C92.4662 123.723 90.5256 123.482 88.5829 123.272C84.696 122.859 80.7947 122.589 76.8915 122.384C69.084 121.982 61.2649 121.841 53.4477 121.825C45.6305 121.826 37.8114 121.992 30.0056 122.415C26.1036 122.635 22.2033 122.905 18.3173 123.318C16.3754 123.528 14.4354 123.77 12.5122 124.106C11.5511 124.275 10.5933 124.468 9.65256 124.723C9.18345 124.852 8.71759 124.997 8.27253 125.187C8.05024 125.282 7.83173 125.389 7.63763 125.525C7.44507 125.657 7.26179 125.837 7.25321 126.052C7.26095 126.267 7.44406 126.448 7.63627 126.581C7.83002 126.718 8.04853 126.826 8.27029 126.921C8.71517 127.114 9.18085 127.26 9.65014 127.391C10.5901 127.649 11.5477 127.845 12.5086 128.018C14.4316 128.361 16.3711 128.61 18.313 128.827C22.1983 129.255 26.0986 129.541 30.0023 129.747C37.8101 130.158 45.63 130.312 53.4477 130.303C61.2654 130.273 69.084 130.128 76.8915 129.724C80.7951 129.517 84.696 129.246 88.5833 128.833C90.5261 128.623 92.4667 128.382 94.3918 128.045C95.3535 127.876 96.3126 127.683 97.2558 127.429C97.7264 127.299 98.1938 127.153 98.6423 126.961C98.8666 126.866 99.0874 126.759 99.2861 126.619C99.4809 126.484 99.6797 126.299 99.6916 126.052ZM99.7131 126.052C99.7012 126.314 99.4963 126.502 99.3006 126.639C99.0997 126.782 98.8785 126.891 98.6538 126.988C98.2039 127.183 97.7356 127.33 97.2651 127.462C96.3214 127.722 95.3623 127.919 94.4002 128.092C92.4746 128.438 90.534 128.688 88.5912 128.907C84.7039 129.338 80.8026 129.625 76.899 129.853C69.0905 130.3 61.2685 130.493 53.4477 130.47C45.6274 130.454 37.8062 130.271 29.9977 129.83C26.0945 129.6 22.1927 129.328 18.3036 128.913C16.3598 128.701 14.4181 128.458 12.4906 128.12C11.5271 127.95 10.5667 127.756 9.62024 127.499C9.14787 127.369 8.67806 127.223 8.22425 127.028C7.99769 126.931 7.77387 126.823 7.56789 126.677C7.36952 126.537 7.14913 126.346 7.13281 126.052C7.14794 125.758 7.36829 125.565 7.56635 125.424C7.77215 125.279 7.99598 125.169 8.22218 125.071C8.67568 124.875 9.14528 124.727 9.61752 124.594C10.5636 124.334 11.5237 124.137 12.487 123.963C14.4139 123.618 16.3555 123.369 18.2991 123.15C22.1875 122.719 26.0899 122.431 29.9946 122.215C37.8049 121.786 45.6269 121.616 53.4477 121.61C61.2685 121.601 69.091 121.796 76.899 122.247C80.8026 122.477 84.7039 122.764 88.5912 123.195C90.534 123.415 92.4746 123.665 94.4002 124.011C95.3623 124.184 96.3214 124.382 97.2651 124.641C97.736 124.773 98.2039 124.921 98.6538 125.115C98.8785 125.213 99.0997 125.321 99.3006 125.464C99.4963 125.602 99.7012 125.79 99.7131 126.052Z" fill="white"/>
<path d="M91.8532 126.052C91.8431 125.847 91.6782 125.693 91.5163 125.581C91.351 125.464 91.1676 125.375 90.9816 125.297C90.6092 125.137 90.2209 125.016 89.8299 124.909C89.0468 124.697 88.2504 124.537 87.4514 124.397C85.8525 124.118 84.2408 123.917 82.6274 123.743C79.3993 123.4 76.1593 123.175 72.9176 123.005C66.4332 122.672 59.9395 122.554 53.4472 122.542C46.9549 122.542 40.4613 122.68 33.9782 123.032C30.7378 123.213 27.4984 123.439 24.2713 123.783C22.6586 123.958 21.0475 124.159 19.4505 124.439C18.6524 124.58 17.8571 124.74 17.0763 124.951C16.6865 125.059 16.2997 125.18 15.9305 125.338C15.7463 125.416 15.565 125.505 15.4042 125.618C15.2446 125.727 15.0939 125.876 15.0869 126.052C15.093 126.227 15.2436 126.377 15.4029 126.487C15.5635 126.601 15.7447 126.691 15.9288 126.77C16.2978 126.93 16.6843 127.051 17.0739 127.16C17.8546 127.374 18.6497 127.538 19.4474 127.681C21.0444 127.967 22.655 128.174 24.2677 128.355C27.4943 128.712 30.7338 128.951 33.9756 129.12C40.46 129.462 46.9545 129.59 53.4472 129.582C59.94 129.558 66.4332 129.438 72.9176 129.102C76.1593 128.929 79.3993 128.705 82.6274 128.362C84.2408 128.187 85.8525 127.987 87.4518 127.707C88.2508 127.567 89.0472 127.407 89.8299 127.195C90.2209 127.087 90.6092 126.967 90.9816 126.807C91.1676 126.728 91.351 126.639 91.5163 126.523C91.6782 126.41 91.8431 126.257 91.8532 126.052ZM91.8712 126.052C91.8611 126.269 91.6909 126.425 91.5286 126.54C91.3615 126.658 91.1777 126.748 90.9913 126.829C90.6175 126.99 90.2292 127.114 89.8378 127.223C89.0542 127.438 88.2579 127.602 87.4584 127.746C85.8595 128.033 84.2479 128.241 82.6345 128.423C79.4059 128.78 76.1659 129.019 72.9237 129.208C66.4384 129.58 59.9426 129.74 53.4472 129.721C46.9523 129.707 40.4569 129.556 33.9716 129.19C30.7303 128.998 27.4895 128.774 24.2595 128.43C22.645 128.255 21.0325 128.053 19.4314 127.772C18.6312 127.631 17.8334 127.47 17.0469 127.258C16.6546 127.15 16.2643 127.028 15.8871 126.867C15.6985 126.786 15.5126 126.696 15.341 126.575C15.176 126.458 14.9913 126.299 14.9775 126.052C14.9904 125.804 15.1751 125.644 15.3398 125.527C15.5111 125.405 15.6971 125.315 15.8854 125.233C16.2624 125.07 16.6523 124.947 17.0448 124.838C17.8307 124.622 18.6284 124.458 19.4284 124.314C21.0291 124.028 22.6415 123.821 24.2559 123.64C27.4854 123.283 30.7263 123.045 33.9694 122.865C40.456 122.509 46.9518 122.368 53.4472 122.363C59.9426 122.355 66.4389 122.517 72.9242 122.892C76.1659 123.082 79.4059 123.322 82.6345 123.68C84.2479 123.862 85.8595 124.069 87.4584 124.356C88.2579 124.5 89.0542 124.665 89.8378 124.88C90.2292 124.99 90.6175 125.113 90.9913 125.274C91.1777 125.355 91.3615 125.445 91.5286 125.564C91.6909 125.678 91.8611 125.834 91.8712 126.052Z" fill="white"/>
<path d="M76.9611 126.052C76.9554 125.926 76.8543 125.832 76.7549 125.763C76.6538 125.692 76.5416 125.638 76.4277 125.589C76.1995 125.492 75.9621 125.418 75.7224 125.352C75.2431 125.222 74.7554 125.125 74.2664 125.039C73.2876 124.868 72.3008 124.745 71.3127 124.638C69.3365 124.428 67.3528 124.291 65.3679 124.187C61.3979 123.983 57.4222 123.91 53.4474 123.902C49.4722 123.903 45.4965 123.987 41.5278 124.203C39.5437 124.314 37.5605 124.452 35.5848 124.663C34.5971 124.77 33.6108 124.893 32.6332 125.064C32.1447 125.151 31.6574 125.249 31.1794 125.378C30.9407 125.444 30.7041 125.518 30.478 125.614C30.3652 125.663 30.2542 125.717 30.1558 125.786C30.0581 125.853 29.9658 125.944 29.9615 126.052C29.9653 126.16 30.0575 126.251 30.1549 126.318C30.2534 126.388 30.3643 126.443 30.477 126.491C30.7028 126.589 30.9394 126.664 31.1781 126.73C31.6557 126.861 32.1429 126.961 32.6315 127.05C33.609 127.224 34.5949 127.351 35.5826 127.462C37.5579 127.68 39.5411 127.827 41.5261 127.931C45.496 128.14 49.4722 128.218 53.4474 128.213C57.4226 128.199 61.3983 128.125 65.3683 127.919C67.3528 127.814 69.3365 127.676 71.3127 127.466C72.3008 127.359 73.2876 127.236 74.2664 127.065C74.7559 126.979 75.2431 126.881 75.7228 126.752C75.9621 126.686 76.1995 126.612 76.4277 126.514C76.5416 126.466 76.6538 126.411 76.7549 126.34C76.8543 126.272 76.9554 126.178 76.9611 126.052ZM76.9726 126.052C76.966 126.185 76.8622 126.281 76.7624 126.35C76.6604 126.423 76.5478 126.478 76.4335 126.528C76.2048 126.627 75.9669 126.702 75.7277 126.769C75.2475 126.901 74.7598 127.001 74.2708 127.089C73.2915 127.265 72.3047 127.392 71.3171 127.504C69.3405 127.723 67.3568 127.869 65.3718 127.984C61.4014 128.212 57.424 128.31 53.4474 128.298C49.4713 128.29 45.4943 128.197 41.5239 127.973C39.5393 127.856 37.5548 127.719 35.5773 127.508C34.5887 127.4 33.6015 127.277 32.6214 127.105C32.1315 127.019 31.6429 126.92 31.1614 126.79C30.9213 126.724 30.6821 126.65 30.4512 126.551C30.336 126.501 30.2223 126.446 30.1171 126.372C30.016 126.301 29.9029 126.203 29.8945 126.052C29.9024 125.9 30.0155 125.802 30.1163 125.73C30.2211 125.656 30.3351 125.6 30.4504 125.55C30.6812 125.451 30.92 125.375 31.1601 125.308C31.6416 125.176 32.1297 125.076 32.6196 124.988C33.5993 124.813 34.5865 124.686 35.5751 124.575C37.5526 124.357 39.5367 124.211 41.5221 124.101C45.4934 123.883 49.4708 123.796 53.4474 123.793C57.424 123.789 61.4014 123.887 65.3718 124.117C67.3568 124.234 69.3405 124.38 71.3171 124.6C72.3047 124.711 73.2915 124.838 74.2708 125.014C74.7598 125.102 75.2475 125.203 75.7277 125.335C75.9669 125.401 76.2048 125.477 76.4335 125.576C76.5478 125.625 76.6604 125.68 76.7624 125.753C76.8622 125.823 76.966 125.919 76.9726 126.052Z" fill="white"/>
<path d="M64.1298 126.051C64.107 125.938 63.9825 125.888 63.8867 125.842C63.7824 125.798 63.6751 125.763 63.5661 125.735C63.3484 125.676 63.1272 125.63 62.9047 125.592C62.4601 125.514 62.0116 125.46 61.5631 125.411C60.6651 125.315 59.7641 125.253 58.8622 125.206C57.0588 125.112 55.2528 125.079 53.4472 125.075C51.6417 125.076 49.8357 125.114 48.0327 125.212C47.1313 125.262 46.2302 125.325 45.3327 125.421C44.8842 125.47 44.4361 125.525 43.992 125.603C43.7699 125.642 43.5487 125.687 43.3319 125.746C43.2233 125.775 43.1156 125.81 43.0127 125.853C42.9173 125.898 42.7963 125.952 42.7774 126.051C42.7959 126.152 42.9168 126.206 43.0127 126.251C43.1151 126.295 43.2224 126.33 43.331 126.36C43.5483 126.419 43.769 126.466 43.9911 126.505C44.4348 126.584 44.8833 126.641 45.3314 126.692C46.2289 126.792 47.13 126.858 48.0319 126.905C49.8352 127.001 51.6417 127.036 53.4472 127.034C55.2528 127.026 57.0588 126.993 58.8622 126.899C59.7641 126.852 60.6651 126.789 61.5631 126.694C62.0116 126.645 62.4601 126.59 62.9047 126.512C63.1272 126.473 63.3484 126.427 63.5661 126.369C63.6751 126.34 63.7829 126.305 63.8867 126.261C63.9825 126.215 64.107 126.165 64.1298 126.051ZM64.1351 126.051C64.1109 126.171 63.9852 126.219 63.8893 126.268C63.7851 126.312 63.6773 126.347 63.5683 126.377C63.3506 126.437 63.129 126.484 62.9069 126.523C62.4619 126.603 62.0134 126.66 61.5648 126.711C60.6669 126.811 59.7659 126.878 58.864 126.93C57.0606 127.034 55.2537 127.077 53.4472 127.072C51.6408 127.067 49.8343 127.026 48.0305 126.924C47.1291 126.871 46.228 126.809 45.3297 126.713C44.8807 126.664 44.4317 126.609 43.9867 126.53C43.7638 126.492 43.5421 126.446 43.3236 126.386C43.2141 126.357 43.1059 126.323 43.0008 126.278C42.9045 126.229 42.7748 126.185 42.7471 126.051C42.7743 125.918 42.9041 125.874 43.0004 125.824C43.105 125.779 43.2136 125.744 43.3231 125.715C43.5417 125.655 43.7633 125.608 43.9858 125.569C44.4308 125.488 44.8794 125.432 45.3283 125.381C46.2267 125.281 47.1278 125.215 48.0301 125.166C49.8339 125.066 51.6408 125.028 53.4472 125.025C55.2537 125.024 57.0606 125.068 58.8644 125.172C59.7659 125.225 60.6669 125.291 61.5648 125.391C62.0138 125.442 62.4619 125.5 62.9069 125.58C63.1294 125.619 63.3506 125.666 63.5683 125.726C63.6773 125.756 63.7851 125.791 63.8893 125.836C63.9852 125.884 64.1109 125.932 64.1351 126.051Z" fill="white"/>
<path d="M39.6512 85.5846C39.696 86.1819 40.2901 87.3482 40.8262 88.0031C41.017 88.2359 41.2637 88.4201 41.5403 88.5391C41.8442 88.6696 42.061 88.6745 42.9299 88.6925C44.0961 88.7168 41.4194 91.1062 39.6499 92.5846C38.8311 93.2682 37.6354 93.2246 36.8619 92.4903C35.4468 91.1472 33.632 89.1523 34.9697 88.8472C35.3409 88.7631 35.4767 88.4536 35.6913 87.8255C36.0638 86.5975 36.0449 83.3887 35.7894 82.7901" fill="#F79DC1"/>
<path d="M43.5023 77.3078C43.8664 78.4732 43.1431 79.6712 42.9329 80.8741C42.7882 81.7014 42.8898 82.5508 42.8511 83.3896C42.8128 84.2293 42.5996 85.121 41.9729 85.679C41.4395 86.1537 40.6902 86.3076 39.9769 86.3071C38.313 86.3049 36.6666 85.5146 35.6218 84.2161C34.5765 82.918 34.1539 81.1381 34.5031 79.5072C34.6293 78.9193 34.8491 78.3537 35.1235 77.8182C35.8284 76.4425 36.9748 75.2128 38.4598 74.7931C39.9453 74.3744 41.7614 74.9752 42.4069 76.3795" fill="#F9ADC9"/>
<path d="M40.4301 73.8234C40.5413 73.7009 40.7093 73.745 40.85 73.812C41.6921 74.2135 42.3654 75.2811 42.5272 76.4699C42.5804 76.8626 42.5738 77.2963 42.3992 77.6C42.2919 77.7865 42.1327 77.9028 41.9731 78.0007C39.9529 79.2401 37.3594 78.2506 35.4377 79.7378C35.3542 78.5816 35.6074 77.4321 36.0547 76.4822C36.5019 75.5332 37.1355 74.7733 37.8312 74.1637C38.4051 73.6608 39.1236 73.246 39.7828 73.6097" fill="#121212"/>
<path d="M36.8455 78.1765C36.3636 78.4982 36.0329 79.0382 35.9656 79.6152C35.8975 80.1939 36.0694 80.8366 35.7563 81.328C35.7317 81.3655 35.7031 81.4034 35.6613 81.4197C35.4802 81.4894 35.3992 81.1187 35.2049 81.1173C34.9621 81.3765 34.9265 81.7692 34.967 82.1223C35.0074 82.4758 35.1099 82.8249 35.0914 83.1802C35.0888 83.2331 35.0826 83.2882 35.0527 83.3318C34.9903 83.4226 34.8584 83.4239 34.7502 83.4045C34.0875 83.2855 33.5647 82.7711 33.1777 82.2188C32.2063 80.8317 31.8347 79.0554 32.0783 77.3787C32.15 76.8837 32.2767 76.3874 32.5431 75.9651C32.8101 75.5424 33.2331 75.1995 33.7252 75.1201C33.7718 74.4783 33.8773 73.7929 34.3148 73.3217C34.6011 73.0128 34.9978 72.8334 35.3918 72.6861C37.3284 71.9628 40.3635 71.9527 41.6141 73.9353C41.8159 74.2544 41.9544 74.6242 41.9303 74.9993C41.8788 75.787 41.1568 76.3596 40.4699 76.7792C39.5319 77.3513 38.539 77.8371 37.5082 78.2272" fill="#121212"/>
<path d="M34.6778 74.127C33.9734 73.5112 33.0886 73.1053 32.163 72.9744C31.0082 72.8108 29.7338 73.1203 28.9673 74.0014C28.2493 74.8261 28.076 75.9994 27.4578 76.9022C26.412 78.4286 24.3476 78.8755 23.0179 80.1613C22.6285 80.5381 22.2934 81.0234 22.2874 81.5656C22.28 82.2391 22.7763 82.828 22.83 83.4993C22.9266 84.7101 21.5893 85.6908 21.701 86.9003C21.7978 87.9494 22.9291 88.5739 23.9596 88.7793C25.5049 89.0879 27.1855 88.8556 28.4959 87.9789C29.8064 87.1018 30.6868 85.5458 30.5909 83.9696C30.5495 83.2833 30.3334 82.6107 30.3528 81.923C30.3875 80.6849 31.1784 79.5548 31.1744 78.3162C31.1731 77.7529 31.0166 77.1389 31.3134 76.661C31.4453 76.4486 31.6511 76.2956 31.8516 76.1475C32.4611 75.6979 33.2768 75.2338 33.9206 75.634" fill="#121212"/>
<path d="M41.7531 74.5728C42.6357 74.1466 43.8208 74.5297 44.2882 75.3927C44.5248 75.8282 44.5846 76.3351 44.6391 76.8283C44.687 77.2634 44.7323 77.7125 44.6044 78.1317C44.5226 78.3984 44.3744 78.639 44.2275 78.8762C43.8375 79.5056 43.37 80.0116 42.98 80.6415C43.2064 79.2164 43.1576 78.7757 42.9452 77.8615C42.7324 76.9478 41.8916 76.1909 41.2637 75.4945" fill="#121212"/>
<path d="M35.8791 81.4035C35.9582 81.3352 35.8698 81.2117 35.7863 81.1492C35.6179 81.024 35.4459 80.897 35.2472 80.83C35.0484 80.7626 34.8149 80.7639 34.6434 80.8851C34.4816 80.9997 34.4011 81.1985 34.3593 81.3929C34.2116 82.0748 34.4618 82.8281 34.9873 83.2856C35.1984 83.4694 35.4719 83.6118 35.7494 83.5726C36.0268 83.5342 36.2757 83.253 36.2005 82.9828" fill="#F9ADC9"/>
<path d="M41.3499 83.7264C41.4115 83.8784 41.36 84.6295 40.7193 84.8261C40.1824 84.9914 39.1398 84.6696 39.2159 84.1134C39.2928 83.8974 41.2883 83.5743 41.3499 83.7264Z" fill="#E56BA5"/>
<path d="M40.3613 81.7675C40.404 81.9059 40.5069 82.0038 40.6217 82.0875C40.7501 82.181 40.8644 82.2524 40.842 82.4393C40.8248 82.5768 40.6489 82.6954 40.5759 82.8108C40.5487 82.8545 40.5939 82.9074 40.6406 82.895C40.9084 82.8245 41.1128 82.5076 40.9932 82.2356C40.8776 81.9729 40.513 81.9932 40.3978 81.7521L40.3613 81.7675Z" fill="#E56BA5"/>
<path d="M42.3678 79.9048C42.1906 79.6712 41.9443 79.6337 41.7662 80.138C41.6537 80.4558 41.6532 81.0658 42.0916 81.1147C42.7622 81.1897 42.6567 80.2861 42.3678 79.9048Z" fill="#814164"/>
<path d="M42.4311 80.1869C42.3528 80.0828 42.2438 80.0661 42.1646 80.29C42.1149 80.4306 42.1145 80.7013 42.3088 80.7233C42.6061 80.7563 42.5595 80.3557 42.4311 80.1869Z" fill="white"/>
<path d="M41.0465 79.0546C41.2496 78.8902 41.4695 78.7443 41.7232 78.6737C42.0324 78.5878 42.2518 78.6548 42.5011 78.8403L42.5644 78.7769C42.25 78.2056 41.265 78.5909 41.0117 79.0277L41.0465 79.0546Z" fill="#814164"/>
<path d="M38.2863 80.1371C38.0884 79.8907 37.8131 79.8519 37.6117 80.3862C37.485 80.7225 37.4824 81.3673 37.9732 81.4176C38.7238 81.4947 38.6081 80.5396 38.2863 80.1371Z" fill="#814164"/>
<path d="M38.3533 80.435C38.2658 80.3252 38.144 80.308 38.0542 80.5452C37.998 80.6942 37.9971 80.9807 38.2148 81.0027C38.5476 81.0367 38.4962 80.6135 38.3533 80.435Z" fill="white"/>
<path d="M38.881 79.1604C38.1941 78.962 37.1867 79.2084 36.856 79.9088C36.8327 79.9577 36.8894 80.0049 36.9312 79.9674C37.2087 79.7197 37.4334 79.4738 37.7918 79.3354C38.1335 79.2036 38.4998 79.1828 38.8595 79.2397C38.9105 79.2481 38.9333 79.1753 38.881 79.1604Z" fill="#814164"/>
<path d="M38.9623 82.5976C38.9755 82.4102 38.8906 82.2194 38.6584 82.0559C38.2591 81.7746 37.6712 81.7658 37.2257 81.9232C37.0278 81.9933 36.8462 82.1453 36.7983 82.3503C36.7688 82.4755 36.7921 82.6086 36.8361 82.7298C36.9962 83.1701 37.4553 83.4959 37.928 83.465C38.3638 83.4364 38.9284 83.0714 38.9623 82.5976Z" fill="#F792C3"/>
<path d="M42.6981 82.15C42.7042 82.0019 42.651 81.8499 42.5094 81.7181C42.2658 81.4919 41.9109 81.4783 41.644 81.5991C41.5253 81.6524 41.4175 81.7705 41.3907 81.9323C41.374 82.031 41.3894 82.1368 41.4171 82.2329C41.5187 82.5833 41.7988 82.8456 42.0833 82.8257C42.3458 82.8077 42.6827 82.5242 42.6981 82.15Z" fill="#F792C3"/>
<path d="M23.5632 102.36C23.5632 102.36 21.4125 105.941 21.9383 108.255C22.4639 110.569 27.0262 112.663 34.0073 114.261C38.8445 113.104 35.2654 111.892 35.2654 111.892L28.1863 107.925L29.1704 103.682L23.5632 102.36Z" fill="#F9ADC9"/>
<path d="M53.8602 103.315C53.8602 103.315 56.0114 106.896 55.4855 109.21C54.9596 111.524 50.3973 113.618 43.4164 115.216C38.5793 114.059 42.1583 112.847 42.1583 112.847L49.2377 108.88L48.2531 104.637L53.8602 103.315Z" fill="#F9ADC9"/>
<path d="M35.1533 88.764C36.5755 91.8851 40.5406 91.8168 41.61 88.5841C41.61 88.5841 43.2767 88.7362 44.3857 90.6809C44.3857 90.6809 46.9243 97.2357 47.8587 103.847C48.7382 110.569 47.1442 112.332 47.1442 112.332L43.3483 113.324L29.6092 110.845C29.6092 110.845 28.4 103.332 29.994 97.2538C31.5884 91.175 32.6328 91.0296 35.1533 88.764Z" fill="#F9D337"/>
<path d="M35.153 88.764C35.153 88.764 29.6089 88.6132 27.5201 91.7952C25.8441 94.3486 23.1059 100.282 22.0895 102.525C21.8093 103.145 21.9202 103.878 22.3913 104.367C23.2624 105.271 25.0651 106.443 28.4233 106.12C32.6874 102.966 33.237 95.5907 33.237 95.5907L35.153 88.764Z" fill="#F9D337"/>
<path d="M41.6104 88.5842C41.6104 88.5842 46.1551 88.7874 47.859 90.0639C49.1624 91.0406 52.8153 97.7211 54.5827 101.003C55.1367 102.032 54.7757 103.324 53.7568 103.894C52.0757 104.834 50.0107 105.728 47.8041 105.886C44.7259 106.106 44.3763 103.352 44.386 103.131C44.3961 102.911 41.6104 88.5842 41.6104 88.5842Z" fill="#F9D337"/>
<path d="M31.1034 97.2415C30.8435 97.8295 30.6267 98.4259 30.4235 99.0209C30.2291 99.62 30.0617 100.223 29.9458 100.835C29.8221 101.447 29.7756 102.067 29.7676 102.689C29.7691 103.314 29.8609 103.932 29.9949 104.564C29.7012 103.995 29.4851 103.363 29.4251 102.709C29.3611 102.058 29.392 101.395 29.5141 100.753C29.7733 99.4749 30.2976 98.2491 31.1034 97.2415Z" fill="#957738"/>
<path d="M46.0469 97.2415C46.8525 98.2491 47.3766 99.4749 47.6361 100.753C47.7579 101.395 47.7891 102.058 47.7249 102.709C47.6651 103.363 47.4488 103.995 47.155 104.564C47.2891 103.932 47.381 103.314 47.3824 102.689C47.3744 102.067 47.3278 101.447 47.2043 100.835C47.0886 100.223 46.9211 99.62 46.7267 99.0209C46.5236 98.4259 46.3068 97.8295 46.0469 97.2415Z" fill="#957738"/>
<path d="M30.5277 113.324C30.5277 113.324 16.4233 109.788 14.3713 116.01C12.3189 122.231 22.1457 127.08 41.0517 126.566C41.7816 125.17 41.2188 121.717 41.2188 121.717L38.9018 115.47L30.5277 113.324Z" fill="#957738"/>
<path d="M47.4578 113.324C47.4578 113.324 61.562 109.788 63.6143 116.01C65.6665 122.231 55.8397 127.08 36.934 126.566C36.204 125.17 36.7664 121.717 36.7664 121.717L39.0834 115.47L47.4578 113.324Z" fill="#957738"/>
<path d="M41.2194 121.717C41.2194 121.717 46.5459 123.297 46.9857 123.737C47.4804 122.856 48.3598 121.644 49.2943 122.525C50.3936 123.572 51.2938 124.068 52.4652 124.343C53.6367 124.619 55.2857 125.28 54.901 125.666C54.5162 126.051 45.8322 126.561 41.0391 126.593C41.3117 125.711 41.7396 123.12 41.2194 121.717Z" fill="#F9ADC9"/>
<path d="M26.4629 117.401C27.7371 117.575 28.9979 117.826 30.2532 118.101C31.5094 118.373 32.753 118.699 33.9908 119.045C35.2265 119.401 36.4534 119.789 37.6618 120.229C38.8702 120.67 40.0636 121.155 41.2201 121.718C40.6036 121.532 40.0038 121.308 39.3869 121.129C38.78 120.925 38.167 120.739 37.5549 120.551C36.3267 120.188 35.1034 119.813 33.8703 119.469L26.4629 117.401Z" fill="#543E12"/>
<path d="M54.296 115.47C53.6716 115.639 53.0471 115.8 52.4302 115.988C51.8093 116.161 51.1919 116.345 50.5789 116.542C49.3529 116.935 48.1344 117.343 46.9339 117.8C45.7343 118.259 44.5588 118.773 43.3984 119.323C42.8315 119.622 42.2498 119.899 41.7049 120.24C41.1324 120.539 40.6153 120.921 40.0625 121.263C41.0268 120.396 42.113 119.668 43.2418 119.023C44.3799 118.394 45.5685 117.861 46.7778 117.388C47.995 116.937 49.2297 116.535 50.4865 116.217C51.742 115.897 53.0102 115.624 54.296 115.47Z" fill="#543E12"/>
<path d="M50.772 117.842H27.9395V103.499C27.9395 102.916 28.4111 102.443 28.9932 102.443H49.7184C50.3002 102.443 50.772 102.916 50.772 103.499V117.842Z" fill="#DBEAF7"/>
<path d="M50.772 118.558H27.9395V117.842H50.772V118.558Z" fill="#C2D7E6"/>
<path d="M41.5396 110.143C41.5396 111.352 40.5616 112.332 39.355 112.332C38.1479 112.332 37.1699 111.352 37.1699 110.143C37.1699 108.933 38.1479 107.952 39.355 107.952C40.5616 107.952 41.5396 108.933 41.5396 110.143Z" fill="#C2D7E6"/>
<path d="M80.6387 107.222V126.42C80.6387 126.663 80.8352 126.86 81.0784 126.86C81.3211 126.86 81.5182 126.663 81.5182 126.42V107.222C81.5182 106.978 81.3211 106.781 81.0784 106.781C80.8352 106.781 80.6387 106.978 80.6387 107.222Z" fill="#C2B293"/>
<path d="M87.6199 107.492L92.0538 126.703C92.1087 126.94 92.3449 127.088 92.5814 127.033C92.818 126.978 92.9653 126.741 92.9108 126.504L88.4765 107.293C88.422 107.056 88.1858 106.909 87.9492 106.963C87.7127 107.018 87.5649 107.255 87.6199 107.492Z" fill="#C2B293"/>
<path d="M73.6778 107.293L69.2439 126.504C69.189 126.741 69.3363 126.978 69.5733 127.033C69.8099 127.088 70.046 126.94 70.1005 126.703L74.5349 107.492C74.5894 107.255 74.4421 107.018 74.2055 106.963C73.9689 106.909 73.7328 107.056 73.6778 107.293Z" fill="#C2B293"/>
<path d="M94.3427 107.907H68.2512C67.8466 107.907 67.5186 107.578 67.5186 107.172C67.5186 106.767 67.8466 106.438 68.2512 106.438H94.3427C94.7472 106.438 95.0753 106.767 95.0753 107.172C95.0753 107.578 94.7472 107.907 94.3427 107.907Z" fill="#957738"/>
<path d="M76.1939 106.438H73.234L73.1417 105.064H73.5027L73.5704 106.077H75.8566L75.9248 105.064H76.2858L76.1939 106.438ZM76.3082 104.73H75.9472L76.2053 100.885H73.2221L73.4803 104.73H73.1192L72.8369 100.524H76.5905L76.3082 104.73Z" fill="#C2B293"/>
<path d="M76.2857 105.064H75.9247L75.9471 104.73H76.3081L76.2857 105.064ZM73.5026 105.064H73.1416L73.1191 104.73H73.4802L73.5026 105.064Z" fill="#ADC6E3"/>
<path d="M73.57 106.077L73.2217 100.885H76.2049L75.8562 106.077H73.57Z" fill="#FCE99B"/>
<path d="M73.3359 102.589L73.5699 106.077H75.8561L76.0905 102.589H73.3359Z" fill="#F0EEEE"/>
<path d="M74.1629 102.589H73.5552L73.4694 101.668C73.4202 101.287 73.5526 101.108 73.706 101.108C73.8569 101.108 74.0283 101.282 74.0657 101.611L74.1629 102.589Z" fill="#C2B293"/>
<path d="M74.4351 105.326H73.8112L73.5557 102.589H74.1634L74.4351 105.326Z" fill="#C2B293"/>
<path d="M82.1394 101.798C82.1394 101.798 78.7798 93.3574 80.7868 92.5261C82.7942 91.6952 82.7506 101.011 82.7506 101.798C82.7506 102.585 82.1394 101.798 82.1394 101.798Z" fill="#957738"/>
<path d="M83.4928 101.798C83.4928 101.798 80.7875 83.5166 83.9725 83.0793C87.158 82.6421 84.8889 100.792 84.2781 102.148C83.3622 102.061 83.4928 101.798 83.4928 101.798Z" fill="#957738"/>
<path d="M85.1074 102.148C85.1074 102.148 85.6307 89.0708 87.9433 89.2022C90.2559 89.3335 85.6325 102.148 85.6325 102.148H85.1074Z" fill="#957738"/>
<path d="M87.436 102.544L87.3986 102.736L86.6387 106.437H81.4159L80.6561 102.736L80.6191 102.544H87.436Z" fill="#F9D337"/>
<path d="M87.3986 102.736H80.6561L80.6191 102.544H87.436L87.3986 102.736Z" fill="#957738"/>
<path d="M87.6905 102.546H80.3649C80.1138 102.546 79.9102 102.342 79.9102 102.09V101.9C79.9102 101.648 80.1138 101.444 80.3649 101.444H87.6905C87.9416 101.444 88.1452 101.648 88.1452 101.9V102.09C88.1452 102.342 87.9416 102.546 87.6905 102.546Z" fill="#F9D337"/>
<path d="M174.14 107.312C174.14 108.645 167.521 109.726 159.357 109.726C151.192 109.726 144.574 108.645 144.574 107.312C144.574 105.979 151.192 104.898 159.357 104.898C167.521 104.898 174.14 105.979 174.14 107.312Z" fill="#F0EEEE"/>
<path d="M170.67 103.398V107.639H149.177V103.398H170.67Z" fill="#F9D337"/>
<path d="M165.11 104.495V106.542H151.465V104.495H165.11Z" fill="#F0EEEE"/>
<path d="M170.67 94.9173V99.1576H149.177V94.9173H170.67Z" fill="#F9D337"/>
<path d="M165.11 96.0144V98.0609H151.465V96.0144H165.11Z" fill="#F0EEEE"/>
<path d="M170.67 99.1575V103.398H149.177V99.1575H170.67Z" fill="#C2B293"/>
<path d="M165.11 100.255V102.301H151.465V100.255H165.11Z" fill="#F0EEEE"/>
</svg>
