<svg width="184" height="127" viewBox="0 0 184 127" fill="none" xmlns="http://www.w3.org/2000/svg">
<path d="M182.715 93.8024C182.934 94.5744 183.107 95.3639 183.231 96.1648L183.538 96.1193C183.411 95.3063 183.235 94.5046 183.013 93.7212L182.715 93.8024ZM183.454 98.5705C183.46 98.7626 183.463 98.9547 183.463 99.1467C183.463 99.7571 183.434 100.37 183.374 100.984L183.682 101.013C183.744 100.389 183.773 99.7662 183.773 99.1467C183.773 98.9516 183.77 98.7565 183.764 98.5614L183.454 98.5705ZM182.988 103.368C182.811 104.144 182.583 104.918 182.3 105.687L182.592 105.789C182.879 105.009 183.111 104.223 183.291 103.435L182.988 103.368ZM181.324 107.903C180.959 108.606 180.546 109.302 180.08 109.987L180.339 110.155C180.811 109.461 181.231 108.754 181.6 108.04L181.324 107.903ZM178.6 111.918C178.084 112.52 177.523 113.109 176.916 113.684L177.131 113.903C177.746 113.321 178.314 112.723 178.837 112.114L178.6 111.918ZM175.061 115.279C174.435 115.769 173.771 116.246 173.066 116.706L173.238 116.959C173.95 116.493 174.622 116.012 175.254 115.517L175.061 115.279ZM170.959 117.973C170.26 118.358 169.529 118.73 168.764 119.088L168.897 119.362C169.668 119.002 170.407 118.626 171.111 118.238L170.959 117.973ZM166.498 120.062C165.752 120.357 164.979 120.639 164.177 120.907L164.277 121.194C165.084 120.925 165.863 120.641 166.613 120.343L166.498 120.062ZM161.814 121.634C161.039 121.853 160.241 122.059 159.418 122.253L159.49 122.548C160.318 122.353 161.12 122.146 161.899 121.926L161.814 121.634ZM156.996 122.773C156.203 122.927 155.39 123.07 154.556 123.202L154.605 123.501C155.443 123.369 156.26 123.225 157.057 123.07L156.996 122.773ZM152.101 123.548C151.298 123.649 150.476 123.739 149.636 123.819L149.666 124.122C150.509 124.041 151.333 123.951 152.14 123.85L152.101 123.548ZM147.163 124.02C146.354 124.075 145.528 124.12 144.686 124.156L144.699 124.459C145.544 124.424 146.372 124.377 147.185 124.323L147.163 124.02ZM142.204 124.233C141.467 124.247 140.717 124.254 139.955 124.254C139.877 124.254 139.8 124.254 139.722 124.254L139.721 124.558C139.799 124.558 139.877 124.558 139.955 124.558C140.719 124.558 141.471 124.551 142.211 124.536L142.204 124.233ZM137.239 124.224C136.424 124.207 135.596 124.181 134.756 124.147L134.743 124.45C135.586 124.484 136.415 124.51 137.232 124.528L137.239 124.224ZM132.276 124.024C131.461 123.977 130.635 123.923 129.797 123.86L129.774 124.163C130.613 124.226 131.441 124.28 132.257 124.327L132.276 124.024ZM127.322 123.656C126.509 123.583 125.685 123.504 124.85 123.416L124.818 123.719C125.653 123.806 126.479 123.886 127.294 123.959L127.322 123.656ZM122.382 123.142C121.57 123.045 120.748 122.943 119.918 122.833L119.876 123.135C120.709 123.244 121.531 123.347 122.345 123.443L122.382 123.142ZM117.457 122.495C116.647 122.379 115.828 122.256 115 122.127L114.952 122.426C115.781 122.556 116.601 122.678 117.412 122.795L117.457 122.495ZM112.549 121.731C111.742 121.596 110.926 121.456 110.102 121.309L110.046 121.607C110.871 121.755 111.688 121.895 112.497 122.03L112.549 121.731ZM107.659 120.861C106.854 120.71 106.042 120.553 105.221 120.39L105.16 120.687C105.981 120.85 106.794 121.008 107.6 121.159L107.659 120.861ZM102.788 119.895C101.986 119.729 101.176 119.557 100.359 119.379L100.292 119.676C101.11 119.854 101.92 120.026 102.724 120.193L102.788 119.895ZM97.9351 118.843C97.1353 118.662 96.3286 118.477 95.5157 118.286L95.4436 118.581C96.2573 118.772 97.0648 118.958 97.8653 119.139L97.9351 118.843ZM93.1009 117.71C92.3043 117.516 91.5006 117.318 90.6908 117.116L90.6141 117.409C91.4247 117.613 92.2283 117.811 93.0265 118.004L93.1009 117.71ZM88.2853 116.503C88.0529 116.443 87.8196 116.383 87.5863 116.322C87.0136 116.173 86.4433 116.03 85.8752 115.893L85.8008 116.188C86.3673 116.324 86.9361 116.466 87.5065 116.615C87.7398 116.676 87.973 116.737 88.2063 116.797L88.2853 116.503ZM83.4488 115.343C82.6313 115.169 81.8176 115.007 81.0077 114.856L80.9504 115.155C81.7571 115.305 82.5677 115.466 83.383 115.64L83.4488 115.343ZM78.5527 114.433C77.7266 114.302 76.9043 114.183 76.0875 114.075L76.0457 114.376C76.8602 114.484 77.6793 114.603 78.5031 114.733L78.5527 114.433ZM73.6131 113.78C72.7816 113.692 71.9539 113.614 71.1324 113.548L71.1069 113.85C71.926 113.917 72.7506 113.994 73.5798 114.082L73.6131 113.78ZM68.6464 113.378C67.811 113.332 66.981 113.296 66.1572 113.27L66.1472 113.573C66.9686 113.599 67.7955 113.635 68.6286 113.682L68.6464 113.378ZM63.6657 113.22C63.3759 113.218 63.0869 113.217 62.7986 113.217C62.2545 113.217 61.7136 113.221 61.1758 113.229L61.1805 113.532C61.7167 113.525 62.2561 113.521 62.7986 113.521C63.0861 113.521 63.3744 113.522 63.6634 113.524L63.6657 113.22ZM58.6866 113.293C57.8505 113.324 57.0213 113.364 56.199 113.411L56.2176 113.715C57.0375 113.667 57.8644 113.627 58.6983 113.597L58.6866 113.293ZM53.7153 113.58C52.8807 113.645 52.0538 113.718 51.2354 113.797L51.2657 114.099C52.0825 114.02 52.9078 113.948 53.7401 113.882L53.7153 113.58ZM48.7602 114.059C47.9281 114.155 47.1047 114.257 46.2901 114.364L46.3313 114.664C47.1442 114.557 47.9659 114.456 48.7959 114.361L48.7602 114.059ZM43.8255 114.705C42.9958 114.827 42.176 114.953 41.3662 115.082L41.416 115.382C42.2246 115.253 43.043 115.127 43.8712 115.006L43.8255 114.705ZM38.9121 115.488C38.0842 115.629 37.2676 115.773 36.4626 115.918L36.5186 116.217C37.3229 116.072 38.1385 115.928 38.9653 115.787L38.9121 115.488ZM34.017 116.366C33.1893 116.521 32.3749 116.675 31.574 116.827L31.6331 117.125C32.4338 116.973 33.2478 116.819 34.075 116.665L34.017 116.366ZM29.1324 117.291C28.3021 117.448 27.488 117.601 26.6902 117.748L26.7475 118.046C27.546 117.9 28.3607 117.746 29.1913 117.589L29.1324 117.291ZM24.2453 118.186C23.4082 118.331 22.5913 118.466 21.7953 118.588L21.8434 118.888C22.6418 118.765 23.4606 118.63 24.2992 118.485L24.2453 118.186ZM19.338 118.932C18.4884 119.038 17.6662 119.123 16.8721 119.186L16.897 119.489C17.6966 119.426 18.5234 119.34 19.3769 119.234L19.338 118.932ZM14.3997 119.304C14.2871 119.306 14.1751 119.306 14.0639 119.306C13.3225 119.306 12.6117 119.277 11.9323 119.215L11.9034 119.517C12.5939 119.58 13.3142 119.609 14.0639 119.609C14.1763 119.609 14.2895 119.609 14.4033 119.608L14.3997 119.304ZM9.50797 118.814C8.68458 118.606 7.92241 118.326 7.22247 117.966L7.07825 118.235C7.80191 118.607 8.58702 118.895 9.43056 119.108L9.50797 118.814ZM5.24835 116.574C4.68589 116.042 4.18364 115.421 3.74284 114.698L3.47672 114.853C3.93053 115.598 4.45006 116.242 5.03306 116.793L5.24835 116.574ZM2.71316 112.517C2.42929 111.751 2.17177 110.982 1.94014 110.212L1.64278 110.298C1.87628 111.074 2.13573 111.849 2.42177 112.621L2.71316 112.517ZM1.31374 107.865C1.12891 107.072 0.970432 106.278 0.837605 105.484L0.53173 105.533C0.665487 106.333 0.825283 107.134 1.01158 107.932L1.31374 107.865ZM0.513285 103.078C0.430287 102.271 0.373095 101.464 0.340857 100.658L0.0311069 100.67C0.0635776 101.483 0.121311 102.296 0.204929 103.109L0.513285 103.078ZM0.318694 98.2312C0.336053 97.4227 0.3779 96.6158 0.443539 95.8096L0.134564 95.7853C0.0683831 96.5968 0.0262256 97.4106 0.00878906 98.2251L0.318694 98.2312ZM0.710821 93.4008C0.822957 92.6014 0.957956 91.8051 1.11519 91.011L0.810869 90.9534C0.652623 91.7527 0.516618 92.5544 0.403707 93.3591L0.710821 93.4008ZM1.65061 88.6479C1.85039 87.8644 2.07141 87.084 2.31297 86.3089L2.01647 86.2201C1.77336 87.0005 1.55095 87.7855 1.34993 88.5742L1.65061 88.6479ZM3.09474 84.005C3.3738 83.2451 3.6724 82.4905 3.98974 81.7405L3.70332 81.6243C3.38419 82.3781 3.08389 83.138 2.80313 83.9017L3.09474 84.005ZM4.99168 79.5192C5.34189 78.7882 5.70976 78.0624 6.09468 77.3435L5.82019 77.2023C5.43318 77.925 5.06321 78.6546 4.71107 79.3902L4.99168 79.5192ZM7.29315 75.2164C7.7069 74.5173 8.13669 73.8257 8.58182 73.1402L8.32028 72.977C7.87289 73.6655 7.44093 74.3616 7.02501 75.0638L7.29315 75.2164ZM9.95187 71.1224C10.4213 70.4597 10.9051 69.8053 11.4027 69.1585L11.1551 68.9756C10.6552 69.6254 10.169 70.2835 9.69722 70.9493L9.95187 71.1224ZM12.9303 67.2493C13.4511 66.623 13.9848 66.0058 14.5308 65.397L14.298 65.1966C13.7495 65.8084 13.2133 66.4286 12.6899 67.0572L12.9303 67.2493ZM16.201 63.6039C16.7685 63.0163 17.3476 62.4386 17.9376 61.8708L17.7203 61.6537C17.1277 62.2245 16.546 62.8053 15.9758 63.3951L16.201 63.6039ZM19.7379 60.1984C20.3482 59.6518 20.9687 59.1159 21.599 58.5905L21.3981 58.3598C20.7652 58.8866 20.1418 59.4256 19.5287 59.9745L19.7379 60.1984ZM23.5186 57.048C24.1683 56.5454 24.827 56.0535 25.4942 55.5737L25.3107 55.3293C24.6406 55.8106 23.9789 56.3048 23.3263 56.8104L23.5186 57.048ZM27.5235 54.1693C28.2095 53.7123 28.9034 53.2682 29.6045 52.8378L29.4397 52.5805C28.7354 53.0132 28.0384 53.4595 27.3493 53.9181L27.5235 54.1693ZM31.7348 51.5814C32.4541 51.1753 33.1802 50.7828 33.9122 50.404L33.7676 50.1353C33.0321 50.5156 32.3026 50.9104 31.5799 51.3188L31.7348 51.5814ZM36.1346 49.3093C36.8821 48.9586 37.635 48.6231 38.3928 48.3027L38.2701 48.0241C37.5086 48.346 36.7519 48.683 36.0007 49.0353L36.1346 49.3093H36.1346ZM40.6901 47.3864C41.464 47.0957 42.2421 46.8209 43.0238 46.5635L42.925 46.2758C42.1392 46.5347 41.357 46.8102 40.5791 47.1025L40.6901 47.3864ZM45.3909 45.8401C46.1872 45.6146 46.9864 45.4081 47.788 45.2191L47.7156 44.9238C46.9095 45.1136 46.1058 45.3216 45.305 45.5478L45.3909 45.8401H45.3909ZM50.2109 44.7067C51.0247 44.5541 51.8399 44.4212 52.6559 44.3081L52.6125 44.0075C51.7919 44.1214 50.9712 44.255 50.1528 44.4083L50.2109 44.7067ZM55.1234 44.0288C55.9487 43.9559 56.7741 43.9035 57.5994 43.8731L57.5878 43.5702C56.757 43.6006 55.9263 43.653 55.0955 43.7259L55.1234 44.0288ZM60.0769 43.8481C60.9038 43.8625 61.7291 43.8982 62.5521 43.9574L62.5746 43.6545C61.7462 43.5953 60.9146 43.5589 60.0823 43.5452L60.0769 43.8481ZM65.0165 44.2049C65.8341 44.3112 66.6493 44.4402 67.4607 44.5943L67.5196 44.296C66.702 44.1411 65.8806 44.0105 65.0568 43.9043L65.0165 44.2049ZM69.8762 45.1265C70.6729 45.3269 71.4657 45.5524 72.253 45.8021L72.3484 45.5136C71.5548 45.2616 70.7558 45.0346 69.953 44.8319L69.8762 45.1265ZM74.5818 46.6212C75.3459 46.9165 76.1038 47.2361 76.8563 47.5815L76.988 47.306C76.2301 46.9583 75.4652 46.6364 74.6957 46.3388L74.5818 46.6212ZM79.0649 48.6777C79.7841 49.0619 80.4963 49.471 81.2015 49.9045L81.3665 49.6471C80.6559 49.2106 79.9383 48.7984 79.2137 48.4113L79.0649 48.6777ZM83.259 51.255C83.9239 51.7204 84.5818 52.2092 85.232 52.7224L85.4265 52.4856C84.7717 51.9694 84.1091 51.4767 83.4388 51.0083L83.259 51.2558V51.255ZM87.1175 54.2961C87.5112 54.643 87.9017 54.9998 88.2884 55.3665C88.5008 55.5677 88.7139 55.7658 88.927 55.9617L89.1386 55.7408C88.927 55.5457 88.7154 55.3475 88.5039 55.1479C88.1141 54.7797 87.7212 54.4199 87.3252 54.0706L87.1175 54.2961ZM90.7737 57.5953C91.4092 58.1351 92.047 58.6543 92.6879 59.1546L92.8808 58.917C92.2438 58.4197 91.6091 57.9028 90.9768 57.3661L90.7737 57.5953ZM94.6671 60.6326C95.346 61.117 96.0272 61.5808 96.7107 62.0249L96.8819 61.7721C96.2023 61.3303 95.525 60.8687 94.85 60.3867L94.6671 60.6326ZM98.8147 63.3276C99.5338 63.7512 100.255 64.1535 100.978 64.5369L101.125 64.2697C100.406 63.8886 99.6896 63.4885 98.9743 63.0679L98.8147 63.3276ZM103.193 65.6498C103.946 66.0073 104.701 66.3459 105.457 66.6655L105.58 66.3861C104.828 66.0688 104.077 65.7325 103.328 65.3765L103.193 65.6498ZM107.765 67.5825C108.546 67.874 109.328 68.1473 110.11 68.4032L110.209 68.1155C109.43 67.8604 108.652 67.5886 107.875 67.2986L107.765 67.5825ZM112.488 69.1297C113.289 69.3574 114.091 69.5684 114.893 69.7651L114.968 69.4705C114.17 69.2747 113.372 69.0644 112.575 68.8374L112.488 69.1297ZM117.32 70.3147C118.135 70.4847 118.95 70.6411 119.764 70.7846L119.819 70.4855C119.008 70.3428 118.196 70.1871 117.384 70.0179L117.32 70.3147ZM122.221 71.1808C123.046 71.3016 123.868 71.4109 124.69 71.5103L124.728 71.2089C123.909 71.1095 123.089 71.0009 122.268 70.8802L122.221 71.1808ZM127.165 71.7813C127.993 71.8633 128.82 71.9362 129.645 72.0022L129.67 71.6993C128.847 71.6333 128.023 71.5604 127.196 71.4792L127.165 71.7813ZM132.128 72.1806C132.959 72.2345 133.788 72.2824 134.613 72.3264L134.629 72.0227C133.806 71.9795 132.978 71.9309 132.148 71.8777L132.128 72.1806ZM137.098 72.4479C137.931 72.4858 138.761 72.5215 139.584 72.5556L139.598 72.2528C138.774 72.2178 137.945 72.1822 137.113 72.145L137.098 72.4479ZM142.07 72.6597C142.904 72.6953 143.732 72.7318 144.554 72.7712L144.57 72.4676C143.746 72.4281 142.917 72.3917 142.084 72.3568L142.07 72.6597ZM147.036 72.9018C147.87 72.9496 148.696 73.0035 149.516 73.0643L149.539 72.7614C148.718 72.7006 147.89 72.6467 147.055 72.5982L147.036 72.9018ZM151.991 73.2723C152.821 73.352 153.644 73.4408 154.457 73.5425L154.496 73.2411C153.679 73.1394 152.854 73.0498 152.02 72.9701L151.991 73.2723ZM156.911 73.891C157.733 74.0231 158.545 74.1703 159.347 74.3358L159.41 74.039C158.604 73.8727 157.788 73.724 156.961 73.5911L156.911 73.891ZM161.754 74.8976C162.556 75.1071 163.345 75.3386 164.121 75.5945L164.22 75.3068C163.438 75.0487 162.642 74.8156 161.834 74.6038L161.754 74.8976ZM166.437 76.4478C167.195 76.7582 167.938 77.0968 168.667 77.4658L168.81 77.1955C168.073 76.8235 167.322 76.4812 166.557 76.1676L166.437 76.4478ZM170.805 78.6637C171.494 79.0895 172.167 79.5473 172.825 80.0407L173.014 79.7993C172.349 79.3006 171.668 78.8375 170.971 78.4063L170.805 78.6637ZM174.71 81.5909C175.304 82.1253 175.883 82.6939 176.448 83.299L176.676 83.094C176.107 82.4829 175.521 81.9082 174.92 81.367L174.71 81.5909ZM178.031 85.146C178.522 85.7692 178.999 86.4243 179.464 87.1136L179.722 86.9466C179.254 86.2513 178.772 85.5893 178.276 84.9607L178.031 85.146ZM180.752 89.1823C180.782 89.2354 180.812 89.2878 180.842 89.3409C181.241 90.0401 181.6 90.7666 181.915 91.5166L182.201 91.4012C181.882 90.6406 181.518 89.902 181.114 89.1922C181.083 89.139 181.052 89.0859 181.022 89.0335L180.752 89.1823Z" fill="#979899"/>
<path d="M0.00843481 100.731C-0.465796 123.605 19.1753 121.381 29.0551 117.41C90.112 100.135 130.422 141.237 166.582 120.388C202.742 99.5393 176.66 70.9465 142.278 72.7335C114.773 74.1632 94.0644 61.0185 87.1486 54.2674C40.3183 21.5048 0.601223 72.1379 0.00843481 100.731Z" fill="#D9D9D9" fill-opacity="0.3"/>
<path d="M158.255 119.093H89.5356C86.3361 119.093 83.7422 116.548 83.7422 113.409V16.7047C83.7422 13.5659 86.3361 11.0211 89.5356 11.0211H158.255C161.454 11.0211 164.048 13.5659 164.048 16.7047V113.409C164.048 116.548 161.454 119.093 158.255 119.093Z" fill="#FBC343"/>
<path d="M157.098 15.3766V109.571H91V15.3766H157.098Z" fill="#F6F5F5"/>
<path d="M157.098 15.3773C157.118 52.1077 158.327 96.4072 154.121 106.215C135.598 107.986 113.907 108.554 90.9995 108.66L99.7072 15.661L157.098 15.3773Z" fill="#E4E4E4"/>
<path d="M151.161 103.247C122.288 107.781 102.991 108.02 87.3398 106.88C89.3687 85.6985 90.1816 50.512 90.9992 15.3813L125.792 15.457L157.28 17.4963C157.738 53.9582 157.789 87.6384 151.161 103.247Z" fill="white"/>
<path d="M140.834 30.0624L106.063 29.2595L106.188 24.0638L140.959 24.8666L140.834 30.0624Z" fill="#F9D337"/>
<path d="M147.662 37.581L116.299 36.8569L116.242 39.2357L147.605 39.9598L147.662 37.581Z" fill="#F9D337"/>
<path d="M137.492 42.5351L116.174 42.0426L116.116 44.4207L137.435 44.9131L137.492 42.5351Z" fill="#957738" fill-opacity="0.6"/>
<path d="M106.24 44.0531L98.8149 43.8818L98.9895 36.5978L106.415 36.7691L106.24 44.0531Z" fill="white"/>
<path d="M106.241 44.0531L106.247 43.8237L99.0557 43.6578L99.2194 36.8326L106.177 36.9932L106.008 44.0477L106.241 44.0531L106.475 44.0584L106.656 36.5451L98.7634 36.3631L98.5771 44.1059L106.47 44.2878L106.475 44.0584L106.241 44.0531Z" fill="#F9D337"/>
<path d="M100.201 38.5139C100.43 39.3749 100.854 42.9817 102.695 41.9731C103.119 41.7407 103.479 41.1259 103.797 40.7719C104.367 40.1364 104.938 39.5003 105.509 38.8648C106.651 37.5932 107.793 36.3209 108.934 35.0493C109.227 34.7235 107.935 33.9061 107.567 34.3152C106.553 35.4454 105.538 36.5763 104.523 37.7064C104.016 38.2715 103.508 38.8366 103 39.4024C102.649 39.7947 101.834 41.0594 101.311 41.1718C101.596 41.262 101.88 41.3515 102.164 41.4417C102.365 41.603 101.992 40.4576 101.984 40.4262C101.842 39.8948 101.7 39.3626 101.558 38.8304C101.441 38.3915 100.028 37.8632 100.201 38.5139Z" fill="#957738"/>
<path d="M141.808 50.6962L115.981 50.0997L115.924 52.4785L141.751 53.075L141.808 50.6962Z" fill="#F9D337"/>
<path d="M147.22 56.0097L115.857 55.2856L115.8 57.6644L147.164 58.3885L147.22 56.0097Z" fill="#957738" fill-opacity="0.6"/>
<path d="M105.924 57.296L98.499 57.1247L98.6736 49.8408L106.098 50.012L105.924 57.296Z" fill="white"/>
<path d="M105.924 57.2959L105.929 57.0665L98.7383 56.9006L98.902 50.0754L105.859 50.236L105.69 57.2905L105.924 57.2959L106.158 57.3012L106.338 49.7879L98.4453 49.6059L98.2598 57.3487L106.152 57.5306L106.158 57.3012L105.924 57.2959Z" fill="#F9D337"/>
<path d="M99.8789 51.9625C100.108 52.8235 100.531 56.4303 102.372 55.4217C102.797 55.1893 103.156 54.5745 103.474 54.2205C104.045 53.585 104.616 52.9489 105.187 52.3134C106.329 51.0411 107.47 49.7695 108.612 48.4979C108.905 48.1722 107.612 47.3547 107.245 47.7638C106.23 48.894 105.216 50.0249 104.201 51.155C103.693 51.7201 103.186 52.2852 102.679 52.8502C102.326 53.2425 101.512 54.508 100.99 54.6204C101.273 54.7098 101.558 54.8001 101.842 54.8903C102.043 55.0516 101.669 53.9062 101.661 53.8748C101.52 53.3434 101.378 52.8112 101.237 52.279C101.119 51.8401 99.7059 51.3118 99.8789 51.9625Z" fill="#957738"/>
<path d="M147.027 64.0678L115.663 63.3437L115.606 65.7217L146.97 66.4458L147.027 64.0678Z" fill="#F9D337"/>
<path d="M129.565 68.8528L115.538 68.5286L115.481 70.9074L129.508 71.2308L129.565 68.8528Z" fill="#957738" fill-opacity="0.6"/>
<path d="M105.605 70.5387L98.1807 70.3674L98.3552 63.0834L105.78 63.2547L105.605 70.5387Z" fill="white"/>
<path d="M105.606 70.5386L105.611 70.3099L98.4205 70.1433L98.5841 63.3181L105.541 63.4786L105.372 70.5332L105.606 70.5386L105.84 70.5439L106.02 63.0306L98.1274 62.8486L97.9419 70.5913L105.834 70.7733L105.84 70.5439L105.606 70.5386Z" fill="#F9D337"/>
<path d="M99.6618 65.2994C99.8909 66.1604 100.314 69.7672 102.155 68.7586C102.58 68.5262 102.939 67.9114 103.256 67.5574C103.828 66.922 104.398 66.2858 104.97 65.6504C106.111 64.3788 107.253 63.1064 108.394 61.8348C108.687 61.5091 107.395 60.6917 107.028 61.1007C106.013 62.2309 104.998 63.3618 103.983 64.4919C103.475 65.057 102.968 65.6221 102.461 66.1879C102.108 66.5802 101.295 67.8449 100.772 67.9573C101.056 68.0475 101.34 68.137 101.624 68.2272C101.825 68.3885 101.452 67.2431 101.444 67.2118C101.302 66.6803 101.161 66.1481 101.019 65.616C100.902 65.177 99.4879 64.6487 99.6618 65.2994Z" fill="#957738"/>
<path d="M146.709 77.3103L115.346 76.5862L115.288 78.9642L146.652 79.6884L146.709 77.3103Z" fill="#F9D337"/>
<path d="M139.998 82.344L115.222 81.7713L115.165 84.1501L139.941 84.722L139.998 82.344Z" fill="#957738" fill-opacity="0.6"/>
<path d="M105.288 83.7822L97.8628 83.6102L98.0382 76.3262L105.463 76.4975L105.288 83.7822Z" fill="white"/>
<path d="M105.288 83.7821L105.294 83.5527L98.1021 83.386L98.2666 76.5608L105.224 76.7214L105.055 83.7767L105.288 83.7821L105.522 83.7875L105.702 76.2733L97.8098 76.0913L97.6235 83.8341L105.517 84.0168L105.522 83.7875L105.288 83.7821Z" fill="#F9D337"/>
<path d="M99.3463 78.4555C99.5755 79.3165 99.9987 82.9226 101.84 81.914C102.264 81.6815 102.624 81.0668 102.941 80.7135C103.512 80.0773 104.083 79.4419 104.654 78.8057C105.796 77.5341 106.937 76.2625 108.079 74.9909C108.372 74.6652 107.08 73.847 106.713 74.2569C105.698 75.387 104.682 76.5172 103.667 77.6481C103.16 78.2131 102.653 78.7782 102.145 79.3433C101.793 79.7355 100.979 81.001 100.456 81.1126C100.741 81.2029 101.024 81.2931 101.309 81.3826C101.509 81.5447 101.137 80.3992 101.128 80.3679C100.987 79.8357 100.845 79.3043 100.703 78.7721C100.586 78.3324 99.1725 77.804 99.3463 78.4555Z" fill="#957738"/>
<path d="M127.463 90.0155L115.031 89.7287L114.974 92.1068L127.406 92.3943L127.463 90.0155Z" fill="#F9D337"/>
<path d="M146.269 95.6389L114.906 94.9148L114.849 97.2928C126.983 97.5719 142.433 98.1301 145.586 97.6553C146.064 97.1215 146.322 96.4662 146.269 95.6389Z" fill="#957738" fill-opacity="0.6"/>
<path d="M105.076 96.9272L97.6514 96.756L97.826 89.4712L105.251 89.6433L105.076 96.9272Z" fill="white"/>
<path d="M105.076 96.9272L105.082 96.6978L97.8907 96.5319L98.0544 89.706L105.012 89.8665L104.842 96.9219L105.076 96.9272L105.31 96.9326L105.491 89.4192L97.5984 89.2365L97.4121 96.9792L105.304 97.162L105.31 96.9326L105.076 96.9272Z" fill="#F9D337"/>
<path d="M99.0333 91.4967C99.2625 92.3576 99.6857 95.9637 101.527 94.9551C101.951 94.7227 102.311 94.1079 102.628 93.7546C103.199 93.1185 103.77 92.4823 104.34 91.8469C105.482 90.5753 106.624 89.3037 107.766 88.0321C108.058 87.7056 106.767 86.8882 106.399 87.2972C105.384 88.4282 104.369 89.5583 103.354 90.6884C102.847 91.2543 102.34 91.8193 101.832 92.3844C101.48 92.7767 100.665 94.0414 100.143 94.1538C100.428 94.244 100.711 94.3342 100.996 94.4237C101.196 94.5858 100.824 93.4396 100.815 93.409C100.673 92.8768 100.531 92.3446 100.39 91.8132C100.273 91.3736 98.8595 90.8452 99.0333 91.4967Z" fill="#957738"/>
<path d="M138.782 11.6758V18.946H109.008V11.6758C109.008 10.5166 109.488 9.46755 110.261 8.70597C110.358 8.61116 110.458 8.52245 110.564 8.43987C111.302 7.83733 112.253 7.47642 113.288 7.47642C114.065 7.47642 114.81 7.30208 115.477 6.98705C115.767 6.84941 116.041 6.68731 116.3 6.50074C117.151 5.88291 117.803 5.0051 118.127 3.95907C118.457 2.89163 119.134 1.99853 120.01 1.37764C120.852 0.784281 121.878 0.441719 122.966 0.441719H124.824C125.912 0.441719 126.938 0.784281 127.779 1.37764C128.655 1.99853 129.332 2.89163 129.662 3.95907C129.987 5.0051 130.638 5.88291 131.489 6.50074C131.748 6.68731 132.022 6.84941 132.312 6.98705C132.98 7.30208 133.725 7.47642 134.501 7.47642C135.536 7.47642 136.487 7.83733 137.226 8.43987C138.177 9.20757 138.782 10.3729 138.782 11.6758Z" fill="#957738"/>
<path d="M141.198 15.3765V20.781H106.592V15.3765H109.008V18.9459H138.782V15.3765H141.198Z" fill="#E4E4E4"/>
<path d="M126.536 4.79942C126.536 6.15972 125.354 7.26233 123.895 7.26233C122.436 7.26233 121.254 6.15972 121.254 4.79942C121.254 3.43989 122.436 2.33728 123.895 2.33728C125.354 2.33728 126.536 3.43989 126.536 4.79942Z" fill="white"/>
<path d="M66.8347 38.8366C65.7786 38.6401 64.7918 36.9097 64.4489 36.246C64.3647 36.0831 64.3382 35.8988 64.3725 35.7192L64.7934 33.5338C64.7934 33.5338 65.763 33.6952 65.6881 34.9622C65.6804 35.0937 65.7076 35.2252 65.7552 35.3483L66.127 36.301L67.2244 35.4676L66.6227 33.7999C66.6227 33.7999 65.8168 34.0171 65.4005 33.8871C64.5471 33.6194 65.6663 32.9664 66.0202 32.8969C66.3748 32.8273 67.1535 32.5497 67.5073 33.14C67.8619 33.7303 68.0739 34.0782 68.0739 34.0782C68.0739 34.0782 68.4637 32.7577 68.1979 29.8054C68.1862 29.6724 68.5252 29.6754 68.6203 29.771C68.9056 30.0555 69.36 30.9218 69.3841 33.5568C69.3841 33.5568 69.4317 30.4859 69.9679 30.1702C70.4106 29.9094 70.6343 31.4127 70.3226 33.9612C70.3226 33.9612 70.9001 31.7545 71.314 31.7507C72.0116 31.7438 71.3226 37.6445 69.5689 39.4032L66.8347 38.8366Z" fill="#F9B384"/>
<path d="M70.146 37.9335C70.1148 38.2271 70.0805 38.5115 70.0431 38.7868V38.7899C69.9184 39.7686 69.7625 40.6434 69.5817 41.3927C69.5723 41.4294 69.5661 41.4631 69.5568 41.4967C69.0236 43.6408 68.927 44.6898 67.1063 44.4085L65.2325 42.3164L65.2138 42.295L65.0767 42.1421L65.457 41.041L65.5069 40.8972L65.7875 40.0959L65.8218 39.9919L66.3019 38.6125L66.4952 38.0528L70.146 37.9335Z" fill="#F9B384"/>
<path d="M35.3357 114.112L34.8586 115.575C31.5884 116.628 29.6809 117.836 29.5586 119.245H39.0156L39.7736 114.348C37.8583 114.807 36.3235 114.488 35.3357 114.112Z" fill="#543E12"/>
<path d="M36.5222 110.477L35.3364 114.112C36.3242 114.488 37.859 114.807 39.7743 114.348L40.2634 111.19L36.5222 110.477Z" fill="#F9B384"/>
<path d="M52.6899 113.95L52.9674 110.247L48.5249 110.477L48.2822 113.89C50.163 114.478 51.718 114.248 52.6899 113.95Z" fill="#F9B384"/>
<path d="M58.0336 119.245C57.9112 117.836 56.2409 115.906 52.5776 115.447L52.6899 113.95C51.7179 114.248 50.163 114.478 48.2822 113.89L47.9014 119.245H58.0336Z" fill="#543E12"/>
<path d="M49.0897 39.7872L43.7305 39.8239V31.8716H48.9276L48.9307 32.3579L48.9557 34.8782L48.9931 38.9246L49.0897 39.7872Z" fill="#F9B384"/>
<path d="M48.9547 35.2604C47.9913 36.2544 45.4785 35.1319 44.4185 34.037L48.9297 32.7401L48.9547 35.2604Z" fill="#E28B6D"/>
<path d="M50.1993 30.0364C50.1962 30.6236 50.1588 31.2384 50.059 31.8257C49.7971 33.4283 49.1052 34.8139 47.509 34.8567C43.7366 34.9637 42.6609 32.8472 41.9502 31.1161C41.2393 29.3819 42.3929 25.213 42.3929 25.213L47.2752 24.739L49.9561 26.8952C49.9561 26.8952 50.2149 28.3603 50.1993 30.0364Z" fill="#F9B384"/>
<path d="M42.1026 30.1244C42.1026 30.1244 43.1788 30.0762 43.3628 27.351C45.2872 27.9826 46.6935 27.4069 47.8078 26.149C48.7585 27.3809 51.4202 27.767 52.3189 25.2444C52.9682 23.4223 51.1755 20.7078 48.5647 22.3518C46.0058 21.0833 42.1245 21.1704 41.0076 24.2818C41.0076 24.2818 37.1248 26.0381 41.2361 29.9049C41.3185 29.9822 42.1026 30.1244 42.1026 30.1244Z" fill="#957738"/>
<path d="M56.9437 68.3678L53.9812 112.312H47.0186L48.7593 69.67L49.8245 69.186L56.9437 68.3678Z" fill="#957738"/>
<path d="M38.8082 62.3554L33.9238 112.312H41.5102L48.7328 70.817L56.9424 68.3701L57.3064 59.5003L39.0161 59.0927L38.8082 62.3554Z" fill="#543E12"/>
<path d="M55.3921 59.4575H55.3877L55.3833 59.44L55.3921 59.4575Z" fill="#6C758D"/>
<path d="M44.6587 63.011C44.7575 62.5637 44.8495 62.1171 44.9347 61.6736C45.0228 61.6744 45.1106 61.6752 45.1984 61.6752C45.5744 61.6752 45.9492 61.6652 46.3215 61.6469C47.5125 61.5918 48.6816 61.445 49.8037 61.2278C51.6837 60.87 53.4483 60.3286 54.9977 59.7108C55.138 59.6588 55.2752 59.6007 55.4093 59.5456L55.3882 59.4577H55.3921L55.7818 60.2239C54.3563 61.6591 49.09 62.9123 44.6587 63.011Z" fill="#162B62"/>
<path d="M55.4087 59.5453C55.2746 59.6004 55.1375 59.6585 54.9972 59.7105C53.4477 60.3283 51.6831 60.8697 49.8031 61.2276C48.681 61.4447 47.5119 61.5915 46.3209 61.6466C44.5251 61.7353 42.6795 61.6191 40.8525 61.2123L43.1751 39.9675L43.4589 37.3769C43.4589 37.3769 46.4986 41.0471 49.8499 36.9945L55.4087 59.5453Z" fill="white"/>
<path d="M45.1976 61.675C45.1097 61.675 45.0219 61.6743 44.9338 61.6735C46.3819 54.125 45.8931 47.0582 44.5327 40.1825C46.3852 45.5189 47.9929 55.1182 46.3206 61.6468C45.9483 61.6651 45.5735 61.675 45.1976 61.675Z" fill="#BBC4DB"/>
<path d="M43.732 36.5358C46.0413 46.155 46.9915 56.0533 43.589 67.045C41.0659 67.9863 38.3188 67.9756 35.3792 67.1467L36.1066 47.1644L18.9855 58.7104L17.9463 52.4152C24.5278 46.2407 35.9071 36.9143 43.732 36.5358Z" fill="#F9D337"/>
<path d="M49.8033 61.2275C48.7715 55.4224 48.544 45.8858 49.3824 41.5824L54.9973 59.7105C53.4478 60.3283 51.6832 60.8697 49.8033 61.2275Z" fill="#BBC4DB"/>
<path d="M67.6337 44.4536C67.4762 44.4536 67.3016 44.4383 67.1068 44.4085L65.2331 42.3164L65.2144 42.295L65.4575 41.041L65.5074 40.8973L65.788 40.0959L65.8223 39.9919L69.5822 41.3928C69.5729 41.4295 69.5666 41.4631 69.5573 41.4967C69.081 43.4114 68.9532 44.4536 67.6337 44.4536Z" fill="#EB9B76"/>
<path d="M69.2576 43.3412C69.2576 43.3412 64.6591 52.8992 61.9311 53.1286C59.2866 53.3511 58.034 50.8346 58.034 50.8346L59.9046 64.8031C57.7067 65.8124 55.3092 66.3049 52.5251 65.8216C50.0528 57.9458 49.1185 47.7623 48.9346 36.4211C50.9359 36.5435 54.9 36.7109 56.3193 37.6063C58.8657 39.2121 62.0091 44.9469 62.0091 44.9469L65.6723 40.0532L69.2576 43.3412Z" fill="#F9D337"/>
<path d="M13.1973 29.8734C13.1973 29.8734 13.4756 25.3016 13.9499 25.5172C14.4243 25.7329 15.3756 29.7082 15.3756 29.7082L14.3584 31.3193L13.1973 29.8734Z" fill="#6F3428"/>
<path d="M27.1922 112.439L27.33 113.944C27.5732 116.601 25.5752 118.948 22.8674 119.187L22.4731 119.221C19.7654 119.46 17.3728 117.5 17.1295 114.843L16.9917 113.339L27.1922 112.439Z" fill="#EE6F57"/>
<path d="M20.5188 39.5722L27.192 112.44L16.9915 113.339L10.3184 40.4707L20.5188 39.5722Z" fill="#FBC343"/>
<path d="M13.296 40.2083L13.1343 38.4427L17.378 38.0688L17.5397 39.8343L16.9187 39.8894L16.8127 38.7325L13.8111 38.9971L13.917 40.154L13.296 40.2083Z" fill="#D4C2BE"/>
<path d="M19.0387 102.923L13.2954 40.2082L13.9165 40.1539L19.604 102.258L22.6056 101.994L16.9181 39.8894L17.5391 39.8343L23.2546 102.244L23.2825 102.549L19.0387 102.923Z" fill="#D1983B"/>
<path d="M27.1903 112.44L16.9924 113.339L16.7243 110.403L16.5372 108.363L15.9604 102.093L26.1615 101.194L26.7351 107.464L26.9222 109.504L27.1903 112.44Z" fill="#957738"/>
<path d="M26.923 109.504L16.7251 110.403L16.5381 108.363L26.736 107.464L26.923 109.504Z" fill="#FBC343"/>
<path d="M10.3169 40.4716L13.1503 29.3307C13.1503 29.3307 14.1283 29.7566 15.3146 29.0379L20.5181 39.5723L10.3169 40.4716Z" fill="#EE6F57"/>
<path d="M42.6672 29.6633C42.6215 29.4989 41.8603 29.2733 41.6925 29.2282C41.4334 29.1578 41.1504 29.1234 40.8975 29.2351C39.9769 29.6434 40.0999 30.9364 40.5769 31.6161C40.8471 32.0008 41.2426 32.2974 41.7027 32.4267C41.8699 32.4733 43.4535 32.4924 43.3841 32.2424L42.6672 29.6633Z" fill="#F9B384"/>
<path d="M13.6846 55.6519C13.4453 54.9148 12.6582 54.5019 11.9132 54.7542C10.7527 55.1472 9.74207 55.814 9.58549 56.9487C9.44301 57.9818 9.96966 61.2812 12.322 61.7056L12.13 60.0096C12.13 60.0096 13.5703 59.68 13.8583 59.0676C14.0599 58.6394 14.0734 56.8493 13.6846 55.6519Z" fill="#F9B384"/>
<path d="M57.3156 44.3031C57.4396 45.025 57.5448 45.7491 57.6453 46.474C57.7505 47.1981 57.8332 47.9253 57.9283 48.6509L58.1699 50.8316C58.24 51.5603 58.3094 52.2883 58.3546 53.0201L58.2338 53.0338C58.106 52.312 58.0023 51.5871 57.8994 50.863L57.6212 48.6861C57.5432 47.9581 57.4528 47.2325 57.3842 46.5038C57.3117 45.7758 57.2439 45.0471 57.1948 44.3169L57.3156 44.3031Z" fill="#543E12"/>
<path d="M36.3493 44.1853C36.3476 44.9958 36.3274 45.8063 36.303 46.6161C36.2821 47.4258 36.2395 48.2356 36.2089 49.0446L36.0737 51.4716C36.0185 52.2805 35.9618 53.0888 35.8817 53.8962L35.7599 53.8901C35.7577 53.0796 35.779 52.2691 35.8016 51.4593L35.9003 49.0308C35.9476 48.2218 35.983 47.4121 36.0401 46.6039C36.0935 45.7956 36.1513 44.9866 36.2276 44.1792L36.3493 44.1853Z" fill="#543E12"/>
<path d="M46.4499 29.5874C46.5158 29.8757 46.3946 30.1479 46.1794 30.1953C45.9641 30.2427 45.7362 30.047 45.6703 29.7587C45.6044 29.4704 45.7255 29.1982 45.9408 29.1508C46.1561 29.1034 46.384 29.2992 46.4499 29.5874Z" fill="#957738"/>
<path d="M49.5578 29.2312C49.5446 29.5264 49.356 29.7581 49.1355 29.7489C48.915 29.7397 48.7468 29.4935 48.7595 29.1976C48.7722 28.9024 48.9613 28.6707 49.1814 28.6799C49.4019 28.6891 49.5703 28.9353 49.5578 29.2312Z" fill="#957738"/>
<path d="M47.8251 29.4729C47.932 29.726 47.9151 29.9982 47.9841 30.2054C48.0193 30.3102 48.0678 30.4027 48.1351 30.46C48.1976 30.5159 48.299 30.5518 48.4276 30.6007C48.5601 30.6512 48.7009 30.7407 48.797 30.8745C48.899 31.0037 48.927 31.2277 48.8348 31.3746C48.7518 31.5214 48.6326 31.6024 48.5302 31.6766C48.4232 31.7477 48.3203 31.8226 48.2091 31.8892L48.1291 31.7989C48.2108 31.7003 48.3009 31.6101 48.3868 31.516C48.4754 31.4258 48.5567 31.3386 48.5881 31.2583C48.6541 31.1169 48.5128 30.9616 48.3081 30.8821C48.2027 30.8347 48.0507 30.7934 47.9281 30.6703C47.8099 30.5518 47.7515 30.4042 47.7281 30.2658C47.6765 29.9821 47.7355 29.7398 47.7075 29.5042L47.8251 29.4729Z" fill="#E28B6D"/>
<path d="M44.9624 28.8129C45.0084 28.6317 45.1211 28.4597 45.2806 28.3366C45.4376 28.2081 45.6426 28.1393 45.8458 28.1286C46.2552 28.1041 46.6605 28.3327 46.8288 28.6707L46.7333 28.7449C46.4626 28.5361 46.1645 28.4222 45.8608 28.4329C45.5562 28.4406 45.2796 28.5942 45.0728 28.8634L44.9624 28.8129Z" fill="#957738"/>
<path d="M48.1802 28.4383C48.2262 28.2969 48.3073 28.1623 48.4249 28.0522C48.54 27.939 48.7005 27.8641 48.8674 27.8373C49.2021 27.783 49.5622 27.9497 49.6939 28.2418L49.5965 28.3137C49.3774 28.1692 49.1386 28.108 48.9132 28.1386C48.8004 28.1531 48.6933 28.1944 48.5876 28.2556C48.4836 28.3191 48.3888 28.4055 48.2852 28.4995L48.1802 28.4383Z" fill="#957738"/>
<path d="M46.4551 32.4349C46.9994 33.2706 47.7248 33.3616 48.2849 32.4823L46.4551 32.4349Z" fill="white"/>
<path d="M50.171 30.8528C50.1889 30.5783 50.1974 30.3046 50.199 30.0362C50.1997 29.9689 50.1997 29.9016 50.1997 29.8343C50.2044 29.8335 50.2091 29.8328 50.2137 29.832C50.2122 30.1325 50.1974 30.4934 50.171 30.8528Z" fill="#FECFC9"/>
<path d="M50.0588 31.8254C49.6816 31.7062 49.4072 31.3605 49.4072 30.9476C49.4072 30.4904 49.7603 29.9146 50.1999 29.8343C50.1999 29.9016 50.1999 29.9689 50.1991 30.0362C50.1976 30.3046 50.189 30.5783 50.1711 30.8528C50.1453 31.1931 50.1087 31.5311 50.0604 31.8163C50.0604 31.8193 50.0596 31.8224 50.0588 31.8254Z" fill="#FAA280"/>
<path d="M45.1269 32.4801C44.5717 32.4801 44.1216 32.0389 44.1216 31.4945C44.1216 30.9493 44.5717 30.5081 45.1269 30.5081C45.6822 30.5081 46.1324 30.9493 46.1324 31.4945C46.1324 32.0389 45.6822 32.4801 45.1269 32.4801Z" fill="#FAA280"/>
<path d="M42.0077 30.6456C41.8091 30.5133 41.6269 30.3688 41.4456 30.2824C41.3557 30.2396 41.2722 30.2136 41.1976 30.2197C41.1224 30.2251 41.0357 30.2679 40.9383 30.336L40.8359 30.271C40.8784 30.1494 40.9679 30.0125 41.1321 29.959C41.2953 29.9032 41.4608 29.9483 41.5832 30.0102C41.8315 30.1433 42.0014 30.339 42.1048 30.5738L42.0077 30.6456Z" fill="#E28B6D"/>
<path d="M12.4114 63.381L12.2671 61.7485L12.4151 63.3703L12.4114 63.381Z" fill="#A9857E"/>
<path d="M12.4155 63.37L12.267 61.7482L12.2622 61.6939C12.2821 61.6977 12.3022 61.7015 12.3224 61.7054L12.1304 60.0094C12.1304 60.0094 12.181 59.9979 12.2651 59.975C12.5046 59.9161 12.713 59.845 12.8967 59.7639C13.29 59.6049 13.7159 59.3709 13.8587 59.0674L12.4155 63.37Z" fill="#A76D33"/>
<path d="M12.3222 61.7056C12.302 61.7017 12.2819 61.6979 12.262 61.6941L12.1128 60.0104C12.1648 59.9989 12.2155 59.9874 12.2649 59.9752C12.1808 59.9981 12.1302 60.0096 12.1302 60.0096L12.3222 61.7056ZM12.8965 59.7641C13.329 59.5737 13.6234 59.3306 13.8585 59.0676C13.7157 59.3711 13.2898 59.6051 12.8965 59.7641Z" fill="#A6674D"/>
</svg>
