<svg width="189" height="123" viewBox="0 0 189 123" fill="none" xmlns="http://www.w3.org/2000/svg">
<path d="M188.991 80.9597C189.478 112.037 169.304 109.015 159.155 103.62C96.4393 80.1505 55.0338 135.992 17.8911 107.667C-19.2516 79.3411 7.53986 40.4947 42.8559 42.9226C71.1087 44.8649 92.3795 27.0064 99.4833 17.8344C147.586 -26.6771 188.382 42.1134 188.991 80.9597Z" fill="#F0EEEE"/>
<path d="M173.916 58.8951C173.916 58.8951 170.599 61.9138 169.228 62.8597L169.224 62.8636C168.867 63.1097 168.643 63.2157 168.643 63.0905C168.643 62.9504 168.601 62.7689 168.54 62.5722C168.328 61.933 167.879 61.142 167.879 61.142C167.879 61.142 168.099 60.745 168.578 60.2873C168.992 59.8785 169.604 59.4248 170.44 59.1333C171.017 58.9326 171.583 58.8345 172.085 58.7965C173.141 58.7171 173.916 58.8951 173.916 58.8951Z" fill="#F78D62"/>
<path d="M169.051 62.0103C168.888 61.796 168.728 61.6045 168.56 61.4527C168.326 61.2389 168.092 61.1551 167.88 61.1416C167.889 61.1263 168.11 60.7358 168.579 60.2873C168.72 60.4313 168.948 60.5561 169.32 60.5936C169.374 60.5984 169.427 60.601 169.48 60.601C170.248 60.601 170.909 60.0779 172.086 58.7965C172.279 58.7821 172.463 58.7765 172.633 58.7765C172.825 58.7765 173.001 58.7839 173.157 58.7948C172.894 58.889 172.618 59.0046 172.318 59.1334C171.248 59.5958 169.76 61.1983 169.051 62.0103Z" fill="#F4674D"/>
<path d="M174.77 61.615C173.034 63.3933 170.318 65.3645 170.166 64.9749C170.064 64.7175 169.786 64.2445 169.494 63.783C169.308 63.488 169.117 63.1931 168.962 62.9623C168.776 62.6822 168.643 62.4894 168.643 62.4894C168.643 62.4894 170.865 59.7612 172.317 59.1334C172.749 58.948 173.133 58.7892 173.498 58.6832C174.364 58.4297 175.105 58.4751 176.036 59.1334C176.541 59.4929 175.842 60.5182 174.77 61.615Z" fill="#F78D62"/>
<path d="M170.149 63.5006C169.89 63.1895 169.651 62.8457 169.418 62.5172C169.444 62.4976 169.47 62.4779 169.497 62.4592C170.165 61.9745 171.814 60.5749 172.912 59.8484C173.691 59.3301 174.01 59.0579 173.498 58.6831C173.807 58.5928 174.1 58.5404 174.392 58.5404C174.917 58.5404 175.436 58.7101 176.035 59.1329C175.9 59.1918 175.757 59.2608 175.606 59.3375C175.541 59.3681 175.477 59.4021 175.412 59.4361C175.04 59.6364 174.614 59.8825 174.113 60.1586C172.969 60.7904 171.606 62.0465 170.713 62.9282C170.603 63.0377 170.504 63.1398 170.409 63.2345C170.356 63.2912 170.303 63.3444 170.253 63.3933C170.217 63.4308 170.182 63.4666 170.149 63.5006Z" fill="#F4674D"/>
<path d="M178.077 60.4841C178.069 60.9304 177.986 61.324 177.963 61.426V61.43L177.959 61.4527C177.959 61.4527 177.48 61.9256 176.812 62.5573L176.804 62.5608C176.113 63.1023 175.341 63.6886 174.582 64.4186C172.823 66.1135 171.877 66.1777 170.52 65.6559C170.478 65.6406 170.441 65.6218 170.403 65.6031C170.076 64.7061 169.757 63.9194 169.757 63.9194C169.757 63.9194 169.943 63.7113 170.255 63.3933C170.304 63.3444 170.357 63.2912 170.411 63.2345C170.506 63.1398 170.604 63.0377 170.715 62.9282C171.607 62.0464 172.971 60.7904 174.114 60.1586C174.616 59.8825 175.041 59.6364 175.414 59.4361C175.479 59.4021 175.543 59.3681 175.607 59.3375C176.105 59.0841 176.508 58.9218 176.85 58.8986C177.131 58.8799 177.378 58.9518 177.617 59.1333C177.993 59.4209 178.084 59.9845 178.077 60.4841Z" fill="#F78D62"/>
<path d="M171.762 64.8727C171.74 64.8727 171.722 64.8666 171.708 64.8535H171.705C171.518 64.6572 171.298 64.4717 171.036 64.3129C170.711 64.1153 170.419 63.826 170.149 63.5006C170.182 63.4665 170.217 63.4307 170.253 63.3932C170.443 63.4578 170.686 63.5032 170.994 63.5032C172.008 63.5032 173.566 61.6114 174.85 60.6315C175.621 60.0451 175.712 59.7197 175.412 59.4361C175.477 59.4021 175.542 59.368 175.606 59.3375C176.104 59.084 176.506 58.9217 176.848 58.8986C177.107 58.906 177.342 58.9858 177.567 59.1521C177.954 59.44 178.068 59.9771 178.076 60.484C178.075 60.5076 178.074 60.5316 178.073 60.5552C178.035 60.5495 177.994 60.5469 177.951 60.5469C177.811 60.5469 177.646 60.5752 177.464 60.6276C176.685 60.851 175.576 61.5093 174.717 62.2506C173.582 63.2274 172.124 64.8727 171.762 64.8727Z" fill="#F4674D"/>
<path d="M178.984 62.2506C178.897 62.8675 178.129 62.8522 176.933 63.9194C175.736 64.9861 174.881 66.0681 173.943 67.2487C173.001 68.4289 171.804 68.0659 171.804 68.0659L170.44 66.7758C170.44 66.7758 170.603 66.439 170.816 66.0454C171.131 65.4512 171.561 64.7326 171.705 64.8535H171.709C171.944 65.0769 173.513 63.2876 174.718 62.2506C175.576 61.5093 176.686 60.851 177.465 60.6276C177.78 60.5368 178.042 60.5181 178.213 60.5935C178.813 60.8549 179.068 61.6341 178.984 62.2506Z" fill="#F78D62"/>
<path d="M171.804 68.0658C170.949 68.3267 168.901 67.3848 168.218 67.2486C167.534 67.1086 166.592 66.8477 166.079 67.7177C165.57 68.5876 164.969 69.4427 164.969 69.4427L160.749 64.3129C160.749 64.3129 160.399 63.2344 160.981 62.2658C161.076 62.107 161.193 61.9556 161.341 61.8081C162.405 60.7676 162.747 59.5495 162.747 58.5054C162.747 57.4649 161.501 57.3021 161.695 56.2088C161.706 56.1481 161.717 56.0914 161.729 56.0347C161.961 55.1002 162.549 54.9566 163.518 55.1189C164.54 55.293 165.995 57.3855 166.079 57.7297C166.166 58.0739 165.395 58.9517 166.079 59.6856C166.763 60.4194 167.021 61.4526 167.021 61.4526C167.021 61.4526 167.788 60.7488 168.559 61.4526C168.731 61.6074 168.894 61.8042 169.061 62.0236C169.646 62.792 170.239 63.8286 171.036 64.3129C171.298 64.4717 171.519 64.6571 171.705 64.8534H171.709C172.154 65.3115 172.412 65.8486 172.564 66.3176C172.602 66.435 172.632 66.5488 172.659 66.6544C172.83 67.3695 172.659 67.8045 171.804 68.0658Z" fill="#F78D62"/>
<path d="M164.372 64.2223C164.372 64.2223 166.872 62.8868 165.349 62.6403C164.585 62.5195 164.022 62.4894 163.648 62.4894C163.275 62.4894 163.092 62.5195 163.092 62.5195C163.092 62.5195 164.92 61.9745 165.045 61.0025C165.167 60.03 164.555 60.2119 164.19 59.3001C163.822 58.3882 164.433 57.6012 163.579 56.5685C163.223 56.14 162.734 55.9097 162.277 55.9097C162.085 55.9097 161.898 55.9507 161.729 56.0349C161.908 55.3111 162.302 55.0615 162.921 55.0615C163.101 55.0615 163.3 55.0825 163.518 55.1191C164.54 55.2932 165.995 57.3856 166.078 57.7299C166.083 57.7486 166.085 57.7691 166.085 57.7909C166.085 58.0444 165.793 58.4969 165.793 58.9764C165.793 59.2133 165.865 59.4563 166.078 59.6858C166.762 60.4196 167.02 61.4527 167.02 61.4527C167.02 61.4527 167.362 61.1399 167.818 61.1399C168.046 61.1399 168.302 61.218 168.559 61.4527C168.73 61.6076 168.894 61.8044 169.061 62.0238C169.076 62.1486 169.099 62.2738 169.129 62.3986C169.497 63.9797 169.437 63.5522 167.423 63.8589C165.41 64.1612 164.372 64.2223 164.372 64.2223Z" fill="#F4674D"/>
<path d="M172.244 68.1183C171.977 68.1183 171.804 68.0659 171.804 68.0659C172.658 67.8046 172.829 67.3696 172.658 66.6545C172.632 66.549 172.601 66.4351 172.563 66.3177C172.731 66.295 172.906 66.2422 173.096 66.1668C174.133 65.7392 174.379 64.2824 176.454 62.5194C177.62 61.5281 177.803 60.9418 177.464 60.6276C177.647 60.5753 177.811 60.5469 177.951 60.5469C178.052 60.5469 178.141 60.5617 178.213 60.5936C178.738 60.8222 178.998 61.4474 179 62.0133C179 62.094 178.994 62.1738 178.984 62.2506C178.897 62.8675 178.129 62.8523 176.933 63.9194C175.736 64.9862 174.881 66.0682 173.943 67.2488C173.359 67.9791 172.679 68.1183 172.244 68.1183Z" fill="#F4674D"/>
<path d="M165.777 68.2169C165.288 67.4124 164.49 66.4438 163.191 65.446C163.161 65.4234 163.131 65.4002 163.101 65.3775C162.806 65.1542 162.526 64.9539 162.262 64.775C161.645 64.3558 161.112 64.0504 160.659 63.8292C160.65 63.741 160.645 63.6437 160.645 63.5395C160.645 63.166 160.717 62.7048 160.981 62.2659C160.982 62.2659 160.983 62.2659 160.985 62.2659C161.431 62.2659 161.177 63.4631 162.117 63.9797C163.336 64.6459 163.639 63.9797 163.639 64.6459C163.639 65.3152 164.373 66.2876 165.41 66.3483C165.441 66.35 165.474 66.3509 165.507 66.3509C165.944 66.3509 166.498 66.193 167.111 66.0355C167.723 65.878 168.395 65.7205 169.069 65.7205C169.334 65.7205 169.6 65.7449 169.863 65.8034C170.227 65.8828 170.543 65.9661 170.816 66.0455C171.407 66.21 171.827 66.3426 172.252 66.3426C172.355 66.3426 172.458 66.3348 172.564 66.3177C172.602 66.4351 172.632 66.549 172.659 66.6546C172.83 67.3696 172.659 67.8046 171.804 68.066C171.701 68.0974 171.58 68.1113 171.447 68.1113C170.475 68.1113 168.819 67.3683 168.218 67.2488C167.914 67.1864 167.558 67.1 167.213 67.1C166.781 67.1 166.364 67.2344 166.079 67.7178C165.98 67.8866 165.877 68.0555 165.777 68.2169Z" fill="#F4674D"/>
<path d="M96.2894 44.4444C96.101 46.892 96.285 50.7749 94.9094 51.5603C93.5293 52.3456 86.6292 51.5603 86.6292 51.5603C86.6292 51.5603 86.2173 50.9189 85.9413 49.8195C85.7486 49.056 85.6215 48.0612 85.7442 46.9094C85.7573 46.7916 85.7661 46.6826 85.7792 46.5735C86.0552 44.0692 86.283 43.6722 87.4177 42.9217C88.6006 42.1408 91.26 41.3947 93.4286 41.3729C95.5972 41.3555 96.4822 41.9968 96.2894 44.4444Z" fill="#F78D62"/>
<path d="M86.0404 50.1793C86.0062 50.0654 85.9724 49.9455 85.9409 49.8194C86.1205 49.7059 86.3045 49.5925 86.4842 49.4704C87.54 48.7723 90.2125 48.4887 90.2125 48.4887C90.2125 48.4887 90.1967 48.6484 90.3636 48.6484C90.5463 48.6484 90.9489 48.4564 91.8334 47.651C93.5202 46.1066 94.2255 45.8971 93.2398 45.8971C92.254 45.8971 91.9035 44.9853 91.9035 44.9853C91.9035 44.9853 91.6232 45.6179 90.5673 46.0368C90.3229 46.1345 90.0933 46.1724 89.8852 46.1724C89.1939 46.1724 88.736 45.7575 88.736 45.7575C88.736 45.7575 88.0741 46.5795 86.0776 46.5795C85.9812 46.5795 85.8818 46.5773 85.7788 46.5734C85.8174 46.2222 85.8555 45.9124 85.8949 45.6371C85.993 45.6716 86.124 45.6899 86.2717 45.6899C86.7571 45.6899 87.4278 45.4896 87.7459 44.9853C87.8322 44.8474 87.876 44.7104 87.8896 44.5791C87.9321 44.6345 87.9777 44.6764 88.0263 44.7017C88.3417 44.8684 88.7343 44.9526 89.1058 44.9526C89.7257 44.9526 90.2869 44.7183 90.3307 44.2436C90.3307 44.2436 90.3658 43.9199 90.4065 43.4186C90.4311 43.4858 90.4569 43.5473 90.4841 43.6023C90.5498 43.7462 90.6287 43.8466 90.7163 43.8946C91.0532 44.083 91.4733 44.1782 91.8711 44.1782C92.212 44.1782 92.5362 44.1084 92.7776 43.9661C92.9844 44.4404 93.3738 44.6079 93.8198 44.6079C94.112 44.6079 94.4288 44.5359 94.7337 44.4312C95.5398 44.1607 96.2627 43.659 96.2627 43.659C96.2627 43.659 96.268 43.5015 96.2789 43.2227C96.303 43.409 96.3148 43.6127 96.3148 43.8352C96.3148 44.0246 96.3061 44.2275 96.289 44.4443C96.2461 45.0027 96.2224 45.6362 96.1952 46.2902C96.1409 46.3378 96.087 46.3775 96.0349 46.4076C95.2901 46.8395 94.8564 46.9617 94.0459 47.3369C93.2354 47.7077 92.8148 48.1789 92.6001 48.5934C92.4047 48.9634 92.3763 49.2858 92.3763 49.4429C92.3763 49.5079 92.3811 49.5445 92.3811 49.5445C91.7761 49.4328 91.1031 49.3639 90.3623 49.3639C90.2528 49.3639 90.141 49.3656 90.028 49.3687C90.0276 49.3687 90.0267 49.3687 90.0263 49.3687C90.0219 49.3687 90.0175 49.3687 90.0131 49.3691C90.0017 49.3691 89.9908 49.3696 89.9798 49.37C88.0609 49.4302 86.8197 49.7997 86.0404 50.1793ZM87.5733 43.6926C87.4563 43.546 87.3516 43.4583 87.3516 43.4583C87.3516 43.4583 87.3963 43.2349 87.4305 42.9129C87.4397 42.9068 87.4484 42.9011 87.4576 42.8955C87.4874 43.183 87.5255 43.4526 87.5733 43.6926Z" fill="#F4674D"/>
<path d="M97.0393 33.9822C96.4698 37.4289 96.2639 43.6591 96.2639 43.6591C96.2639 43.6591 95.541 44.1608 94.7349 44.4313C93.9069 44.7149 92.9956 44.7585 92.7108 43.7769C92.264 42.2412 93.3767 36.0284 94.1697 33.21C94.3756 32.4857 94.5596 31.9884 94.6911 31.8488C95.3745 31.1332 97.6132 30.5312 97.0393 33.9822Z" fill="#F78D62"/>
<path d="M94.7346 44.4313C94.8748 42.3545 95.4426 38.0706 95.8434 35.8089C96.169 33.9721 95.7834 32.9268 94.9839 32.9268C94.7464 32.9268 94.4726 33.0188 94.1694 33.2099C94.3753 32.4857 94.5593 31.9883 94.6908 31.8487C94.9633 31.5638 95.482 31.2968 95.9718 31.2968C96.5742 31.2968 97.1323 31.7004 97.1323 32.9726C97.1319 33.2623 97.103 33.5969 97.039 33.9821C96.4695 37.4288 96.2636 43.659 96.2636 43.659C96.2636 43.659 95.5407 44.1608 94.7346 44.4313Z" fill="#F4674D"/>
<path d="M87.7467 44.9853C87.2517 45.7707 85.9023 45.8186 85.7271 45.522C85.7051 45.4827 85.6701 45.4085 85.6219 45.3082C85.324 44.6276 84.6186 42.7166 84.8026 41.9968C84.8333 41.879 84.8771 41.7655 84.9385 41.6608C85.2889 41.002 86.0951 40.5483 86.6602 40.605C87.8957 40.7272 87.3524 43.4583 87.3524 43.4583C87.3524 43.4583 88.2374 44.2 87.7467 44.9853Z" fill="#F78D62"/>
<path d="M90.3315 44.2436C90.2614 45.0028 88.8682 45.1467 88.027 44.7017C87.843 44.6057 87.7028 44.2785 87.6021 43.8248C87.3129 42.5377 87.3261 40.221 87.4925 39.1347C87.5364 38.8511 87.5889 38.6548 87.6503 38.5762C88.0314 38.092 88.8682 37.5902 89.9284 37.8825C90.9886 38.1792 90.3315 44.2436 90.3315 44.2436Z" fill="#F78D62"/>
<path d="M93.1838 43.3712C93.1049 44.2394 91.6153 44.3964 90.7172 43.8947C90.6296 43.8467 90.5507 43.7464 90.485 43.6024C90.0469 42.7124 89.9549 40.1775 90.0557 38.4891C90.1039 37.6907 90.1959 37.0799 90.3142 36.9184C90.7172 36.3687 91.6153 35.7928 92.75 36.1288C93.8847 36.4647 93.1838 43.3712 93.1838 43.3712Z" fill="#F78D62"/>
<path d="M100.166 44.9767C100.166 45.9321 99.9691 47.1232 99.5486 47.8998C99.128 48.6808 97.726 52.9608 94.8564 52.6074C91.9868 52.254 92.3811 49.5446 92.3811 49.5446C92.3811 49.5446 92.3242 49.117 92.6002 48.5935C92.8148 48.179 93.2354 47.7078 94.0459 47.337C94.8564 46.9618 95.2902 46.8396 96.0349 46.4077C96.5256 46.1241 97.1784 44.9897 96.9681 44.4226C96.8104 44.0037 96.4818 43.4409 96.4599 42.9697C96.4511 42.8039 96.4774 42.6512 96.5607 42.516C96.8805 41.9924 97.818 41.1722 98.6504 42.1931C99.4785 43.214 100.166 44.0255 100.166 44.9767Z" fill="#F78D62"/>
<path d="M96.1932 52.4266C96.2318 51.705 96.2909 51.2661 96.2909 51.2661C96.2909 51.2661 95.4292 50.462 93.7556 49.8992C93.7543 49.8988 93.753 49.8983 93.7517 49.8979C93.3429 49.7605 92.886 49.6379 92.3813 49.5445C92.3813 49.5445 92.3765 49.5079 92.3765 49.4429C92.3765 49.2858 92.4049 48.9634 92.6003 48.5934C92.6192 48.593 92.6384 48.593 92.6577 48.593C92.992 48.593 93.3534 48.6283 93.7307 48.7025C94.3935 48.8286 94.8623 48.9368 95.2509 48.9368C95.9356 48.9368 96.3707 48.6008 97.1786 47.4372C98.4447 45.6179 98.5148 45.0551 98.0241 43.864C97.7573 43.2153 97.3218 42.8798 96.8671 42.8798C96.7317 42.8798 96.595 42.9094 96.4601 42.9696C96.4592 42.9504 96.4587 42.9308 96.4583 42.912C96.4583 42.7685 96.4872 42.6354 96.5608 42.5159C96.7698 42.1743 97.2416 41.7061 97.7757 41.7061C98.06 41.7061 98.3614 41.8383 98.6506 42.193C99.4786 43.2139 100.166 44.0254 100.166 44.9766C100.166 45.932 99.9693 47.1231 99.5487 47.8997C99.1995 48.548 98.1735 51.6082 96.1932 52.4266Z" fill="#F4674D"/>
<path d="M109.687 77.1921C109.31 77.3492 108.92 77.4888 108.522 77.6153C108.478 77.6284 108.434 77.6458 108.39 77.6546C101.508 79.7531 91.8036 77.2139 88.0096 70.2726C85.5168 65.7133 84.899 59.4744 84.7939 55.3602C84.7501 53.6543 84.7939 52.3192 84.8246 51.6168C84.8421 51.2634 84.8552 51.0715 84.8552 51.0715C84.8552 51.0715 85.841 49.5008 89.9811 49.3699C94.1212 49.239 96.2898 51.2678 96.2898 51.2678C96.2898 51.2678 96.0357 53.1613 96.246 55.5522C96.4826 58.3139 97.3457 61.7387 99.9349 63.6322C104.763 67.1662 110.8 62.0136 110.8 62.0136C110.8 62.0136 111.882 64.3216 112.552 67.1705C113.433 70.9008 113.599 75.5647 109.687 77.1921Z" fill="#F9D337"/>
<path d="M108.209 75.7908C107.967 73.7153 107.496 70.8777 106.703 70.5082C106.599 70.4593 106.465 70.4392 106.304 70.4392C105.921 70.4392 105.384 70.5536 104.72 70.6674C104.057 70.7817 103.266 70.8956 102.377 70.8956C99.9846 70.896 96.8749 70.071 93.5777 66.202C93.0169 65.5436 92.5302 64.891 92.1096 64.2487V58.0853C92.1096 56.981 91.8673 55.9331 91.4318 54.992C91.5063 54.9929 91.5812 54.9937 91.6557 54.995C93.6539 55.0304 95.172 55.2778 96.244 55.5526C96.1621 54.615 96.1516 53.7534 96.1691 53.0527C96.1651 53.2298 96.1625 53.4174 96.1625 53.6142C96.1625 54.194 96.184 54.8515 96.2457 55.5522C96.4823 58.3139 97.3454 61.7388 99.9346 63.6323C101.167 64.5345 102.48 64.8709 103.749 64.8709C106.751 64.8709 109.52 62.9931 110.46 62.2819C109.971 62.6781 109.691 62.9429 109.691 62.9429C109.691 62.9429 108.07 69.3843 108.209 75.7908ZM93.752 49.8979C92.8526 49.596 91.7192 49.3638 90.3598 49.3638C90.2511 49.3638 90.1407 49.3656 90.0286 49.3687C90.1416 49.3656 90.2533 49.3638 90.3629 49.3638C91.7214 49.3638 92.8535 49.596 93.752 49.8979ZM90.0137 49.3691C90.0181 49.3686 90.0224 49.3687 90.0268 49.3687C90.0224 49.3687 90.0176 49.3686 90.0137 49.3691Z" fill="#957738"/>
<path d="M96.2444 55.5527C95.1723 55.2779 93.6543 55.0305 91.6561 54.9952C88.889 54.948 86.3541 55.1758 84.7931 55.3603C84.7261 52.805 84.8562 51.0699 84.8562 51.0699C84.8562 51.0699 85.8419 49.4996 89.9807 49.3701C94.1195 49.2405 96.2917 51.2662 96.2917 51.2662C96.2917 51.2662 96.0354 53.1619 96.2444 55.5527Z" fill="#F9D337"/>
<path d="M91.8716 44.1781C91.4738 44.1781 91.0536 44.083 90.7167 43.8945C90.6291 43.8465 90.5503 43.7462 90.4845 43.6022C90.8131 43.6022 91.2074 43.4975 91.6236 43.1659C92.6751 42.3239 91.9741 39.6625 91.5535 38.5412C91.391 38.1132 91.1781 37.93 90.9332 37.93C90.729 37.93 90.5021 38.0578 90.2646 38.2764C90.216 38.1547 90.159 38.0565 90.0938 37.9876C90.1454 37.4414 90.2217 37.0439 90.3137 36.9182C90.6335 36.482 91.2657 36.0287 92.0806 36.0287C92.2922 36.0287 92.5156 36.0592 92.7496 36.1286C93.2569 36.2786 93.3975 37.7433 93.3975 39.3165C93.3975 41.2611 93.1833 43.371 93.1833 43.371C93.1596 43.6345 93.0054 43.8321 92.778 43.9661C92.5366 44.1083 92.2124 44.1781 91.8716 44.1781Z" fill="#F4674D"/>
<path d="M89.1067 44.9526C88.7351 44.9526 88.3426 44.8684 88.0272 44.7018C87.9785 44.6765 87.933 44.6346 87.8905 44.5792C87.9185 44.3052 87.8156 44.0539 87.6924 43.8589C87.809 43.8981 87.9238 43.9221 88.0307 43.9221C88.2414 43.9221 88.4223 43.8296 88.5266 43.5849C88.9472 42.6032 89.232 40.9235 88.7369 39.9419C88.4797 39.4297 88.0705 39.1299 87.5983 39.1299C87.5632 39.1299 87.5282 39.1317 87.4927 39.1347C87.5365 38.8511 87.5891 38.6548 87.6504 38.5763C87.9531 38.1915 88.5433 37.7958 89.3047 37.7958C89.5018 37.7958 89.7104 37.8224 89.9285 37.8826C89.989 37.8996 90.0442 37.9354 90.0942 37.9877C90.0793 38.1439 90.0661 38.3119 90.0556 38.489C89.961 40.0732 90.0363 42.4017 90.4074 43.4186C90.3666 43.9199 90.3316 44.2437 90.3316 44.2437C90.2878 44.7183 89.7266 44.9526 89.1067 44.9526Z" fill="#F4674D"/>
<path d="M90.4075 43.4187C90.0364 42.4017 89.9611 40.0732 90.0557 38.4891C90.1262 38.411 90.1963 38.3403 90.2651 38.2766C90.6769 39.3058 90.5201 42.037 90.4075 43.4187Z" fill="#F4674D"/>
<path d="M90.0562 38.489C90.0667 38.3119 90.0798 38.1439 90.0947 37.9877C90.16 38.0567 90.2169 38.1548 90.2656 38.2765C90.1968 38.3402 90.1267 38.4109 90.0562 38.489Z" fill="#F2503F"/>
<path d="M86.2715 45.6899C86.0017 45.6899 85.7887 45.628 85.7261 45.522C85.7042 45.4827 85.6691 45.4085 85.6209 45.3082C85.9364 45.2602 86.2869 45.1642 86.6242 44.9853C87.5399 44.4967 87.0492 43.3056 86.2737 42.1844C85.9754 41.7555 85.6577 41.5526 85.3406 41.5526C85.2056 41.5526 85.0707 41.5893 84.9375 41.6608C85.2683 41.0391 86.0043 40.6002 86.5611 40.6002C86.5944 40.6002 86.6273 40.6019 86.6593 40.605C87.0544 40.6443 87.2678 40.9501 87.3747 41.3484C87.3799 41.8279 87.4023 42.3161 87.4448 42.7677C87.4097 43.1656 87.3515 43.4583 87.3515 43.4583C87.3515 43.4583 87.4562 43.546 87.5731 43.6926C87.5823 43.738 87.5916 43.782 87.6012 43.8248C87.6752 44.1586 87.7707 44.4238 87.8895 44.5792C87.8759 44.7105 87.8321 44.8475 87.7458 44.9853C87.4277 45.4897 86.757 45.6899 86.2715 45.6899Z" fill="#F4674D"/>
<path d="M87.6913 43.8588C87.6615 43.8483 87.6312 43.8369 87.601 43.8247C87.5914 43.782 87.5822 43.7379 87.573 43.6925C87.6124 43.7418 87.6527 43.7972 87.6913 43.8588ZM87.4446 42.7676C87.4021 42.316 87.3798 41.8278 87.3745 41.3484C87.4928 41.7877 87.4823 42.3387 87.4446 42.7676Z" fill="#F4674D"/>
<path d="M87.8903 44.5792C87.7716 44.4239 87.6761 44.1586 87.6021 43.8249C87.6323 43.8371 87.6625 43.8484 87.6923 43.8589C87.8154 44.0539 87.9184 44.3052 87.8903 44.5792Z" fill="#F2503F"/>
<path d="M139.972 76.4199C138.071 85.3202 138.465 96.6376 138.465 96.6376C138.465 96.6376 128.087 99.5171 122.356 99.5171C122.212 99.5171 122.067 99.5171 121.918 99.5084C116.297 99.3862 110.085 96.9648 110.085 96.9648C110.085 96.9648 109.962 95.6734 109.769 93.6926C109.379 89.5741 108.709 82.4669 108.31 77.755C107.719 70.7743 109.69 62.9429 109.69 62.9429C109.69 62.9429 112.183 60.587 115.276 59.4134C118.361 58.2354 123.219 57.8602 123.219 57.8602C123.289 57.8471 123.355 57.8427 123.421 57.834C128.126 57.1665 134.781 60.0547 138.032 61.6646C139.236 62.2623 139.972 62.6812 139.972 62.6812C139.972 62.6812 141.883 67.524 139.972 76.4199Z" fill="#F9D337"/>
<path d="M139.973 76.4199C138.071 85.3202 138.466 96.6376 138.466 96.6376C138.466 96.6376 128.087 99.5171 122.356 99.5171C122.212 99.5171 122.067 99.5171 121.918 99.5084C121.669 98.2082 121.34 96.4107 121.016 94.334C120.424 90.5688 119.837 85.883 119.719 81.603C119.509 74.1818 122.352 62.1053 123.421 57.834C128.126 57.1665 134.781 60.0547 138.032 61.6646C139.237 62.2623 139.973 62.6812 139.973 62.6812C139.973 62.6812 141.883 67.524 139.973 76.4199Z" fill="#F9D337"/>
<path d="M121.143 95.1333H109.91C109.869 94.711 109.822 94.2267 109.77 93.6927C111.647 94.1338 114.995 94.4086 118.226 94.4086C119.18 94.4086 120.123 94.3846 121.016 94.334C121.059 94.6054 121.101 94.872 121.143 95.1333Z" fill="#543E12"/>
<path d="M138.437 95.1333H121.143C121.101 94.872 121.059 94.6054 121.016 94.334C122.83 94.2337 124.438 94.0243 125.494 93.6796C129.371 92.4143 129.892 91.3018 129.818 83.1345C129.808 82.1563 129.83 81.1437 129.886 80.1136C130.588 80.4984 131.451 80.7602 132.061 80.8981C132.135 80.9151 132.217 80.9229 132.303 80.9229C132.658 80.9229 133.101 80.7881 133.548 80.5892C133.551 80.6345 133.558 80.6799 133.567 80.7227L133.733 81.0643L133.788 81.1232C133.933 81.2724 134.138 81.3627 134.363 81.3627C134.643 81.3627 134.887 81.2213 135.037 81.0093L135.041 81.0054L135.136 80.8051L135.144 80.7894L135.16 80.7227C135.171 80.6677 135.179 80.6088 135.179 80.5499V79.6079C135.333 79.4862 135.461 79.3723 135.549 79.2764C135.571 79.3152 135.583 79.3344 135.583 79.3344C135.583 79.3344 136.716 81.2619 138.939 83.3033C138.515 87.5379 138.432 91.5623 138.432 94.0609C138.432 94.4588 138.434 94.8179 138.437 95.1333ZM133.547 72.9659C132.693 72.9231 131.758 72.8668 130.946 72.8154C132.107 68.175 134.287 63.9517 138.032 61.6647C138.566 61.9295 139.008 62.1594 139.335 62.3331C139.232 62.3658 136.444 63.2929 135.141 67.9429C135.051 68.2548 134.969 68.5838 134.897 68.9302C134.755 68.808 134.567 68.7343 134.364 68.7343C134.364 68.7343 134.364 68.7343 134.364 68.7343H134.363H134.363C133.914 68.7343 133.547 69.0951 133.547 69.5432V72.9659ZM140.044 62.8828C139.825 62.6686 139.624 62.501 139.442 62.3907C139.785 62.5739 139.973 62.6812 139.973 62.6812C139.973 62.6812 140 62.7489 140.044 62.8828Z" fill="#957738"/>
<path d="M120.474 55.5832C118.961 56.0466 117.671 58.0745 117.182 59.6961C116.692 61.3183 118.045 65.2575 118.677 65.3736C119.31 65.4892 120.997 63.693 121.23 63.056C121.462 62.419 120.474 55.5832 120.474 55.5832Z" fill="#957738"/>
<path d="M129.095 56.2782C129.987 56.5029 133.096 58.3056 132.863 59.2903C132.631 60.2755 127.977 66.6475 126.988 66.9952C125.999 67.3429 123.859 64.6201 123.824 63.9831C123.789 63.3457 125.185 60.3331 125.65 59.6381C126.116 58.9431 128.629 56.1608 129.095 56.2782Z" fill="#957738"/>
<path d="M134.498 82.1354C134.498 82.2083 134.438 82.2667 134.366 82.2667C134.293 82.2667 134.234 82.2083 134.234 82.1354V81.7323C134.234 81.6598 134.293 81.6014 134.366 81.6014C134.438 81.6014 134.498 81.6598 134.498 81.7323V82.1354Z" fill="#DD5F1C"/>
<path d="M166.549 70.2728C166.549 70.2728 165.607 72.2448 164.034 74.8713C160.784 80.3118 154.825 88.5664 148.911 87.9687C140.14 87.0874 135.584 79.3345 135.584 79.3345C135.584 79.3345 133.735 76.3895 134.721 69.9106C134.83 69.1908 134.97 68.5363 135.141 67.943C136.469 63.2049 139.338 62.3323 139.338 62.3323C141.441 63.3925 146.545 73.1523 149.401 72.6724C150.987 72.4062 153.603 69.5529 155.618 67.0617C157.235 65.0591 158.47 63.2965 158.47 63.2965C158.47 63.2965 159.75 62.8471 163.101 65.3776C163.491 65.6743 163.837 65.9666 164.144 66.2545C166.475 68.4273 166.549 70.2728 166.549 70.2728Z" fill="#F9D337"/>
<path d="M166.551 70.2731C166.551 70.2731 165.609 72.2438 164.036 74.8699C163.192 73.5706 161.983 71.8355 160.638 70.2731C159.255 68.6637 157.209 67.651 155.62 67.062C157.237 65.0599 158.47 63.2973 158.47 63.2973C158.47 63.2973 159.751 62.8462 163.102 65.378C166.452 67.9102 166.551 70.2731 166.551 70.2731Z" fill="#957738"/>
<path d="M131.1 73.2512C131.1 73.6351 130.788 73.9467 130.402 73.9467C130.016 73.9467 129.704 73.6351 129.704 73.2512V69.428C129.704 69.0441 130.016 68.7326 130.402 68.7326C130.788 68.7326 131.1 69.0441 131.1 69.428V73.2512Z" fill="#543E12"/>
<path d="M128.811 74.5837C128.811 74.5837 128.318 78.2332 128.811 79.1603C129.304 80.087 131.039 80.6664 132.062 80.8981C133.085 81.1297 135.295 79.6817 135.644 79.1603C135.993 78.6385 135.993 74.5837 135.993 74.5837H128.811Z" fill="#543E12"/>
<path d="M128.811 72.6723C128.811 72.6723 135.296 73.1356 136.11 73.0196C136.925 72.9035 136.518 75.105 136.11 75.5108C135.703 75.9165 130.51 75.6469 129.421 75.5108C128.492 75.3947 128.038 74.2364 128.177 73.541C128.315 72.8459 128.811 72.6723 128.811 72.6723Z" fill="#745A25"/>
<path d="M135.18 69.5432V80.5499C135.18 80.6088 135.172 80.6677 135.161 80.7226L135.145 80.7894L135.137 80.8051L135.042 81.0054L135.038 81.0093C134.888 81.2213 134.644 81.3627 134.364 81.3627C134.139 81.3627 133.934 81.2724 133.789 81.1231L133.734 81.0643L133.568 80.7226C133.556 80.6677 133.548 80.6088 133.548 80.5499V69.5432C133.548 69.0951 133.915 68.7343 134.364 68.7343C134.589 68.7343 134.794 68.8246 134.94 68.9699C135.09 69.1152 135.18 69.3193 135.18 69.5432Z" fill="#FAB513"/>
<path d="M135.158 80.7227L135.143 80.7894L135.135 80.8051L135.04 81.0054L135.036 81.0093L134.579 81.9355H134.153L133.732 81.0643L133.566 80.7227H135.158Z" fill="#F57523"/>
<path d="M135.18 69.5432L135.18 71.0898L133.548 71.0894V69.5428C133.548 69.0951 133.915 68.7343 134.364 68.7343C134.589 68.7343 134.794 68.8246 134.94 68.9699C135.09 69.1152 135.18 69.3194 135.18 69.5432Z" fill="#F57523"/>
<path d="M135.18 69.5433V70.2732H133.548V69.5433C133.548 69.0952 133.915 68.7344 134.364 68.7344C134.589 68.7344 134.794 68.8247 134.94 68.97C135.09 69.1153 135.18 69.3195 135.18 69.5433Z" fill="#543E12"/>
<path d="M149.523 87.9993C149.319 87.9993 149.115 87.9892 148.91 87.9687C140.139 87.0874 135.583 79.3346 135.583 79.3346C135.583 79.3346 135.571 79.3154 135.549 79.2765C135.588 79.2342 135.62 79.1954 135.643 79.1605C135.88 78.8053 135.956 76.8146 135.981 75.5785C136.04 75.5585 136.084 75.5358 136.109 75.5109C136.506 75.1156 136.903 73.0153 136.169 73.0153C136.15 73.0153 136.13 73.0171 136.109 73.0197C136.018 73.0328 135.858 73.0385 135.644 73.0385C135.509 73.0385 135.353 73.0363 135.179 73.0319V71.09H135.18L135.18 69.5434C135.18 69.3195 135.089 69.1154 134.939 68.9701C134.926 68.9565 134.911 68.943 134.896 68.9304C134.969 68.584 135.051 68.255 135.141 67.943C140.173 75.6108 145.698 81.5125 149.077 81.5125C149.172 81.5125 149.266 81.5082 149.357 81.4986C151.883 81.2381 157.27 75.2435 160.928 70.6166C162.156 72.0852 163.253 73.6645 164.035 74.8696C164.035 74.87 164.034 74.8709 164.034 74.8713C160.896 80.1234 155.233 87.9993 149.523 87.9993Z" fill="#957738"/>
<path d="M164.036 74.8694C163.253 73.6644 162.156 72.085 160.929 70.6164C162.353 68.8159 163.514 67.2225 164.144 66.2544C166.475 68.4271 166.549 70.2726 166.549 70.2726C166.549 70.2726 165.608 72.2438 164.036 74.8694Z" fill="#F9D337"/>
<path d="M135.55 79.2764C135.487 79.1638 135.344 78.8872 135.18 78.4391V75.6931C135.538 75.67 135.819 75.6329 135.981 75.5784C135.957 76.8144 135.881 78.8052 135.644 79.1603C135.62 79.1952 135.588 79.234 135.55 79.2764Z" fill="#543E12"/>
<path d="M135.18 75.6932V73.0319C135.353 73.0362 135.509 73.0384 135.645 73.0384C135.858 73.0384 136.019 73.0327 136.109 73.0197C136.13 73.017 136.151 73.0153 136.17 73.0153C136.903 73.0153 136.506 75.1156 136.109 75.5109C136.084 75.5357 136.041 75.5584 135.981 75.5785C135.819 75.633 135.538 75.6701 135.18 75.6932Z" fill="#745A25"/>
<path d="M135.18 78.4392C134.744 77.2486 134.164 74.8459 134.567 71.0899H135.18V73.0318V75.6932V78.4392Z" fill="#F46B17"/>
<path d="M135.181 71.0898H134.568C134.596 70.8241 134.63 70.5519 134.668 70.2731H135.18V69.5432C135.18 69.3194 135.09 69.1152 134.94 68.9699C134.926 68.9564 134.912 68.9433 134.897 68.9306C134.898 68.9306 134.898 68.9302 134.898 68.9302C134.913 68.9429 134.927 68.9564 134.941 68.9699C135.091 69.1152 135.181 69.3194 135.181 69.5432L135.181 71.0898Z" fill="#F14C1F"/>
<path d="M135.18 70.2732H134.667C134.684 70.1532 134.702 70.0328 134.721 69.9106C134.772 69.5695 134.831 69.2431 134.897 68.9307C134.912 68.9434 134.926 68.9565 134.939 68.97C135.089 69.1153 135.18 69.3195 135.18 69.5433V70.2732Z" fill="#543E12"/>
<path d="M139.697 48.5672C137.682 50.8315 137.792 53.3838 137.191 54.0775C136.596 54.7712 135.176 54.889 134.195 53.266C134.195 53.266 133.051 54.8323 129.459 53.6718C125.862 52.5113 125.582 49.0384 125.205 47.4721C125.183 47.3761 125.161 47.2452 125.144 47.0925C124.872 44.8064 125.205 36.7481 125.919 34.9026C126.519 33.3538 132.745 31.8791 137.205 32.503C138.414 32.6688 139.496 32.9917 140.298 33.5109C140.298 33.5109 142.804 33.9166 143.185 38.7856C143.566 43.6502 141.713 46.3029 139.697 48.5672Z" fill="#1A5F99"/>
<path d="M136.091 54.5605C135.475 54.5605 134.761 54.2041 134.194 53.2661C134.194 53.2661 133.585 54.0998 131.861 54.0998C131.221 54.1003 130.429 53.9855 129.458 53.6718C129.264 53.6094 129.08 53.5401 128.905 53.4646C128.902 53.2163 128.9 52.9707 128.9 52.729C128.9 51.9699 128.917 51.2596 128.959 50.6959C129.271 50.5441 129.575 50.3826 129.87 50.212L130.439 49.9433C130.763 50.5846 131.256 51.1523 132.004 51.438C132.442 51.6064 132.812 51.6749 133.123 51.6749C134.488 51.6749 134.729 50.356 134.729 50.356C134.729 50.356 134.729 51.3508 135.548 51.9834C135.696 52.0986 135.836 52.157 135.973 52.157C136.589 52.157 137.159 50.986 138.273 48.5454C139.443 45.9813 141.015 44.4194 139.823 41.9657C140.071 41.6189 140.331 41.2097 140.599 40.7271C141.156 39.7267 141.339 38.6683 141.339 37.7089C141.337 35.8612 140.656 34.3791 140.656 34.3791C140.656 34.3791 140.772 34.1618 140.891 33.7543C141.657 34.2015 142.922 35.4397 143.184 38.7856C143.218 39.2228 143.234 39.6416 143.234 40.0443C143.231 44.1236 141.531 46.5062 139.697 48.5672C137.681 50.8316 137.791 53.3839 137.191 54.0776C136.939 54.3703 136.541 54.5605 136.091 54.5605Z" fill="#21487F"/>
<path d="M129.083 49.7889C128.675 51.4119 129.083 58.362 129.083 58.362C129.083 58.362 128.732 59.1735 127.685 60.1595C126.638 61.1456 123.151 65.6611 122.8 66.0669C122.673 66.2109 122.515 66.3287 122.331 66.3505C122.235 66.3636 122.13 66.3461 122.025 66.3025L122.02 66.2981C121.766 66.176 121.49 65.8531 121.232 65.1987C121.008 64.6446 120.732 63.5582 120.483 62.4282C120.071 60.6002 119.716 58.6543 119.716 58.6543C119.716 58.6543 119.891 58.2486 119.948 56.8001C119.979 56.1151 119.979 54.9502 119.97 53.9162C119.966 52.7601 119.948 51.761 119.948 51.761C119.948 51.761 129.49 48.1703 129.083 49.7889Z" fill="#F78D62"/>
<path d="M124.534 63.8888C124.023 62.9429 123.255 62.0136 122.449 62.0136C122.353 62.0136 122.257 62.0223 122.16 62.0398C121.599 62.138 121.042 62.5066 120.593 62.9194C120.556 62.7575 120.519 62.5934 120.482 62.4281C120.885 61.9874 121.166 61.1672 121.946 60.9622C122.115 60.9172 122.278 60.905 122.434 60.905C122.531 60.905 122.625 60.9098 122.718 60.9146C122.81 60.9194 122.901 60.9242 122.99 60.9242C123.559 60.9242 124.054 60.727 124.548 59.0687C125.323 56.4771 125.113 53.9554 125.113 53.9554C125.113 53.9554 124.294 54.3432 122.811 54.3432C122.037 54.3432 121.083 54.2376 119.97 53.9161C119.967 53.3123 119.961 52.7512 119.957 52.3533C120.426 52.3926 120.899 52.4122 121.372 52.4122C124.027 52.4122 126.697 51.7992 128.96 50.6958C128.918 51.2595 128.901 51.9698 128.901 52.7289C128.901 55.2699 129.082 58.3619 129.082 58.3619C129.082 58.3619 128.732 59.1734 127.685 60.1594C127.085 60.7235 125.687 62.4442 124.534 63.8888Z" fill="#F4674D"/>
<path d="M138.383 46.8613C138.396 48.8901 137.091 50.0811 135.343 50.0986C133.599 50.1204 132.929 48.7679 132.929 48.7679L129.871 50.212C125.713 52.6116 119.799 53.2268 115.225 51.1631H115.216C112.013 49.719 109.468 46.966 108.627 42.5944C106.585 31.9708 114.546 27.285 114.546 27.285C125.56 21.033 136.004 25.025 138.458 32.7255C138.896 34.0998 139.145 35.3476 139.259 36.4733C139.803 41.6477 137.507 44.1781 137.507 44.1781C137.507 44.1781 138.366 44.8369 138.383 46.8613Z" fill="#F78D62"/>
<path d="M121.371 52.4122C119.239 52.4122 117.117 52.017 115.225 51.1631C116.74 51.1631 118.51 50.9494 120.539 50.3822C128.841 48.0699 127.995 39.8022 127.995 39.8022C127.995 39.8022 127.905 39.8183 127.751 39.8183C127.267 39.8183 126.159 39.6582 125.253 38.3319C124.057 36.578 125.113 35.3171 125.113 35.3171C125.113 35.3171 125.088 35.3189 125.043 35.3189C124.519 35.3189 121.208 35.0933 121.818 29.3452C122.045 29.2488 122.147 29.1654 122.147 29.1654C122.147 29.1654 122.388 30.9019 124.596 32.3547C125.333 32.8381 126.064 32.9991 126.712 32.9991C127.947 32.9991 128.877 32.4136 128.964 32.3591C128.943 32.4215 128.767 32.9267 128.767 33.6928C128.766 34.2652 128.865 34.9833 129.2 35.7708C130.011 37.6818 131.584 37.9741 131.584 37.9741C131.584 37.9741 131.408 39.0736 131.408 39.7105C131.408 40.3475 132.28 41.9967 132.28 41.9967C132.28 41.9967 130.072 42.8911 129.954 45.2994C129.952 45.3396 129.951 45.3797 129.951 45.4198C129.949 46.9582 131.293 48.4786 132.688 48.4782C133.438 48.4782 134.203 48.0402 134.782 46.9311C136.304 44.022 137.401 43.8797 137.601 43.8797C137.623 43.8797 137.634 43.8815 137.634 43.8815C137.634 43.8815 137.678 43.8741 137.762 43.8439C137.608 44.0669 137.507 44.1781 137.507 44.1781C137.507 44.1781 138.365 44.8369 138.383 46.8613C138.383 46.8731 138.383 46.8849 138.383 46.8971C138.381 48.904 137.08 50.0811 135.342 50.0986C135.329 50.0986 135.315 50.099 135.301 50.099C133.588 50.099 132.929 48.7679 132.929 48.7679L129.871 50.212C127.433 51.6186 124.392 52.4122 121.371 52.4122Z" fill="#F4674D"/>
<path d="M140.599 40.7271C138.969 43.659 137.633 43.8815 137.633 43.8815C137.633 43.8815 136.468 43.707 134.781 46.9312C133.094 50.1597 129.839 47.7034 129.953 45.2994C130.071 42.8911 132.279 41.9967 132.279 41.9967C132.279 41.9967 131.408 40.3475 131.408 39.7106C131.408 39.0736 131.583 37.9741 131.583 37.9741C131.583 37.9741 130.01 37.6818 129.2 35.7709C128.415 33.9297 128.928 32.4682 128.963 32.3591C128.832 32.442 126.737 33.7596 124.595 32.3547C122.387 30.9019 122.146 29.1655 122.146 29.1655C122.146 29.1655 121.23 29.9202 118.702 29.5145C116.175 29.1087 116.459 28.2405 116.459 28.2405C116.459 28.2405 115.18 28.0093 112.858 29.5712C110.536 31.1375 109.213 34.0781 109.213 34.0781C109.213 34.0781 108.503 33.6636 108.017 32.7343C107.684 32.0842 107.456 31.1724 107.675 29.9769C108.197 27.0843 110.584 25.806 110.584 25.806C110.584 25.806 110.059 24.5321 110.352 23.0836C110.641 21.6351 111.57 21.0592 111.57 21.0592C111.57 21.0592 109.419 12.7173 115.658 9.35355C116.841 8.71657 117.931 8.39371 118.93 8.31955C123.197 7.99669 125.756 12.1851 126.466 15.6143C127.338 19.8419 128.499 19.842 128.499 19.842C128.499 19.842 132.573 18.7425 134.724 20.8847C136.875 23.0269 136.932 25.1123 136.932 25.1123C136.932 25.1123 139.552 25.5748 140.656 28.9342C141.764 32.2936 140.656 34.3791 140.656 34.3791C140.656 34.3791 142.229 37.7996 140.599 40.7271Z" fill="#1A5F99"/>
<path d="M132.689 48.4781C131.293 48.4786 129.949 46.9581 129.951 45.4198C129.951 45.3796 129.952 45.3395 129.954 45.2994C130.072 42.891 132.28 41.9966 132.28 41.9966C132.28 41.9966 131.409 40.3475 131.409 39.7105C131.409 39.0735 131.584 37.974 131.584 37.974C131.584 37.974 130.011 37.6817 129.201 35.7708C128.865 34.9833 128.767 34.2652 128.767 33.6927C128.768 32.9266 128.944 32.4214 128.964 32.359C128.878 32.4135 127.947 32.999 126.712 32.999C126.065 32.999 125.333 32.838 124.596 32.3546C122.388 30.9018 122.147 29.1654 122.147 29.1654C122.147 29.1654 122.046 29.2487 121.818 29.3451C121.506 29.4773 120.955 29.6339 120.1 29.6339C119.702 29.6344 119.239 29.6003 118.703 29.5144C116.64 29.1833 116.451 28.5436 116.451 28.3198C116.451 28.2697 116.46 28.2404 116.46 28.2404C116.46 28.2404 116.394 28.2282 116.263 28.2282C115.822 28.2282 114.651 28.3661 112.859 29.5711C110.537 31.1374 109.214 34.078 109.214 34.078C109.214 34.078 108.504 33.6635 108.018 32.7342C108.084 32.4986 108.149 32.2543 108.211 31.9969C109.077 28.3866 114.18 26.1384 116.23 26.1384C116.543 26.1384 116.785 26.1907 116.929 26.2989C117.321 26.5904 118.228 26.6837 119.229 26.6837C121.017 26.6837 123.106 26.3862 123.106 26.3862C123.106 26.3862 124.013 29.0083 126.195 30.4568C126.582 30.7142 126.976 30.8202 127.36 30.8202C129.138 30.8202 130.734 28.5589 130.734 28.5589C130.734 28.5589 131.553 29.8242 131.098 31.722C130.642 33.6242 132.732 34.4357 132.732 34.4357C132.732 34.4357 133.214 34.5405 133.833 34.5405C135.036 34.5405 136.757 34.1447 136.456 31.8136C136.026 28.4546 132.871 28.3757 132.574 28.3757C132.56 28.3757 132.552 28.3757 132.552 28.3757C132.552 28.3757 134.821 25.4831 132.004 22.6777C131.34 22.0159 130.645 21.7881 129.941 21.7881C129.166 21.7881 128.381 22.0648 127.618 22.3418C126.854 22.6188 126.111 22.8955 125.42 22.8955C124.777 22.8955 124.179 22.6559 123.65 21.9535C121.648 19.2921 126.563 13.9476 118.931 8.31946C119.087 8.30768 119.241 8.30201 119.393 8.30201C123.383 8.30201 125.783 12.3102 126.467 15.6142C127.339 19.8419 128.5 19.8419 128.5 19.8419C128.5 19.8419 129.545 19.5596 130.856 19.5596C132.134 19.5596 133.664 19.8275 134.725 20.8846C136.876 23.0268 136.933 25.1122 136.933 25.1122C136.933 25.1122 139.553 25.5747 140.657 28.9341C141.027 30.0563 141.15 31.0362 141.149 31.8437C141.149 33.4541 140.657 34.379 140.657 34.379C140.657 34.379 141.338 35.8611 141.34 37.7088C141.34 38.6682 141.157 39.7266 140.6 40.727C140.332 41.2096 140.072 41.6188 139.824 41.9657C138.567 43.7261 137.634 43.8814 137.634 43.8814C137.634 43.8814 137.623 43.8797 137.601 43.8797C137.401 43.8797 136.304 44.0219 134.782 46.9311C134.203 48.0401 133.438 48.4781 132.689 48.4781Z" fill="#21487F"/>
<path d="M113.608 34.3804C113.608 35.1483 112.983 35.7709 112.212 35.7709C111.441 35.7709 110.816 35.1483 110.816 34.3804C110.816 33.6126 111.441 32.9904 112.212 32.9904C112.983 32.9904 113.608 33.6126 113.608 34.3804Z" fill="#040606"/>
<path d="M127.388 40.6046C127.388 41.372 126.764 41.9946 125.992 41.9946C125.221 41.9946 124.596 41.372 124.596 40.6046C124.596 39.8363 125.221 39.2142 125.992 39.2142C126.764 39.2142 127.388 39.8363 127.388 40.6046Z" fill="#040606"/>
<path d="M118.437 36.1767C119.368 36.7561 117.681 41.5561 116.111 40.6046C114.54 39.6526 117.507 35.5973 118.437 36.1767Z" fill="#F03567"/>
<path d="M122.079 45.5154C121.772 46.7479 120.514 48.1375 118.681 48.4869H118.677C117.68 48.675 116.513 48.5576 115.236 47.9372C113.821 47.2505 112.973 46.3513 112.5 45.4168V45.4128C111.57 43.5486 112.165 41.5464 112.859 40.8004C112.934 40.7179 113.009 40.6555 113.084 40.6045C114.716 39.5365 115.402 41.7742 116.21 42.2489C117.964 43.2698 121.054 42.4339 121.984 44.2274C122.17 44.5891 122.193 45.0403 122.079 45.5154Z" fill="#EF2856"/>
<path d="M122.079 45.5153C121.87 45.5311 121.657 45.5232 121.46 45.5031C120.861 45.4407 120.707 44.4438 120.707 44.4438C120.707 44.4438 120.238 45.0402 119.717 44.9224C119.193 44.8086 118.705 44.4438 118.705 44.4438C118.705 44.4438 118.031 44.7497 117.183 44.4438C116.332 44.1371 116.284 43.419 116.284 43.419C116.284 43.419 115.819 43.7095 115.295 43.419C114.771 43.1284 114.306 42.2611 114.306 42.2611C114.306 42.2611 113.959 42.4338 113.375 41.9941C113.075 41.7663 112.93 41.2524 112.859 40.8004C112.934 40.7179 113.009 40.6555 113.084 40.6045C114.716 39.5364 115.402 41.7742 116.21 42.2488C117.964 43.2698 121.054 42.4338 121.984 44.2274C122.17 44.5891 122.193 45.0402 122.079 45.5153Z" fill="white"/>
<path d="M118.677 48.4869C117.68 48.675 116.513 48.5576 115.236 47.9372C113.82 47.2505 112.973 46.3513 112.5 45.4168V45.4128C113.241 45.2758 114.735 45.1345 116.225 45.7937C117.573 46.3906 118.318 47.6584 118.677 48.4869Z" fill="#F14477"/>
<path d="M135.624 45.5237C136.433 44.5364 137.459 44.9823 137.517 46.2567C137.575 47.5311 136.878 49.0424 135.016 48.8055C133.153 48.569 134.842 46.4761 135.624 45.5237Z" fill="#233F73"/>
<path d="M135.017 47.2995C135.017 47.2995 132.225 48.2842 129.606 47.8209C126.989 47.3571 126.64 47.2995 126.64 47.2995C126.64 47.2995 126.873 47.1337 126.64 47.6219C126.407 48.1106 126.64 48.4788 126.64 48.4788C126.64 48.4788 132.108 50.0224 135.017 48.8056C135.017 48.8056 135.307 49.2458 135.54 48.2724C135.773 47.2995 135.017 47.2995 135.017 47.2995Z" fill="#233F73"/>
<path d="M125.962 49.1557L124.164 48.9616C123.454 48.8853 122.937 48.2448 123.014 47.5389L123.045 47.2544C123.122 46.5485 123.765 46.0332 124.474 46.11L126.273 46.3042C126.981 46.3805 127.499 47.021 127.422 47.7269L127.391 48.0114C127.314 48.7173 126.671 49.2325 125.962 49.1557Z" fill="#233F73"/>
<path d="M124.762 81.7208C124.631 84.4607 121.577 87.7372 120.618 87.1483C120.017 86.7818 118.896 85.4598 118.142 83.9284C117.682 82.9861 117.358 81.9695 117.38 81.0446C117.419 79.1249 119.781 71.311 120.788 68.065C120.819 67.9646 120.85 67.8643 120.88 67.7726C121.099 67.0659 121.235 66.6383 121.235 66.6383C121.235 66.6383 122.742 66.0449 123.093 67.2447C123.137 67.3931 123.198 67.6723 123.272 68.0519C123.789 70.7176 124.924 78.4094 124.762 81.7208Z" fill="#745A25"/>
<path d="M123.273 68.052C123.111 68.1655 122.953 68.2571 122.8 68.3269C121.744 68.8286 121.297 68.3792 120.881 67.7728L120.824 67.6899C120.53 67.2536 120.259 66.7388 120.053 66.2327C119.672 65.3034 119.492 64.3916 119.715 63.9814C120.035 63.3968 121.091 62.2276 122.16 62.04C122.256 62.0225 122.353 62.0138 122.449 62.0138C123.615 62.0138 124.701 63.9596 125.047 65.0853C125.345 66.0538 124.28 67.3758 123.273 68.052Z" fill="#745A25"/>
<path d="M120.885 87.2177C120.784 87.2177 120.694 87.1954 120.617 87.1483C120.017 86.7818 118.896 85.4598 118.142 83.9285C118.624 84.3835 119.241 84.7024 119.877 84.7024C120.716 84.7024 121.586 84.147 122.216 82.6152C123.395 79.7575 122.409 68.5493 122.409 68.5493C122.409 68.5493 122.248 68.6623 121.992 68.6623C121.779 68.6623 121.501 68.5837 121.196 68.2962C121.047 68.1522 120.911 68.0868 120.788 68.065C120.819 67.9646 120.85 67.8643 120.88 67.7727C121.171 68.1963 121.477 68.5432 121.994 68.5432C122.217 68.5432 122.481 68.4781 122.799 68.3268C122.953 68.257 123.11 68.1653 123.272 68.0519C123.756 70.5431 124.778 77.4243 124.778 81.0171C124.778 81.2688 124.772 81.504 124.762 81.7208C124.641 84.2422 122.046 87.2177 120.885 87.2177Z" fill="#543E12"/>
<path d="M121.994 68.5433C121.477 68.5433 121.171 68.1965 120.88 67.7728L120.823 67.69C120.53 67.2537 120.258 66.7388 120.052 66.2327C120.083 66.2375 120.251 66.2615 120.492 66.2615C121.147 66.2615 122.339 66.0848 122.79 64.8672C123.233 63.6805 122.988 62.4458 122.16 62.04C122.256 62.0226 122.352 62.0138 122.449 62.0138C123.614 62.0138 124.701 63.9597 125.047 65.0853C125.082 65.1987 125.098 65.317 125.097 65.4387C125.097 65.5726 125.077 65.7105 125.04 65.8501C124.824 66.6655 124.032 67.5425 123.272 68.0521C123.11 68.1655 122.953 68.2571 122.799 68.3269C122.481 68.4783 122.217 68.5433 121.994 68.5433Z" fill="#543E12"/>
<path d="M119.015 83.5249C118.47 83.5249 117.959 83.1955 117.873 82.2963C117.734 80.8238 120.802 69.0445 120.802 69.0445C120.895 68.9 121.031 68.8425 121.157 68.8425C121.298 68.8425 121.428 68.9144 121.472 69.017C121.556 69.2116 120.691 82.6576 119.994 83.1855C119.722 83.391 119.362 83.5249 119.015 83.5249Z" fill="#F9D337"/>
<path d="M120.837 65.6497C120.755 65.6497 120.677 65.634 120.608 65.5995C120.162 65.3774 120.022 64.7108 120.162 64.1549C120.277 63.6981 121.205 62.6589 121.824 62.6589C121.958 62.6589 122.077 62.7078 122.17 62.8216C122.422 63.127 122.422 64.0995 122.143 64.6828C121.906 65.1763 121.292 65.6497 120.837 65.6497Z" fill="#F9D337"/>
<path d="M133.651 104.481C133.52 104.544 133.389 104.611 133.26 104.664C130.854 105.782 128.294 106.276 126.759 105.27C126.513 105.113 126.316 104.948 126.157 104.776C125.988 104.597 125.867 104.414 125.79 104.224C125.557 103.675 125.674 103.097 126.041 102.52C126.607 101.63 127.763 100.736 129.135 99.9549C129.256 99.8855 129.378 99.8201 129.5 99.7546C131.231 98.8188 133.24 98.0701 134.819 97.7185C135.539 97.5592 136.175 97.4846 136.651 97.5091C142.037 97.8036 138.245 102.207 133.651 104.481Z" fill="#F9D337"/>
<path d="M133.259 104.664C133.209 104.318 133.1 103.77 132.898 103.296C132.861 103.214 132.818 103.119 132.773 103.016C132.456 102.318 131.873 101.214 130.899 100.545C130.778 100.46 130.653 100.384 130.521 100.314L130.516 100.314C130.414 100.261 130.308 100.213 130.198 100.17C129.812 100.019 129.455 99.9618 129.134 99.9548C129.255 99.8855 129.377 99.82 129.499 99.7546C129.83 99.7685 130.21 99.827 130.64 99.9522C131.843 100.298 132.636 101.641 133.114 102.829C133.39 103.499 133.56 104.116 133.65 104.481C133.519 104.544 133.388 104.61 133.259 104.664Z" fill="#543E12"/>
<path d="M131.125 100.462C131.125 100.462 131.041 100.49 130.9 100.545C130.288 100.788 128.557 101.551 127.531 102.808C127.307 103.081 127.109 103.346 126.929 103.593C126.603 104.043 126.349 104.45 126.156 104.776C125.988 104.597 125.867 104.414 125.789 104.223C125.989 103.941 126.242 103.606 126.542 103.257C126.915 102.821 127.355 102.36 127.842 101.962C128.956 101.053 130.042 100.525 130.517 100.314L130.521 100.314C130.683 100.246 130.771 100.213 130.771 100.213L131.125 100.462Z" fill="#957738"/>
<path d="M128.867 105.815C128.061 105.815 127.337 105.649 126.759 105.27C126.513 105.113 126.316 104.948 126.157 104.776C126.349 104.45 126.603 104.043 126.93 103.593C127.41 103.91 128.079 104.058 128.842 104.058C130.049 104.058 131.489 103.685 132.774 103.016C132.818 103.119 132.861 103.214 132.898 103.296C133.1 103.77 133.209 104.318 133.26 104.664C131.76 105.361 130.201 105.815 128.867 105.815ZM133.651 104.481C133.561 104.116 133.391 103.499 133.115 102.829C133.502 102.603 133.877 102.352 134.216 102.077C136.165 100.497 136.219 98.6594 134.819 97.7183C135.449 97.5787 136.014 97.5046 136.465 97.5046C136.529 97.5046 136.591 97.5059 136.651 97.5089C138.528 97.6119 139.291 98.2135 139.292 99.0508C139.295 100.615 136.643 103 133.651 104.481ZM125.789 104.223C125.708 104.031 125.669 103.834 125.669 103.635C125.67 103.268 125.803 102.894 126.041 102.52C126.138 102.747 126.296 102.994 126.542 103.257C126.242 103.606 125.99 103.941 125.789 104.223Z" fill="#957738"/>
<path d="M133.259 104.664C133.208 104.318 133.099 103.77 132.897 103.296C132.861 103.214 132.818 103.119 132.773 103.016C132.887 102.957 133 102.893 133.114 102.829C133.39 103.499 133.56 104.116 133.65 104.481C133.519 104.544 133.388 104.61 133.259 104.664Z" fill="#957738"/>
<path d="M126.156 104.776C125.988 104.597 125.867 104.414 125.789 104.223C125.989 103.941 126.242 103.606 126.542 103.257L126.635 103.356C126.721 103.443 126.819 103.524 126.929 103.593C126.603 104.043 126.349 104.45 126.156 104.776Z" fill="#543E12"/>
<path d="M127.971 102.509C127.912 102.509 127.856 102.506 127.803 102.502C128.84 101.426 130.339 100.767 130.9 100.545C131.19 100.745 131.446 100.983 131.67 101.238C130.919 101.662 130.058 102.042 129.388 102.248C128.838 102.417 128.344 102.509 127.971 102.509ZM127.383 102.367C127.208 102.227 127.208 101.98 127.452 101.613C127.84 101.028 128.608 100.491 129.553 99.9927C129.757 100.026 129.973 100.082 130.198 100.17C130.308 100.213 130.414 100.261 130.517 100.314C130.042 100.525 128.956 101.053 127.842 101.962C127.684 102.091 127.531 102.227 127.383 102.367ZM132.084 100.992C131.688 100.503 131.21 100.116 130.641 99.9521C130.389 99.8793 130.155 99.8287 129.938 99.7968C130.474 99.5324 131.054 99.2798 131.647 99.0377C131.767 98.9884 131.957 98.9591 132.168 98.9591C132.708 98.9591 133.386 99.1515 133.381 99.6904C133.378 100.043 132.826 100.529 132.084 100.992Z" fill="#957738"/>
<path d="M131.672 101.238C131.447 100.983 131.191 100.745 130.901 100.545C131.042 100.49 131.126 100.462 131.126 100.462L130.772 100.213C130.772 100.213 130.684 100.246 130.522 100.314L130.518 100.314C130.416 100.261 130.309 100.213 130.2 100.17C129.974 100.082 129.758 100.026 129.554 99.9929C129.679 99.927 129.808 99.8615 129.939 99.797C130.157 99.8288 130.391 99.8794 130.642 99.9523C131.212 100.116 131.69 100.503 132.086 100.992C131.953 101.075 131.814 101.157 131.672 101.238Z" fill="#957738"/>
<path d="M127.803 102.502C127.621 102.486 127.477 102.441 127.383 102.367C127.531 102.227 127.684 102.091 127.842 101.962C128.956 101.053 130.042 100.525 130.517 100.314L130.521 100.314C130.683 100.246 130.771 100.213 130.771 100.213L131.125 100.462C131.125 100.462 131.041 100.49 130.9 100.545C130.34 100.767 128.84 101.426 127.803 102.502Z" fill="#543E12"/>
<path d="M75.0601 100.334L85.3718 95.8201H123.685L115.068 100.334H75.0601Z" fill="#543E12"/>
<path d="M75.0601 102.395V100.334H115.068V102.395H75.0601Z" fill="#543E12"/>
<path d="M123.686 95.8199V97.7859L115.069 102.395V100.334L123.686 95.8199Z" fill="#F9D337"/>
<path d="M119.929 96.6856L113.997 99.6523L111.644 99.648L105.936 99.6393L99.4388 99.6262L92.6044 99.6131L83.6933 99.5956L78.7339 99.5869L86.1248 96.6856H119.929Z" fill="#957738"/>
<path d="M83.6933 99.5957L78.7339 99.587L86.1248 96.6857H91.6274L83.6933 99.5957Z" fill="#F9D337"/>
<path d="M99.4399 99.6263L92.6055 99.6133C94.3579 98.7319 96.6185 97.5976 98.4367 96.6858H105.258L99.4399 99.6263Z" fill="#F9D337"/>
<path d="M111.646 99.6481L105.937 99.6393L110.686 96.6857H115.562C114.419 97.5539 112.916 98.6882 111.646 99.6481Z" fill="#F9D337"/>
<path d="M80.7333 104.397L71.5365 108.07C71.3078 108.164 71.0633 108.208 70.8154 108.208H45.7692C45.4122 108.208 45.3219 107.722 45.6527 107.596L55.9723 103.559L57.0733 103.128C57.1145 103.11 57.1556 103.102 57.2008 103.106L80.6242 103.779C80.9738 103.79 81.0561 104.269 80.7333 104.397Z" fill="#F9D337"/>
<path d="M55.4276 108.208H53.2559C52.7678 107.951 52.4822 107.794 52.4445 107.782C52.4327 107.778 52.4301 107.777 52.4366 107.777C52.5098 107.777 53.7711 108.023 55.4276 108.208Z" fill="#516087"/>
<path d="M70.815 108.208H61.1753C61.2165 108.201 61.2542 108.194 61.2953 108.186C62.0791 108.026 62.4243 107.678 62.416 107.239C64.9255 107.026 66.3257 106.447 66.3257 106.447C66.3257 106.447 66.3257 106.445 66.3252 106.442C66.3261 106.444 66.3266 106.445 66.3266 106.445L67.7947 105.651C67.7947 105.651 67.6387 104.784 67.4266 103.4L80.6237 103.779C80.8231 103.785 80.9357 103.944 80.9357 104.103C80.9357 104.222 80.8717 104.342 80.7328 104.397L71.5361 108.07C71.3074 108.164 71.0629 108.208 70.815 108.208Z" fill="#543E12"/>
<path d="M92.109 87.5865C92.109 91.6767 88.7798 94.9921 84.673 94.9921H52.1488C48.042 94.9921 44.7124 91.6767 44.7124 87.5865V58.0855C44.7124 53.9957 48.042 50.6799 52.1488 50.6799H84.673C88.7798 50.6799 92.109 53.9957 92.109 58.0855V87.5865Z" fill="#957738"/>
<path d="M89.72 59.5247V86.843C89.72 90.6291 86.6358 93.7006 82.8339 93.7006H52.7197C48.9143 93.7006 45.834 90.6291 45.834 86.843V59.5247C45.834 55.739 48.9143 52.6671 52.7197 52.6671H82.8339C86.6358 52.6671 89.72 55.739 89.72 59.5247Z" fill="#C3B395"/>
<path d="M82.8339 93.7006H66.3448C66.2406 91.9039 66.2152 90.1605 66.3278 88.6841C66.5433 85.8609 66.9652 84.0385 67.3595 82.8919H71.2595C72.0069 82.8919 72.612 82.2899 72.612 81.5455V71.6274C76.8629 65.8487 79.1753 58.8327 78.232 52.6671H82.8339C86.6358 52.6671 89.72 55.739 89.72 59.5247V86.843C89.72 90.6291 86.6358 93.7006 82.8339 93.7006ZM55.9267 93.7006H52.7197C48.9143 93.7006 45.834 90.6291 45.834 86.843V83.2554C47.1645 83.4242 48.6747 83.5202 50.3907 83.5202C51.1066 83.5202 51.8588 83.5036 52.6483 83.4683C54.9287 83.3666 57.1608 82.878 59.2979 82.0761C59.3045 82.0913 59.3115 82.1066 59.3185 82.1219C58.7836 83.391 58.1527 84.9674 57.457 86.8543C56.7748 88.7037 56.282 91.181 55.9267 93.7006Z" fill="#C3B395"/>
<path d="M72.6107 71.2836V81.5456C72.6107 82.2899 72.0057 82.892 71.2583 82.892H60.54C59.7926 82.892 59.188 82.2899 59.188 81.5456V71.2836C59.188 70.5389 59.7926 69.9368 60.54 69.9368H71.2583C71.7542 69.9368 72.1862 70.1986 72.4193 70.5947C72.5428 70.7972 72.6107 71.0328 72.6107 71.2836Z" fill="#957738"/>
<path d="M71.2583 82.892H67.3582C67.8244 81.5355 68.252 81.1254 68.252 81.1254L68.1503 80.8235H69.1694C69.7402 80.8235 70.2024 80.3593 70.2024 79.7908V71.9193C70.2024 71.7199 70.1455 71.5332 70.0474 71.3752C70.6274 71.0969 71.4059 70.8098 72.4193 70.5947C72.5428 70.7972 72.6107 71.0328 72.6107 71.2836V81.5456C72.6107 82.2899 72.0057 82.892 71.2583 82.892ZM59.3172 82.1219C59.2344 81.9474 59.188 81.7519 59.188 81.5456V81.3283C59.4338 81.0377 59.7347 80.7062 60.076 80.3462C60.0791 80.3506 60.0817 80.3549 60.0848 80.3593C59.8587 80.8606 59.6016 81.4478 59.3172 82.1219Z" fill="#F9D337"/>
<path d="M70.2029 71.9193V79.7908C70.2029 80.3593 69.7407 80.8235 69.1699 80.8235H60.9501C60.3792 80.8235 59.9131 80.3593 59.9131 79.7908V71.9193C59.9131 71.3508 60.3792 70.8866 60.9501 70.8866H69.1699C69.7407 70.8866 70.2029 71.3508 70.2029 71.9193Z" fill="#957738"/>
<path d="M69.1699 80.8235H68.1508L67.2509 78.1586C67.2509 78.1586 67.2509 78.1591 67.2501 78.1595C67.2501 78.1595 65.3456 77.1796 64.1435 77.1796C62.9413 77.1796 61.7654 77.3742 61.1306 78.1595C61.1306 78.1595 60.8187 78.7507 60.2741 79.9444C60.2136 80.0753 60.151 80.2136 60.0853 80.3593C59.9766 80.1961 59.9131 80.0006 59.9131 79.7908V76.8842C60.2312 76.3014 60.8388 76.1565 61.6243 76.1565C62.0129 76.1565 62.4453 76.1918 62.9075 76.2272C63.3702 76.263 63.8626 76.2983 64.3717 76.2983C64.5982 76.2983 64.8282 76.2913 65.06 76.2743C67.1414 76.1207 67.9379 73.9881 66.2924 70.8866H69.1699C69.7407 70.8866 70.2029 71.3508 70.2029 71.9193V79.7908C70.2029 80.3593 69.7407 80.8235 69.1699 80.8235Z" fill="#745A25"/>
<path d="M66.3274 106.445L67.7955 105.651C67.7955 105.651 65.8573 94.8479 66.3274 88.684C66.7975 82.5201 68.2529 81.1253 68.2529 81.1253L67.2514 78.1586C67.2514 78.1586 61.8403 83.9656 61.1446 89.1138C60.4489 94.262 66.3274 106.445 66.3274 106.445Z" fill="#F9D337"/>
<path d="M64.9852 96.4277C66.0708 104.468 66.3263 106.447 66.3263 106.447C66.3263 106.447 63.6249 107.565 58.9967 107.266C55.8485 107.064 55.0371 104.725 55.0371 104.725C55.0371 104.725 55.0485 104.239 55.0822 103.413C55.2211 100.135 55.7394 91.5081 57.4563 86.8542C58.6287 83.6741 59.6166 81.377 60.2742 79.9443C60.8188 78.7506 61.1307 78.1594 61.1307 78.1594C61.7656 77.3741 62.9414 77.1795 64.1436 77.1795C65.3458 77.1795 67.2502 78.1594 67.2502 78.1594C67.2502 78.1594 63.8956 88.3917 64.9852 96.4277Z" fill="#957738"/>
<path d="M45.3052 108.211V110.23H71.1916V108.211H45.3052Z" fill="#957738"/>
<path d="M80.9121 104.23V106.25L71.1909 110.23V108.211L80.9121 104.23Z" fill="#F9D337"/>
<path d="M60.5533 107.317C60.0622 107.317 59.543 107.301 58.9967 107.266C55.8485 107.064 55.0371 104.726 55.0371 104.726C55.0371 104.726 55.0485 104.24 55.0822 103.413C55.4007 103.439 55.7258 103.454 56.0505 103.454C58.1306 103.454 60.1844 102.823 60.3794 100.386C60.7886 95.3204 61.8067 84.9874 63.0238 82.7575C64.0165 80.9403 62.8564 79.9347 60.6541 79.9347C60.5305 79.9347 60.4039 79.9378 60.2742 79.9443C60.8188 78.7506 61.1307 78.1594 61.1307 78.1594C61.7656 77.3741 62.9414 77.1795 64.1436 77.1795C65.3458 77.1795 67.2502 78.1594 67.2502 78.1594C67.2502 78.1594 64.767 85.7334 64.7675 92.9662C64.7675 94.1403 64.8332 95.3056 64.9852 96.4277C66.0708 104.468 66.3263 106.447 66.3263 106.447C66.3263 106.447 64.9261 107.026 62.4166 107.239C61.8505 107.287 61.2289 107.317 60.5533 107.317Z" fill="#543E12"/>
<path d="M46.4032 112.657C46.4032 118.061 42.0041 122.442 36.5777 122.442C31.1512 122.442 26.7524 118.061 26.7524 112.657C26.7524 107.253 31.1512 102.872 36.5777 102.872C42.0041 102.872 46.4032 107.253 46.4032 112.657Z" fill="#957738"/>
<path d="M45.3699 112.657C45.3699 117.493 41.4334 121.413 36.577 121.413C31.7207 121.413 27.7842 117.493 27.7842 112.657C27.7842 107.821 31.7207 103.9 36.577 103.9C41.4334 103.9 45.3699 107.821 45.3699 112.657Z" fill="#543E12"/>
<path d="M44.8294 112.656C44.8294 113.185 44.7802 113.703 44.682 114.203C44.0234 117.646 41.2131 120.327 37.6948 120.799C37.3308 120.851 36.9555 120.877 36.5771 120.877C35.4565 120.877 34.3877 120.655 33.4142 120.249C32.8856 120.031 32.3831 119.761 31.918 119.438C31.1612 118.924 30.497 118.288 29.954 117.557C29.3443 116.746 28.8852 115.817 28.6137 114.81C28.426 114.125 28.3247 113.401 28.3247 112.656C28.3247 112.233 28.3565 111.819 28.4201 111.413C29.0123 107.507 32.3656 104.507 36.4384 104.441C36.4848 104.438 36.5309 104.438 36.5771 104.438C37.9028 104.438 39.1564 104.751 40.2686 105.307C40.9849 105.66 41.6404 106.121 42.2183 106.658C42.9 107.294 43.4717 108.042 43.9021 108.876C44.1418 109.328 44.3354 109.803 44.4828 110.297C44.7079 111.045 44.8294 111.836 44.8294 112.656Z" fill="#F9D337"/>
<path d="M37.2816 112.657C37.2816 113.044 36.9662 113.358 36.5768 113.358C36.1875 113.358 35.8721 113.044 35.8721 112.657V107.111C35.8721 106.724 36.1875 106.41 36.5768 106.41C36.9662 106.41 37.2816 106.724 37.2816 107.111V112.657Z" fill="#543E12"/>
<path d="M36.3546 113.358C36.0884 113.358 35.8721 113.044 35.8721 112.657C35.8721 112.269 36.0884 111.955 36.3546 111.955H40.1664C40.4329 111.955 40.6489 112.269 40.6489 112.657C40.6489 113.044 40.4329 113.358 40.1664 113.358H36.3546Z" fill="#543E12"/>
<path d="M37.2816 112.657C37.2816 113.044 36.9662 113.358 36.5768 113.358C36.1875 113.358 35.8721 113.044 35.8721 112.657C35.8721 112.269 36.1875 111.955 36.5768 111.955C36.9662 111.955 37.2816 112.269 37.2816 112.657Z" fill="#3A4BA7"/>
<path d="M28.6137 114.81C28.426 114.125 28.3247 113.401 28.3247 112.656C28.3247 112.233 28.3565 111.819 28.4201 111.413L36.4384 104.44C36.4848 104.438 36.5309 104.438 36.5771 104.438C37.9028 104.438 39.1564 104.751 40.2686 105.307L37.2822 107.742V107.111C37.2822 106.724 36.9667 106.409 36.5774 106.409C36.1881 106.409 35.8726 106.724 35.8726 107.111V108.891L28.6137 114.81Z" fill="#957738" fill-opacity="0.2"/>
<path d="M35.8721 108.891V107.111C35.8721 106.724 36.1875 106.409 36.5768 106.409C36.9662 106.409 37.2816 106.724 37.2816 107.111V107.742L35.8721 108.891Z" fill="#543E12"/>
<path d="M31.9182 119.438C31.1613 118.924 30.4971 118.288 29.9541 117.557L35.8727 112.297V112.657C35.8727 113.044 36.0891 113.358 36.3553 113.358H36.5775H38.8165L31.9182 119.438ZM40.3497 112.007C40.2936 111.974 40.2319 111.955 40.1671 111.955H37.2823V111.045L42.2184 106.659C42.9001 107.294 43.4718 108.042 43.9022 108.876L40.3497 112.007Z" fill="#957738" fill-opacity="0.2"/>
<path d="M35.8721 112.657V112.297L35.9958 112.188C35.9188 112.312 35.8721 112.477 35.8721 112.657ZM36.2318 111.978L37.2816 111.045V111.955H36.3546C36.3122 111.955 36.2711 111.963 36.2318 111.978Z" fill="#543E12"/>
<path d="M38.8158 113.358H36.5768C36.9662 113.358 37.2816 113.044 37.2816 112.657C37.2816 112.269 36.9662 111.955 36.5768 111.955C36.1875 111.955 35.8721 112.269 35.8721 112.657C35.8721 112.477 35.9188 112.312 35.9958 112.188L36.2318 111.978C36.2711 111.963 36.3122 111.955 36.3546 111.955H37.2816H40.1664C40.2313 111.955 40.293 111.974 40.3491 112.007L38.8158 113.358ZM36.5768 113.358H36.3546C36.0884 113.358 35.8721 113.044 35.8721 112.657C35.8721 113.044 36.1875 113.358 36.5768 113.358Z" fill="#543E12"/>
<path d="M36.5768 113.358C36.1875 113.358 35.8721 113.044 35.8721 112.657C35.8721 112.269 36.1875 111.955 36.5768 111.955C36.9662 111.955 37.2816 112.269 37.2816 112.657C37.2816 113.044 36.9662 113.358 36.5768 113.358Z" fill="#543E12"/>
<path d="M36.5774 120.877C35.4568 120.877 34.388 120.655 33.4146 120.249L44.4832 110.297C44.7082 111.045 44.8298 111.836 44.8298 112.656C44.8298 113.185 44.7805 113.703 44.6823 114.203L37.6952 120.799C37.3311 120.851 36.9558 120.877 36.5774 120.877Z" fill="#957738" fill-opacity="0.2"/>
<path d="M95.909 28.8155C95.8395 29.716 92.489 28.5339 89.4418 27.7082H76.5304C75.2627 27.7082 74.2344 26.6842 74.2344 25.4242V13.6482C74.2344 12.3854 75.2627 11.3614 76.5304 11.3614H92.5065C93.7745 11.3614 94.7997 12.3854 94.7997 13.6482V22.5135C94.7997 22.5135 95.9782 27.9153 95.909 28.8155Z" fill="#FAB513"/>
<path d="M90.1953 10.6365L90.2474 10.5006V10.5613C90.2187 10.6019 90.2012 10.6277 90.1953 10.6365Z" fill="#1EB4B0"/>
<path d="M95.28 29.1385C94.1576 29.1385 91.7154 28.324 89.4418 27.7082H76.5304C75.2627 27.7082 74.2344 26.6841 74.2344 25.4242V23.6437C74.2718 23.684 74.2976 23.7327 74.2976 23.7327C74.2976 23.7327 74.4653 24.8664 75.5454 24.8664H87.6133C91.9404 24.8664 92.0212 24.3138 92.0212 22.6283V14.1485C92.0212 11.6059 90.2476 11.4132 90.2476 11.4132V11.3613H92.5065C93.7745 11.3613 94.7997 12.3854 94.7997 13.6481V22.5134C94.7997 22.5134 95.9125 27.6135 95.9118 28.7285C95.9118 28.7611 95.9109 28.79 95.909 28.8154C95.8913 29.0442 95.6622 29.1385 95.28 29.1385Z" fill="#F8A014"/>
<path d="M81.4218 20.2512C81.4218 20.9508 80.8523 21.5179 80.1497 21.5179C79.4474 21.5179 78.8779 20.9508 78.8779 20.2512C78.8779 19.5515 79.4474 18.9844 80.1497 18.9844C80.8523 18.9844 81.4218 19.5515 81.4218 20.2512Z" fill="#957738"/>
<path d="M85.9006 20.2512C85.9006 20.9508 85.3308 21.5179 84.6285 21.5179C83.9259 21.5179 83.3564 20.9508 83.3564 20.2512C83.3564 19.5515 83.9259 18.9844 84.6285 18.9844C85.3308 18.9844 85.9006 19.5515 85.9006 20.2512Z" fill="#957738"/>
<path d="M90.3776 20.2512C90.3776 20.9508 89.8081 21.5179 89.1056 21.5179C88.403 21.5179 87.8335 20.9508 87.8335 20.2512C87.8335 19.5515 88.403 18.9844 89.1056 18.9844C89.8081 18.9844 90.3776 19.5515 90.3776 20.2512Z" fill="#957738"/>
<path d="M55.3738 5.04502V16.4762C55.3738 17.5636 54.4901 18.4436 53.401 18.4436H39.7677C38.6789 18.4436 37.7949 17.5636 37.7949 16.4762V5.04502C37.7949 3.95765 38.6789 3.08043 39.7677 3.08043H53.401C54.4901 3.08043 55.3738 3.95765 55.3738 5.04502Z" fill="#FCFEFF"/>
<path d="M55.3738 5.04501V7.30884H37.7949V5.04501C37.7949 3.95764 38.6789 3.08042 39.7677 3.08042H53.401C54.4901 3.08042 55.3738 3.95764 55.3738 5.04501Z" fill="#745A25"/>
<path d="M38.4798 10.0094C38.3912 10.0094 38.2729 9.83837 38.1547 9.60308C38.0454 9.38517 38.0562 8.36702 38.0887 7.30882H38.5772C38.5826 8.3068 38.6388 9.29608 38.6218 9.60308C38.6056 9.89362 38.5527 10.0094 38.4798 10.0094Z" fill="#FCFEFF"/>
<path d="M38.5779 7.30884H38.0894C38.1209 6.28045 38.173 5.2145 38.1553 4.80879C38.1277 4.1768 38.9152 3.33186 39.6815 3.33186C39.9128 3.33186 40.1423 3.40915 40.3468 3.59229C41.0654 4.23639 39.4487 4.45089 38.9098 4.88049C38.6276 5.10523 38.572 6.21216 38.5779 7.30884Z" fill="#543E12"/>
<path d="M42.8173 3.47971C42.8173 3.92639 42.322 4.28833 41.7112 4.28833C41.1002 4.28833 40.605 3.92639 40.605 3.47971V1.25033C40.605 0.803964 41.1002 0.441713 41.7112 0.441713C42.322 0.441713 42.8173 0.803964 42.8173 1.25033V3.47971Z" fill="#543E12"/>
<path d="M52.086 3.47971C52.086 3.92639 51.591 4.28833 50.9798 4.28833C50.3688 4.28833 49.8735 3.92639 49.8735 3.47971V1.25033C49.8735 0.803964 50.3688 0.441713 50.9798 0.441713C51.591 0.441713 52.086 0.803964 52.086 1.25033V3.47971Z" fill="#543E12"/>
<path d="M40.6781 9.66035C40.6781 9.78762 40.5303 9.89099 40.3477 9.89099H39.7976C39.6152 9.89099 39.4673 9.78762 39.4673 9.66035V8.42988C39.4673 8.30262 39.6152 8.19925 39.7976 8.19925H40.3477C40.5303 8.19925 40.6781 8.30262 40.6781 8.42988V9.66035Z" fill="#543E12"/>
<path d="M42.9073 9.66035C42.9073 9.78762 42.7595 9.89099 42.5771 9.89099H42.0266C41.8443 9.89099 41.6963 9.78762 41.6963 9.66035V8.42988C41.6963 8.30262 41.8443 8.19925 42.0266 8.19925H42.5771C42.7595 8.19925 42.9073 8.30262 42.9073 8.42988V9.66035Z" fill="#543E12"/>
<path d="M45.1363 9.66035C45.1363 9.78762 44.9882 9.89099 44.8062 9.89099H44.2554C44.073 9.89099 43.9253 9.78762 43.9253 9.66035V8.42988C43.9253 8.30262 44.073 8.19925 44.2554 8.19925H44.8062C44.9882 8.19925 45.1363 8.30262 45.1363 8.42988V9.66035Z" fill="#543E12"/>
<path d="M47.365 9.66035C47.365 9.78762 47.2172 9.89099 47.0349 9.89099H46.4844C46.302 9.89099 46.1543 9.78762 46.1543 9.66035V8.42988C46.1543 8.30262 46.302 8.19925 46.4844 8.19925H47.0349C47.2172 8.19925 47.365 8.30262 47.365 8.42988V9.66035Z" fill="#543E12"/>
<path d="M49.5949 9.66035C49.5949 9.78762 49.4469 9.89099 49.2645 9.89099H48.7144C48.532 9.89099 48.3843 9.78762 48.3843 9.66035V8.42988C48.3843 8.30262 48.532 8.19925 48.7144 8.19925H49.2645C49.4469 8.19925 49.5949 8.30262 49.5949 8.42988V9.66035Z" fill="#543E12"/>
<path d="M51.8236 9.66035C51.8236 9.78762 51.6755 9.89099 51.4932 9.89099H50.9427C50.7604 9.89099 50.6123 9.78762 50.6123 9.66035V8.42988C50.6123 8.30262 50.7604 8.19925 50.9427 8.19925H51.4932C51.6755 8.19925 51.8236 8.30262 51.8236 8.42988V9.66035Z" fill="#543E12"/>
<path d="M54.0533 9.66035C54.0533 9.78762 53.9052 9.89099 53.7232 9.89099H53.1727C52.9903 9.89099 52.8423 9.78762 52.8423 9.66035V8.42988C52.8423 8.30262 52.9903 8.19925 53.1727 8.19925H53.7232C53.9052 8.19925 54.0533 8.30262 54.0533 8.42988V9.66035Z" fill="#543E12"/>
<path d="M40.6781 11.8905C40.6781 12.0177 40.5303 12.1211 40.3477 12.1211H39.7976C39.6152 12.1211 39.4673 12.0177 39.4673 11.8905V10.66C39.4673 10.5327 39.6152 10.4297 39.7976 10.4297H40.3477C40.5303 10.4297 40.6781 10.5327 40.6781 10.66V11.8905Z" fill="#543E12"/>
<path d="M42.9073 11.8905C42.9073 12.0177 42.7595 12.1211 42.5771 12.1211H42.0266C41.8443 12.1211 41.6963 12.0177 41.6963 11.8905V10.66C41.6963 10.5327 41.8443 10.4297 42.0266 10.4297H42.5771C42.7595 10.4297 42.9073 10.5327 42.9073 10.66V11.8905Z" fill="#543E12"/>
<path d="M45.1363 11.8905C45.1363 12.0177 44.9882 12.1211 44.8062 12.1211H44.2554C44.073 12.1211 43.9253 12.0177 43.9253 11.8905V10.66C43.9253 10.5327 44.073 10.4297 44.2554 10.4297H44.8062C44.9882 10.4297 45.1363 10.5327 45.1363 10.66V11.8905Z" fill="#543E12"/>
<path d="M47.365 11.8905C47.365 12.0177 47.2172 12.1211 47.0349 12.1211H46.4844C46.302 12.1211 46.1543 12.0177 46.1543 11.8905V10.66C46.1543 10.5327 46.302 10.4297 46.4844 10.4297H47.0349C47.2172 10.4297 47.365 10.5327 47.365 10.66V11.8905Z" fill="#543E12"/>
<path d="M49.5949 11.8905C49.5949 12.0177 49.4469 12.1211 49.2645 12.1211H48.7144C48.532 12.1211 48.3843 12.0177 48.3843 11.8905V10.66C48.3843 10.5327 48.532 10.4297 48.7144 10.4297H49.2645C49.4469 10.4297 49.5949 10.5327 49.5949 10.66V11.8905Z" fill="#543E12"/>
<path d="M51.8236 11.8905C51.8236 12.0177 51.6755 12.1211 51.4932 12.1211H50.9427C50.7604 12.1211 50.6123 12.0177 50.6123 11.8905V10.66C50.6123 10.5327 50.7604 10.4297 50.9427 10.4297H51.4932C51.6755 10.4297 51.8236 10.5327 51.8236 10.66V11.8905Z" fill="#543E12"/>
<path d="M54.0533 11.8905C54.0533 12.0177 53.9052 12.1211 53.7232 12.1211H53.1727C52.9903 12.1211 52.8423 12.0177 52.8423 11.8905V10.66C52.8423 10.5327 52.9903 10.4297 53.1727 10.4297H53.7232C53.9052 10.4297 54.0533 10.5327 54.0533 10.66V11.8905Z" fill="#543E12"/>
<path d="M40.6781 14.1206C40.6781 14.2481 40.5303 14.3512 40.3477 14.3512H39.7976C39.6152 14.3512 39.4673 14.2481 39.4673 14.1206V12.8904C39.4673 12.7628 39.6152 12.6595 39.7976 12.6595H40.3477C40.5303 12.6595 40.6781 12.7628 40.6781 12.8904V14.1206Z" fill="#543E12"/>
<path d="M42.9073 14.1206C42.9073 14.2481 42.7595 14.3512 42.5771 14.3512H42.0266C41.8443 14.3512 41.6963 14.2481 41.6963 14.1206V12.8904C41.6963 12.7628 41.8443 12.6595 42.0266 12.6595H42.5771C42.7595 12.6595 42.9073 12.7628 42.9073 12.8904V14.1206Z" fill="#543E12"/>
<path d="M45.1363 14.1206C45.1363 14.2481 44.9882 14.3512 44.8062 14.3512H44.2554C44.073 14.3512 43.9253 14.2481 43.9253 14.1206V12.8904C43.9253 12.7628 44.073 12.6595 44.2554 12.6595H44.8062C44.9882 12.6595 45.1363 12.7628 45.1363 12.8904V14.1206Z" fill="#543E12"/>
<path d="M47.365 14.1206C47.365 14.2481 47.2172 14.3512 47.0349 14.3512H46.4844C46.302 14.3512 46.1543 14.2481 46.1543 14.1206V12.8904C46.1543 12.7628 46.302 12.6595 46.4844 12.6595H47.0349C47.2172 12.6595 47.365 12.7628 47.365 12.8904V14.1206Z" fill="#543E12"/>
<path d="M49.5949 14.1206C49.5949 14.2481 49.4469 14.3512 49.2645 14.3512H48.7144C48.532 14.3512 48.3843 14.2481 48.3843 14.1206V12.8904C48.3843 12.7628 48.532 12.6595 48.7144 12.6595H49.2645C49.4469 12.6595 49.5949 12.7628 49.5949 12.8904V14.1206Z" fill="#543E12"/>
<path d="M51.8236 14.1206C51.8236 14.2481 51.6755 14.3512 51.4932 14.3512H50.9427C50.7604 14.3512 50.6123 14.2481 50.6123 14.1206V12.8904C50.6123 12.7628 50.7604 12.6595 50.9427 12.6595H51.4932C51.6755 12.6595 51.8236 12.7628 51.8236 12.8904V14.1206Z" fill="#543E12"/>
<path d="M54.0533 14.1206C54.0533 14.2481 53.9052 14.3512 53.7232 14.3512H53.1727C52.9903 14.3512 52.8423 14.2481 52.8423 14.1206V12.8904C52.8423 12.7628 52.9903 12.6595 53.1727 12.6595H53.7232C53.9052 12.6595 54.0533 12.7628 54.0533 12.8904V14.1206Z" fill="#543E12"/>
<path d="M40.6781 16.4715C40.6781 16.5988 40.5303 16.7021 40.3477 16.7021H39.7976C39.6152 16.7021 39.4673 16.5988 39.4673 16.4715V15.241C39.4673 15.1138 39.6152 15.0104 39.7976 15.0104H40.3477C40.5303 15.0104 40.6781 15.1138 40.6781 15.241V16.4715Z" fill="#543E12"/>
<path d="M42.9074 16.4715C42.9074 16.5988 42.7596 16.7021 42.5772 16.7021H42.0267C41.8445 16.7021 41.6963 16.5988 41.6963 16.4715V15.241C41.6963 15.1138 41.8445 15.0104 42.0267 15.0104H42.5772C42.7596 15.0104 42.9074 15.1138 42.9074 15.241V16.4715Z" fill="#543E12"/>
<path d="M45.1363 16.4715C45.1363 16.5988 44.9885 16.7021 44.8059 16.7021H44.2554C44.073 16.7021 43.9253 16.5988 43.9253 16.4715V15.241C43.9253 15.1138 44.073 15.0104 44.2554 15.0104H44.8059C44.9885 15.0104 45.1363 15.1138 45.1363 15.241V16.4715Z" fill="#543E12"/>
<path d="M47.365 16.4715C47.365 16.5988 47.2172 16.7021 47.0349 16.7021H46.4844C46.302 16.7021 46.1543 16.5988 46.1543 16.4715V15.241C46.1543 15.1138 46.302 15.0104 46.4844 15.0104H47.0349C47.2172 15.0104 47.365 15.1138 47.365 15.241V16.4715Z" fill="#543E12"/>
<path d="M49.5949 16.4715C49.5949 16.5988 49.4469 16.7021 49.2645 16.7021H48.7144C48.532 16.7021 48.3843 16.5988 48.3843 16.4715V15.241C48.3843 15.1138 48.532 15.0104 48.7144 15.0104H49.2645C49.4469 15.0104 49.5949 15.1138 49.5949 15.241V16.4715Z" fill="#543E12"/>
<path d="M51.8236 16.4715C51.8236 16.5988 51.6755 16.7021 51.4932 16.7021H50.9427C50.7604 16.7021 50.6123 16.5988 50.6123 16.4715V15.241C50.6123 15.1138 50.7604 15.0104 50.9427 15.0104H51.4932C51.6755 15.0104 51.8236 15.1138 51.8236 15.241V16.4715Z" fill="#543E12"/>
<path d="M54.0533 16.4715C54.0533 16.5988 53.9052 16.7021 53.7232 16.7021H53.1727C52.9903 16.7021 52.8423 16.5988 52.8423 16.4715V15.241C52.8423 15.1138 52.9903 15.0104 53.1727 15.0104H53.7232C53.9052 15.0104 54.0533 15.1138 54.0533 15.241V16.4715Z" fill="#543E12"/>
<path d="M53.401 18.4436H39.7677C38.6789 18.4436 37.7949 17.5636 37.7949 16.4762V15.7312C38.0117 16.1251 38.3698 16.5796 38.8752 16.5796H39.5054C39.5609 16.6525 39.6709 16.7022 39.7973 16.7022H40.3474C40.474 16.7022 40.5837 16.6525 40.6392 16.5796H41.7345C41.79 16.6525 41.8999 16.7022 42.0263 16.7022H42.5768C42.7032 16.7022 42.813 16.6525 42.8685 16.5796H43.9639C44.0194 16.6525 44.1291 16.7022 44.2553 16.7022H44.8058C44.9324 16.7022 45.0421 16.6525 45.0976 16.5796H46.1929C46.2484 16.6525 46.3581 16.7022 46.4846 16.7022H47.0351C47.1617 16.7022 47.2714 16.6525 47.3269 16.5796H48.4222C48.4777 16.6525 48.5874 16.7022 48.714 16.7022H49.2641C49.3907 16.7022 49.5004 16.6525 49.5559 16.5796H50.6512C50.7067 16.6525 50.8164 16.7022 50.943 16.7022H51.4934C51.6181 16.7022 51.7269 16.6538 51.783 16.5827C51.8516 16.5836 51.9167 16.5845 51.9787 16.5845C52.402 16.5845 52.6773 16.547 52.8406 16.3064C52.8412 16.3058 52.8415 16.3052 52.8419 16.3046V16.4716C52.8419 16.5988 52.9899 16.7022 53.1723 16.7022H53.7227C53.9048 16.7022 54.0528 16.5988 54.0528 16.4716V15.2411C54.0528 15.1138 53.9048 15.0105 53.7227 15.0105H53.1723C53.1208 15.0105 53.0719 15.0185 53.0286 15.0334V14.3285C53.0719 14.3431 53.1208 14.3511 53.1723 14.3511H53.7227C53.9048 14.3511 54.0528 14.2481 54.0528 14.1205V12.8903C54.0528 12.7628 53.9048 12.6594 53.7227 12.6594H53.1723C53.1208 12.6594 53.0719 12.6678 53.0286 12.6824V12.0982C53.0719 12.1131 53.1208 12.1211 53.1723 12.1211H53.7227C53.9048 12.1211 54.0528 12.0178 54.0528 11.8905V10.66C54.0528 10.5328 53.9048 10.4297 53.7227 10.4297H53.1723C53.1208 10.4297 53.0719 10.4378 53.0286 10.4524V9.86819C53.0719 9.88309 53.1208 9.89116 53.1723 9.89116H53.7227C53.9048 9.89116 54.0528 9.78779 54.0528 9.66052V8.43005C54.0528 8.30279 53.9048 8.19942 53.7227 8.19942H53.1723C53.1208 8.19942 53.0719 8.2078 53.0286 8.22239V7.30885H55.3738V16.4762C55.3738 17.5636 54.4901 18.4436 53.401 18.4436Z" fill="#CEDBE1"/>
<path d="M55.3741 7.30884H53.0288V3.08042H53.4013C54.4904 3.08042 55.3741 3.95764 55.3741 5.04501V7.30884Z" fill="#543E12"/>
<path d="M53.723 9.89099H53.1725C53.1211 9.89099 53.0721 9.88292 53.0288 9.86802V8.22222C53.0721 8.20763 53.1211 8.19925 53.1725 8.19925H53.723C53.905 8.19925 54.0531 8.30262 54.0531 8.42988V9.66035C54.0531 9.78762 53.905 9.89099 53.723 9.89099Z" fill="#543E12"/>
<path d="M53.723 12.1211H53.1725C53.1211 12.1211 53.0721 12.113 53.0288 12.0981V10.4523C53.0721 10.4377 53.1211 10.4297 53.1725 10.4297H53.723C53.905 10.4297 54.0531 10.5327 54.0531 10.66V11.8905C54.0531 12.0177 53.905 12.1211 53.723 12.1211Z" fill="#543E12"/>
<path d="M53.723 14.3512H53.1725C53.1211 14.3512 53.0721 14.3431 53.0288 14.3285V12.6824C53.0721 12.6678 53.1211 12.6595 53.1725 12.6595H53.723C53.905 12.6595 54.0531 12.7628 54.0531 12.8904V14.1206C54.0531 14.2481 53.905 14.3512 53.723 14.3512Z" fill="#543E12"/>
<path d="M40.3469 16.7021H39.7968C39.6704 16.7021 39.5604 16.6523 39.5049 16.579H40.6387C40.5832 16.6523 40.4735 16.7021 40.3469 16.7021Z" fill="#2069BC"/>
<path d="M42.5762 16.7021H42.0257C41.8994 16.7021 41.7894 16.6523 41.7339 16.579H42.868C42.8124 16.6523 42.7026 16.7021 42.5762 16.7021Z" fill="#2069BC"/>
<path d="M44.8058 16.7021H44.2553C44.1291 16.7021 44.0194 16.6523 43.9639 16.579H45.0975C45.0421 16.6523 44.9323 16.7021 44.8058 16.7021Z" fill="#2069BC"/>
<path d="M47.0351 16.7021H46.4846C46.3581 16.7021 46.2484 16.6523 46.1929 16.579H47.3269C47.2714 16.6523 47.1616 16.7021 47.0351 16.7021Z" fill="#2069BC"/>
<path d="M49.2638 16.7021H48.7136C48.5871 16.7021 48.4774 16.6523 48.4219 16.579H49.5555C49.5001 16.6523 49.3903 16.7021 49.2638 16.7021Z" fill="#2069BC"/>
<path d="M51.4931 16.7021H50.9426C50.8161 16.7021 50.7064 16.6523 50.6509 16.579H51.3413C51.5003 16.579 51.6477 16.5818 51.7802 16.5818C51.7811 16.5818 51.7817 16.5818 51.7827 16.5821C51.7266 16.6535 51.6178 16.7021 51.4931 16.7021Z" fill="#2069BC"/>
<path d="M53.7232 16.7021H53.1727C52.9903 16.7021 52.8423 16.5988 52.8423 16.4715V16.3045C52.9716 16.1086 53.029 15.7753 53.029 15.219V15.0334C53.0723 15.0185 53.1213 15.0104 53.1727 15.0104H53.7232C53.9052 15.0104 54.0533 15.1138 54.0533 15.241V16.4715C54.0533 16.5988 53.9052 16.7021 53.7232 16.7021Z" fill="#543E12"/>
<path d="M16.3735 41.8573C16.3015 41.8573 16.2292 41.8545 16.16 41.8517C14.4845 41.7394 13.1589 40.35 13.1589 38.6557C13.1589 36.887 14.6002 35.4514 16.3735 35.4514C16.443 35.4514 16.5122 35.4545 16.5786 35.4601C17.4741 35.515 18.2683 35.9347 18.8172 36.5704C19.3026 37.1313 19.5915 37.8592 19.5915 38.6557C19.5915 40.422 18.153 41.8573 16.3735 41.8573ZM25.0448 37.4163L23.2394 36.5387C23.1643 36.2916 23.072 36.0467 22.9707 35.8111L23.9239 34.1858C24.1723 33.7488 24.158 33.2021 23.8718 32.7793C23.8257 32.7073 23.7708 32.6384 23.7072 32.5751L23.0923 31.9651C22.6964 31.5712 22.1157 31.4734 21.6276 31.6749L20.9315 31.9136L19.7299 32.3249H19.7271C19.4989 32.2042 19.262 32.0949 19.0195 31.9999L18.5716 30.3029L18.5401 30.179C18.384 29.6122 17.8612 29.1953 17.2431 29.1953H16.3766C15.9748 29.1953 15.617 29.3679 15.3685 29.647C15.276 29.7504 15.2008 29.8683 15.1432 29.9977L15.1316 30.0207L14.2536 31.8155C14.0079 31.8903 13.7682 31.9797 13.5373 32.0775L13.517 32.0862L13.4968 32.0744L11.888 31.137C11.3737 30.8461 10.7092 30.9181 10.2703 31.3527L9.6578 31.9651C9.26225 32.3594 9.16406 32.9373 9.36636 33.4238L10.0191 35.3163C9.89782 35.5436 9.78778 35.7823 9.69271 36.021L7.86426 36.4987C7.2954 36.6539 6.87646 37.1745 6.87646 37.79V38.6529C6.87646 39.2111 7.21716 39.6916 7.70529 39.8927L9.51068 40.7699C9.5858 41.0173 9.67807 41.262 9.78217 41.4979L8.82618 43.1229C8.79438 43.1806 8.76539 43.238 8.74513 43.2985L8.73079 43.3389C8.56029 43.8104 8.6644 44.3571 9.04281 44.7339L9.65531 45.3435C10.0477 45.7319 10.6197 45.8324 11.105 45.64L11.1225 45.6341L13.0202 44.9841C13.2511 45.1048 13.4908 45.2141 13.7336 45.3122L14.0457 46.5057L14.2102 47.1299C14.3661 47.6964 14.8888 48.1136 15.5072 48.1136H16.4025C16.9514 48.1022 17.4161 47.7657 17.6184 47.288L18.4965 45.4932C18.748 45.4156 18.9933 45.3262 19.233 45.2228L20.8623 46.172C21.0384 46.2726 21.2348 46.3303 21.4343 46.3418L21.4832 46.3446C21.8414 46.3589 22.2055 46.2295 22.4798 45.9563L23.0923 45.3466C23.4878 44.9496 23.586 44.3713 23.384 43.8852L22.731 41.9954C22.8526 41.7654 22.9623 41.5292 23.0573 41.2877L24.8858 40.8103C25.455 40.6551 25.8736 40.1373 25.8736 39.5187V38.6557C25.8736 38.0979 25.5329 37.6202 25.0448 37.4163Z" fill="#957738"/>
<path d="M16.4025 48.1136H15.5073C14.8889 48.1136 14.3662 47.6964 14.2103 47.1299L14.0457 46.5057L13.7337 45.3122C13.4909 45.2141 13.2512 45.1048 13.0202 44.9841L11.1226 45.6341L11.1051 45.64C11.1017 45.6412 11.0979 45.6428 11.0942 45.644C11.0942 45.6443 11.0939 45.6443 11.0936 45.6443C10.9374 45.7049 10.7725 45.735 10.6076 45.735C10.6073 45.735 10.607 45.735 10.6067 45.735C10.6061 45.735 10.6054 45.735 10.6048 45.735C10.2732 45.7347 9.94245 45.6127 9.68342 45.3705C9.68342 45.3705 9.68311 45.3705 9.68311 45.3702C9.67937 45.3668 9.67563 45.3634 9.67189 45.3597C9.67095 45.3591 9.67033 45.3584 9.6697 45.3575C9.6669 45.355 9.6641 45.3522 9.66129 45.3494C9.65911 45.3476 9.65724 45.3457 9.65537 45.3435L9.04287 44.7339C8.78135 44.4731 8.65075 44.1317 8.65137 43.7896C8.65168 43.6372 8.67817 43.4842 8.73085 43.3389C9.17971 43.7496 9.62326 44.426 10.573 44.426C10.6073 44.426 10.6422 44.425 10.6778 44.4232C12.0287 44.3555 12.6811 43.338 13.2926 43.338C13.331 43.338 13.369 43.3417 13.4074 43.3504C14.0541 43.4941 14.7736 43.5286 15.0594 44.0293C15.3483 44.5296 15.2386 45.64 15.6342 45.9246C15.7701 46.0233 15.9652 46.0758 16.1672 46.0758C16.5537 46.0758 16.9648 45.8846 17.035 45.4615C17.1447 44.8171 17.8267 43.7071 18.5458 43.4941C18.6605 43.4593 18.7755 43.4432 18.8896 43.4432C19.4887 43.4432 20.0735 43.8877 20.556 44.4576C20.7449 44.6814 20.9416 44.7662 21.1304 44.7662C21.5173 44.7662 21.8729 44.4126 22.0668 44.173C22.3526 43.8163 21.0588 42.3838 21.2408 41.7394C21.4197 41.0953 22.1014 39.9505 22.8928 39.9157C23.6814 39.8784 23.7188 39.0931 23.5745 38.4831C23.4302 37.8763 22.6416 37.6981 22.136 37.5889C21.6335 37.4821 21.2754 36.0871 21.9225 35.4082C22.5693 34.7269 22.6416 33.5473 21.9225 33.0094C21.694 32.8396 21.4116 32.7741 21.1142 32.7741C20.4743 32.7741 19.7642 33.077 19.3718 33.2971C19.2509 33.3648 19.1268 33.3946 19.0006 33.3946C18.5265 33.3946 18.0212 32.9761 17.5377 32.581C16.9284 32.0803 17.6101 30.3976 17.1447 30.0753C16.9521 29.9425 16.5478 29.8593 16.1005 29.8593C15.8505 29.8593 15.5871 29.8854 15.3396 29.9431C15.3483 29.8453 15.3571 29.7476 15.3686 29.647C15.617 29.3679 15.9749 29.1953 16.3766 29.1953H17.2432C17.8613 29.1953 18.384 29.6122 18.5402 30.179L18.5717 30.3029L19.0196 31.9999C19.2621 32.0949 19.499 32.2042 19.7272 32.3249H19.73L20.9316 31.9136L21.6276 31.6749C21.7919 31.6069 21.9668 31.5731 22.1413 31.5731C22.1416 31.5731 22.1419 31.5731 22.1422 31.5731C22.1429 31.5731 22.1435 31.5731 22.1441 31.5731C22.4755 31.5734 22.8062 31.6954 23.0643 31.9381C23.0643 31.9384 23.0646 31.9388 23.0649 31.9388C23.0739 31.9474 23.0833 31.9564 23.0923 31.9651L23.7073 32.5751C23.7709 32.6384 23.8258 32.7073 23.8719 32.7793C24.024 33.0041 24.0991 33.2633 24.0991 33.5231C24.0991 33.7519 24.0405 33.981 23.9239 34.1858L22.9707 35.8111C23.0721 36.0467 23.1643 36.2916 23.2394 36.5387L25.0448 37.4163C25.533 37.6202 25.8737 38.0979 25.8737 38.6557V39.5187C25.8737 40.1373 25.455 40.6551 24.8859 40.8103L23.0574 41.2877C22.9623 41.5292 22.8526 41.7654 22.731 41.9954L23.3841 43.8852C23.4517 44.0485 23.4857 44.2223 23.486 44.3962C23.4866 44.7395 23.3551 45.0828 23.0923 45.3466L22.4798 45.9563C22.2205 46.2146 21.8807 46.3443 21.5419 46.3459C21.54 46.3459 21.5385 46.3459 21.5366 46.3459C21.5188 46.3459 21.5011 46.3455 21.4833 46.3446L21.4344 46.3418C21.2349 46.3303 21.0385 46.2726 20.8624 46.172L19.2331 45.2228C18.9934 45.3262 18.7481 45.4156 18.4965 45.4932L17.6185 47.288C17.4162 47.7657 16.9514 48.1022 16.4025 48.1136Z" fill="#957738"/>
<path d="M8.74513 43.2985C8.76539 43.2379 8.79438 43.1805 8.82618 43.1228L9.78217 41.4978C9.67807 41.2619 9.5858 41.0173 9.51068 40.7699L7.70529 39.8926C7.21716 39.6915 6.87646 39.211 6.87646 38.6528V37.7899C6.87646 37.1744 7.2954 36.6538 7.86426 36.4986L9.69271 36.0209C9.78778 35.7822 9.89782 35.5435 10.0191 35.3162L9.36636 33.4237C9.29841 33.2604 9.26443 33.0866 9.26412 32.913C9.26349 32.5697 9.39503 32.2267 9.6578 31.9651L10.2703 31.3526C10.2725 31.3507 10.2744 31.3486 10.2762 31.3467C10.2787 31.3445 10.2809 31.3424 10.2831 31.3399C10.285 31.3383 10.2865 31.3368 10.2884 31.3352C10.5483 31.0869 10.8837 30.9624 11.2194 30.9621C11.2201 30.9621 11.221 30.9621 11.2216 30.9621C11.2219 30.9621 11.2222 30.9621 11.2226 30.9621C11.4523 30.9624 11.6823 31.0205 11.888 31.1369L13.4968 32.0743L13.517 32.0861L13.5373 32.0774C13.7682 31.9796 14.0079 31.8902 14.2536 31.8154L15.1316 30.0206L15.1432 29.9977C15.2068 29.9775 15.2732 29.9573 15.3395 29.943C15.2096 31.3095 15.2962 32.3794 14.7735 32.4744C14.2748 32.561 14.0404 33.1933 13.6395 33.1933C13.5485 33.1933 13.4484 33.1608 13.335 33.0813C12.7593 32.6765 11.9261 31.8558 11.5311 31.8558C11.5078 31.8558 11.4863 31.8586 11.4663 31.8645C11.1078 31.9737 10.3164 32.9748 10.1749 33.1533C10.0306 33.3315 10.8566 35.1207 10.8912 35.5866C10.9289 36.0497 10.5334 36.5877 10.4265 36.6594C10.3164 36.7314 8.34085 37.3758 8.0173 37.482C7.69406 37.5888 7.55255 38.7708 7.69406 38.9148C7.83838 39.0558 9.05995 39.4869 9.74165 39.8783C10.4265 40.2723 10.3887 41.5611 10.4265 41.7768C10.4579 41.9665 9.38943 42.8294 8.74513 43.2985Z" fill="#957738"/>
<path d="M15.1431 29.9977C15.2007 29.8682 15.2759 29.7503 15.3684 29.6469C15.3569 29.7475 15.3482 29.8453 15.3394 29.9431C15.273 29.9573 15.2067 29.9775 15.1431 29.9977Z" fill="#957738"/>
<path d="M15.8972 41.8955C14.7632 41.8955 12.5464 41.3793 12.5464 38.6989C12.5464 35.5495 16.5702 35.371 16.5702 35.371C16.5702 35.371 16.573 35.4026 16.5786 35.4601C16.5122 35.4545 16.443 35.4514 16.3735 35.4514C14.6002 35.4514 13.1589 36.887 13.1589 38.6558C13.1589 40.35 14.4846 41.7394 16.16 41.8518C16.2292 41.8545 16.3015 41.8573 16.3735 41.8573C16.2594 41.88 16.0945 41.8955 15.8972 41.8955Z" fill="#957738"/>
<path d="M175.575 18.8704V27.6293C175.575 27.7358 175.569 27.8423 175.557 27.9456C175.479 28.6648 175.133 29.3006 174.621 29.7606C174.11 30.2209 173.434 30.5 172.692 30.5H158.833C158.022 30.5 157.294 30.1691 156.768 29.6371C156.482 29.3437 156.257 28.9899 156.118 28.5987C156.06 28.4376 156.017 28.2709 155.988 28.098C155.962 27.9428 155.948 27.7873 155.948 27.6293V18.8704C155.948 18.0249 156.315 17.2653 156.898 16.7392C157.409 16.2788 158.088 15.9998 158.833 15.9998H172.692C173.492 15.9998 174.217 16.322 174.74 16.8484V16.8512C175.219 17.3286 175.528 17.9758 175.569 18.6951C175.572 18.7525 175.575 18.813 175.575 18.8704Z" fill="#F9D337"/>
<path d="M174.74 16.8484V16.8512C174.74 16.8512 173.189 18.6233 171.3 20.4122C169.37 22.2417 167.091 24.0884 165.763 24.0884C163.129 24.0884 156.898 16.7447 156.898 16.7447V16.7391C157.409 16.2787 158.088 15.9997 158.833 15.9997H172.692C173.492 15.9997 174.217 16.3219 174.74 16.8484Z" fill="#957738"/>
<path d="M174.621 29.7606C174.109 30.2209 173.434 30.5 172.691 30.5H158.832C158.021 30.5 157.293 30.1691 156.767 29.6371C156.767 29.6371 156.969 29.4474 157.322 29.1451C158.746 27.9254 162.642 24.8564 165.762 24.8564C167.579 24.8564 169.629 25.9236 171.299 27.0625C173.208 28.3656 174.621 29.7606 174.621 29.7606Z" fill="#957738"/>
<path d="M174.622 29.7604C174.622 29.7604 173.209 28.3654 171.3 27.0623V20.412C173.189 18.6231 174.74 16.851 174.74 16.851C175.22 17.3284 175.529 17.9756 175.569 18.6948C175.572 18.7523 175.575 18.8128 175.575 18.8702V27.6291C175.575 27.7356 175.569 27.842 175.558 27.9454C175.479 28.6646 175.133 29.3003 174.622 29.7604ZM156.768 29.6368C156.482 29.3435 156.257 28.9896 156.118 28.5985C156.407 28.8487 156.797 29.0759 157.323 29.1448C156.97 29.4472 156.768 29.6368 156.768 29.6368Z" fill="#F9D337"/>
<path d="M171.299 20.4122C171.299 18.0221 171.299 15.9997 171.299 15.9997H172.692C173.492 15.9997 174.217 16.3219 174.74 16.8484V16.8512C174.74 16.8512 173.189 18.6233 171.299 20.4122Z" fill="#957738"/>
</svg>
